M48
; DRILL file {KiCad (5.1.0)-1} date 16/09/2020 11:17:06
; FORMAT={-:-/ absolute / metric / decimal}
; #@! TF.CreationDate,2020-09-16T11:17:06+02:00
; #@! TF.GenerationSoftware,Kicad,Pcbnew,(5.1.0)-1
; #@! TF.FileFunction,Plated,1,2,PTH
FMAT,2
METRIC
T1C0.400
T2C1.000
%
G90
G05
T1
X27.678Y-63.242
X28.233Y-53.205
X28.489Y-63.97
X28.641Y-52.172
X28.774Y-59.173
X28.908Y-77.958
X29.365Y-57.25
X29.645Y-74.866
X29.648Y-59.741
X29.965Y-52.122
X30.986Y-52.127
X31.248Y-54.617
X31.718Y-63.522
X31.966Y-55.793
X32.624Y-52.147
X33.328Y-68.929
X34.904Y-60.812
X35.065Y-63.545
X35.071Y-53.721
X35.129Y-64.666
X36.051Y-56.467
X36.505Y-53.941
X36.765Y-52.584
X37.484Y-51.584
X38.542Y-69.736
X38.611Y-51.586
X39.663Y-57.241
X39.979Y-58.249
X39.99Y-55.889
X40.573Y-50.498
X43.135Y-57.327
X43.19Y-58.466
X43.346Y-52.458
X46.113Y-56.199
X47.193Y-54.469
X47.901Y-52.993
X48.424Y-54.674
X50.977Y-65.171
X51.133Y-72.831
X53.31Y-52.803
T2
X42.962Y-74.013
X42.962Y-76.553
X42.962Y-79.093
X42.962Y-81.633
X39.146Y-71.468
X39.146Y-74.008
X39.146Y-76.548
X39.146Y-79.088
X39.146Y-81.628
X19.0Y-50.0
X19.0Y-52.54
X19.0Y-55.08
X19.0Y-57.62
X19.0Y-60.16
X19.0Y-62.7
X19.0Y-65.24
X19.0Y-67.78
X19.0Y-70.32
X19.0Y-72.86
X19.0Y-75.4
X19.0Y-77.94
X21.54Y-50.0
X21.54Y-52.54
X21.54Y-55.08
X21.54Y-57.62
X21.54Y-60.16
X21.54Y-62.7
X21.54Y-65.24
X21.54Y-67.78
X21.54Y-70.32
X21.54Y-72.86
X21.54Y-75.4
X21.54Y-77.94
X59.64Y-50.0
X59.64Y-52.54
X59.64Y-55.08
X59.64Y-57.62
X59.64Y-60.16
X59.64Y-62.7
X59.64Y-65.24
X59.64Y-67.78
X59.64Y-70.32
X59.64Y-72.86
X59.64Y-75.4
X59.64Y-77.94
X62.18Y-50.0
X62.18Y-52.54
X62.18Y-55.08
X62.18Y-57.62
X62.18Y-60.16
X62.18Y-62.7
X62.18Y-65.24
X62.18Y-67.78
X62.18Y-70.32
X62.18Y-72.86
X62.18Y-75.4
X62.18Y-77.94
T0
M30
