G04 #@! TF.GenerationSoftware,KiCad,Pcbnew,(5.1.0)-1*
G04 #@! TF.CreationDate,2020-09-16T11:17:04+02:00*
G04 #@! TF.ProjectId,Nand Lite,4e616e64-204c-4697-9465-2e6b69636164,rev?*
G04 #@! TF.SameCoordinates,Original*
G04 #@! TF.FileFunction,Soldermask,Top*
G04 #@! TF.FilePolarity,Negative*
%FSLAX46Y46*%
G04 Gerber Fmt 4.6, Leading zero omitted, Abs format (unit mm)*
G04 Created by KiCad (PCBNEW (5.1.0)-1) date 2020-09-16 11:17:04*
%MOMM*%
%LPD*%
G04 APERTURE LIST*
%ADD10C,0.100000*%
G04 APERTURE END LIST*
D10*
G36*
X43072042Y-80738618D02*
G01*
X43138227Y-80745137D01*
X43308066Y-80796657D01*
X43464591Y-80880322D01*
X43477358Y-80890800D01*
X43601786Y-80992914D01*
X43685048Y-81094371D01*
X43714378Y-81130109D01*
X43798043Y-81286634D01*
X43849563Y-81456473D01*
X43866959Y-81633100D01*
X43849563Y-81809727D01*
X43798043Y-81979566D01*
X43714378Y-82136091D01*
X43710962Y-82140253D01*
X43601786Y-82273286D01*
X43500329Y-82356548D01*
X43464591Y-82385878D01*
X43308066Y-82469543D01*
X43138227Y-82521063D01*
X43072042Y-82527582D01*
X43005860Y-82534100D01*
X42917340Y-82534100D01*
X42851158Y-82527582D01*
X42784973Y-82521063D01*
X42615134Y-82469543D01*
X42458609Y-82385878D01*
X42422871Y-82356548D01*
X42321414Y-82273286D01*
X42212238Y-82140253D01*
X42208822Y-82136091D01*
X42125157Y-81979566D01*
X42073637Y-81809727D01*
X42056241Y-81633100D01*
X42073637Y-81456473D01*
X42125157Y-81286634D01*
X42208822Y-81130109D01*
X42238152Y-81094371D01*
X42321414Y-80992914D01*
X42445842Y-80890800D01*
X42458609Y-80880322D01*
X42615134Y-80796657D01*
X42784973Y-80745137D01*
X42851158Y-80738618D01*
X42917340Y-80732100D01*
X43005860Y-80732100D01*
X43072042Y-80738618D01*
X43072042Y-80738618D01*
G37*
G36*
X39242540Y-80732100D02*
G01*
X39323127Y-80740037D01*
X39492966Y-80791557D01*
X39649491Y-80875222D01*
X39685229Y-80904552D01*
X39786686Y-80987814D01*
X39862710Y-81080451D01*
X39899278Y-81125009D01*
X39982943Y-81281534D01*
X40034463Y-81451373D01*
X40051859Y-81628000D01*
X40034463Y-81804627D01*
X39982943Y-81974466D01*
X39899278Y-82130991D01*
X39878008Y-82156908D01*
X39786686Y-82268186D01*
X39685229Y-82351448D01*
X39649491Y-82380778D01*
X39492966Y-82464443D01*
X39323127Y-82515963D01*
X39271345Y-82521063D01*
X39190760Y-82529000D01*
X39102240Y-82529000D01*
X39021655Y-82521063D01*
X38969873Y-82515963D01*
X38800034Y-82464443D01*
X38643509Y-82380778D01*
X38607771Y-82351448D01*
X38506314Y-82268186D01*
X38414992Y-82156908D01*
X38393722Y-82130991D01*
X38310057Y-81974466D01*
X38258537Y-81804627D01*
X38241141Y-81628000D01*
X38258537Y-81451373D01*
X38310057Y-81281534D01*
X38393722Y-81125009D01*
X38430290Y-81080451D01*
X38506314Y-80987814D01*
X38607771Y-80904552D01*
X38643509Y-80875222D01*
X38800034Y-80791557D01*
X38969873Y-80740037D01*
X39050460Y-80732100D01*
X39102240Y-80727000D01*
X39190760Y-80727000D01*
X39242540Y-80732100D01*
X39242540Y-80732100D01*
G37*
G36*
X35339038Y-81500416D02*
G01*
X35359657Y-81506671D01*
X35378653Y-81516824D01*
X35395308Y-81530492D01*
X35408976Y-81547147D01*
X35419129Y-81566143D01*
X35425384Y-81586762D01*
X35428100Y-81614340D01*
X35428100Y-82073060D01*
X35425384Y-82100638D01*
X35419129Y-82121257D01*
X35408976Y-82140253D01*
X35395308Y-82156908D01*
X35378653Y-82170576D01*
X35359657Y-82180729D01*
X35339038Y-82186984D01*
X35311460Y-82189700D01*
X34802740Y-82189700D01*
X34775162Y-82186984D01*
X34754543Y-82180729D01*
X34735547Y-82170576D01*
X34718892Y-82156908D01*
X34705224Y-82140253D01*
X34695071Y-82121257D01*
X34688816Y-82100638D01*
X34686100Y-82073060D01*
X34686100Y-81614340D01*
X34688816Y-81586762D01*
X34695071Y-81566143D01*
X34705224Y-81547147D01*
X34718892Y-81530492D01*
X34735547Y-81516824D01*
X34754543Y-81506671D01*
X34775162Y-81500416D01*
X34802740Y-81497700D01*
X35311460Y-81497700D01*
X35339038Y-81500416D01*
X35339038Y-81500416D01*
G37*
G36*
X32407838Y-81500416D02*
G01*
X32428457Y-81506671D01*
X32447453Y-81516824D01*
X32464108Y-81530492D01*
X32477776Y-81547147D01*
X32487929Y-81566143D01*
X32494184Y-81586762D01*
X32496900Y-81614340D01*
X32496900Y-82073060D01*
X32494184Y-82100638D01*
X32487929Y-82121257D01*
X32477776Y-82140253D01*
X32464108Y-82156908D01*
X32447453Y-82170576D01*
X32428457Y-82180729D01*
X32407838Y-82186984D01*
X32380260Y-82189700D01*
X31871540Y-82189700D01*
X31843962Y-82186984D01*
X31823343Y-82180729D01*
X31804347Y-82170576D01*
X31787692Y-82156908D01*
X31774024Y-82140253D01*
X31763871Y-82121257D01*
X31757616Y-82100638D01*
X31754900Y-82073060D01*
X31754900Y-81614340D01*
X31757616Y-81586762D01*
X31763871Y-81566143D01*
X31774024Y-81547147D01*
X31787692Y-81530492D01*
X31804347Y-81516824D01*
X31823343Y-81506671D01*
X31843962Y-81500416D01*
X31871540Y-81497700D01*
X32380260Y-81497700D01*
X32407838Y-81500416D01*
X32407838Y-81500416D01*
G37*
G36*
X29189638Y-81500416D02*
G01*
X29210257Y-81506671D01*
X29229253Y-81516824D01*
X29245908Y-81530492D01*
X29259576Y-81547147D01*
X29269729Y-81566143D01*
X29275984Y-81586762D01*
X29278700Y-81614340D01*
X29278700Y-82073060D01*
X29275984Y-82100638D01*
X29269729Y-82121257D01*
X29259576Y-82140253D01*
X29245908Y-82156908D01*
X29229253Y-82170576D01*
X29210257Y-82180729D01*
X29189638Y-82186984D01*
X29162060Y-82189700D01*
X28653340Y-82189700D01*
X28625762Y-82186984D01*
X28605143Y-82180729D01*
X28586147Y-82170576D01*
X28569492Y-82156908D01*
X28555824Y-82140253D01*
X28545671Y-82121257D01*
X28539416Y-82100638D01*
X28536700Y-82073060D01*
X28536700Y-81614340D01*
X28539416Y-81586762D01*
X28545671Y-81566143D01*
X28555824Y-81547147D01*
X28569492Y-81530492D01*
X28586147Y-81516824D01*
X28605143Y-81506671D01*
X28625762Y-81500416D01*
X28653340Y-81497700D01*
X29162060Y-81497700D01*
X29189638Y-81500416D01*
X29189638Y-81500416D01*
G37*
G36*
X25593038Y-81500416D02*
G01*
X25613657Y-81506671D01*
X25632653Y-81516824D01*
X25649308Y-81530492D01*
X25662976Y-81547147D01*
X25673129Y-81566143D01*
X25679384Y-81586762D01*
X25682100Y-81614340D01*
X25682100Y-82073060D01*
X25679384Y-82100638D01*
X25673129Y-82121257D01*
X25662976Y-82140253D01*
X25649308Y-82156908D01*
X25632653Y-82170576D01*
X25613657Y-82180729D01*
X25593038Y-82186984D01*
X25565460Y-82189700D01*
X25056740Y-82189700D01*
X25029162Y-82186984D01*
X25008543Y-82180729D01*
X24989547Y-82170576D01*
X24972892Y-82156908D01*
X24959224Y-82140253D01*
X24949071Y-82121257D01*
X24942816Y-82100638D01*
X24940100Y-82073060D01*
X24940100Y-81614340D01*
X24942816Y-81586762D01*
X24949071Y-81566143D01*
X24959224Y-81547147D01*
X24972892Y-81530492D01*
X24989547Y-81516824D01*
X25008543Y-81506671D01*
X25029162Y-81500416D01*
X25056740Y-81497700D01*
X25565460Y-81497700D01*
X25593038Y-81500416D01*
X25593038Y-81500416D01*
G37*
G36*
X35339038Y-80530416D02*
G01*
X35359657Y-80536671D01*
X35378653Y-80546824D01*
X35395308Y-80560492D01*
X35408976Y-80577147D01*
X35419129Y-80596143D01*
X35425384Y-80616762D01*
X35428100Y-80644340D01*
X35428100Y-81103060D01*
X35425384Y-81130638D01*
X35419129Y-81151257D01*
X35408976Y-81170253D01*
X35395308Y-81186908D01*
X35378653Y-81200576D01*
X35359657Y-81210729D01*
X35339038Y-81216984D01*
X35311460Y-81219700D01*
X34802740Y-81219700D01*
X34775162Y-81216984D01*
X34754543Y-81210729D01*
X34735547Y-81200576D01*
X34718892Y-81186908D01*
X34705224Y-81170253D01*
X34695071Y-81151257D01*
X34688816Y-81130638D01*
X34686100Y-81103060D01*
X34686100Y-80644340D01*
X34688816Y-80616762D01*
X34695071Y-80596143D01*
X34705224Y-80577147D01*
X34718892Y-80560492D01*
X34735547Y-80546824D01*
X34754543Y-80536671D01*
X34775162Y-80530416D01*
X34802740Y-80527700D01*
X35311460Y-80527700D01*
X35339038Y-80530416D01*
X35339038Y-80530416D01*
G37*
G36*
X25593038Y-80530416D02*
G01*
X25613657Y-80536671D01*
X25632653Y-80546824D01*
X25649308Y-80560492D01*
X25662976Y-80577147D01*
X25673129Y-80596143D01*
X25679384Y-80616762D01*
X25682100Y-80644340D01*
X25682100Y-81103060D01*
X25679384Y-81130638D01*
X25673129Y-81151257D01*
X25662976Y-81170253D01*
X25649308Y-81186908D01*
X25632653Y-81200576D01*
X25613657Y-81210729D01*
X25593038Y-81216984D01*
X25565460Y-81219700D01*
X25056740Y-81219700D01*
X25029162Y-81216984D01*
X25008543Y-81210729D01*
X24989547Y-81200576D01*
X24972892Y-81186908D01*
X24959224Y-81170253D01*
X24949071Y-81151257D01*
X24942816Y-81130638D01*
X24940100Y-81103060D01*
X24940100Y-80644340D01*
X24942816Y-80616762D01*
X24949071Y-80596143D01*
X24959224Y-80577147D01*
X24972892Y-80560492D01*
X24989547Y-80546824D01*
X25008543Y-80536671D01*
X25029162Y-80530416D01*
X25056740Y-80527700D01*
X25565460Y-80527700D01*
X25593038Y-80530416D01*
X25593038Y-80530416D01*
G37*
G36*
X32407838Y-80530416D02*
G01*
X32428457Y-80536671D01*
X32447453Y-80546824D01*
X32464108Y-80560492D01*
X32477776Y-80577147D01*
X32487929Y-80596143D01*
X32494184Y-80616762D01*
X32496900Y-80644340D01*
X32496900Y-81103060D01*
X32494184Y-81130638D01*
X32487929Y-81151257D01*
X32477776Y-81170253D01*
X32464108Y-81186908D01*
X32447453Y-81200576D01*
X32428457Y-81210729D01*
X32407838Y-81216984D01*
X32380260Y-81219700D01*
X31871540Y-81219700D01*
X31843962Y-81216984D01*
X31823343Y-81210729D01*
X31804347Y-81200576D01*
X31787692Y-81186908D01*
X31774024Y-81170253D01*
X31763871Y-81151257D01*
X31757616Y-81130638D01*
X31754900Y-81103060D01*
X31754900Y-80644340D01*
X31757616Y-80616762D01*
X31763871Y-80596143D01*
X31774024Y-80577147D01*
X31787692Y-80560492D01*
X31804347Y-80546824D01*
X31823343Y-80536671D01*
X31843962Y-80530416D01*
X31871540Y-80527700D01*
X32380260Y-80527700D01*
X32407838Y-80530416D01*
X32407838Y-80530416D01*
G37*
G36*
X29189638Y-80530416D02*
G01*
X29210257Y-80536671D01*
X29229253Y-80546824D01*
X29245908Y-80560492D01*
X29259576Y-80577147D01*
X29269729Y-80596143D01*
X29275984Y-80616762D01*
X29278700Y-80644340D01*
X29278700Y-81103060D01*
X29275984Y-81130638D01*
X29269729Y-81151257D01*
X29259576Y-81170253D01*
X29245908Y-81186908D01*
X29229253Y-81200576D01*
X29210257Y-81210729D01*
X29189638Y-81216984D01*
X29162060Y-81219700D01*
X28653340Y-81219700D01*
X28625762Y-81216984D01*
X28605143Y-81210729D01*
X28586147Y-81200576D01*
X28569492Y-81186908D01*
X28555824Y-81170253D01*
X28545671Y-81151257D01*
X28539416Y-81130638D01*
X28536700Y-81103060D01*
X28536700Y-80644340D01*
X28539416Y-80616762D01*
X28545671Y-80596143D01*
X28555824Y-80577147D01*
X28569492Y-80560492D01*
X28586147Y-80546824D01*
X28605143Y-80536671D01*
X28625762Y-80530416D01*
X28653340Y-80527700D01*
X29162060Y-80527700D01*
X29189638Y-80530416D01*
X29189638Y-80530416D01*
G37*
G36*
X56633700Y-80890800D02*
G01*
X54531700Y-80890800D01*
X54531700Y-79088800D01*
X56633700Y-79088800D01*
X56633700Y-80890800D01*
X56633700Y-80890800D01*
G37*
G36*
X47733700Y-80890800D02*
G01*
X45631700Y-80890800D01*
X45631700Y-79088800D01*
X47733700Y-79088800D01*
X47733700Y-80890800D01*
X47733700Y-80890800D01*
G37*
G36*
X25595538Y-79519216D02*
G01*
X25616157Y-79525471D01*
X25635153Y-79535624D01*
X25651808Y-79549292D01*
X25665476Y-79565947D01*
X25675629Y-79584943D01*
X25681884Y-79605562D01*
X25684600Y-79633140D01*
X25684600Y-80091860D01*
X25681884Y-80119438D01*
X25675629Y-80140057D01*
X25665476Y-80159053D01*
X25651808Y-80175708D01*
X25635153Y-80189376D01*
X25616157Y-80199529D01*
X25595538Y-80205784D01*
X25567960Y-80208500D01*
X25059240Y-80208500D01*
X25031662Y-80205784D01*
X25011043Y-80199529D01*
X24992047Y-80189376D01*
X24975392Y-80175708D01*
X24961724Y-80159053D01*
X24951571Y-80140057D01*
X24945316Y-80119438D01*
X24942600Y-80091860D01*
X24942600Y-79633140D01*
X24945316Y-79605562D01*
X24951571Y-79584943D01*
X24961724Y-79565947D01*
X24975392Y-79549292D01*
X24992047Y-79535624D01*
X25011043Y-79525471D01*
X25031662Y-79519216D01*
X25059240Y-79516500D01*
X25567960Y-79516500D01*
X25595538Y-79519216D01*
X25595538Y-79519216D01*
G37*
G36*
X32397738Y-79509116D02*
G01*
X32418357Y-79515371D01*
X32437353Y-79525524D01*
X32454008Y-79539192D01*
X32467676Y-79555847D01*
X32477829Y-79574843D01*
X32484084Y-79595462D01*
X32486800Y-79623040D01*
X32486800Y-80081760D01*
X32484084Y-80109338D01*
X32477829Y-80129957D01*
X32467676Y-80148953D01*
X32454008Y-80165608D01*
X32437353Y-80179276D01*
X32418357Y-80189429D01*
X32397738Y-80195684D01*
X32370160Y-80198400D01*
X31861440Y-80198400D01*
X31833862Y-80195684D01*
X31813243Y-80189429D01*
X31794247Y-80179276D01*
X31777592Y-80165608D01*
X31763924Y-80148953D01*
X31753771Y-80129957D01*
X31747516Y-80109338D01*
X31744800Y-80081760D01*
X31744800Y-79623040D01*
X31747516Y-79595462D01*
X31753771Y-79574843D01*
X31763924Y-79555847D01*
X31777592Y-79539192D01*
X31794247Y-79525524D01*
X31813243Y-79515371D01*
X31833862Y-79509116D01*
X31861440Y-79506400D01*
X32370160Y-79506400D01*
X32397738Y-79509116D01*
X32397738Y-79509116D01*
G37*
G36*
X29189638Y-79506516D02*
G01*
X29210257Y-79512771D01*
X29229253Y-79522924D01*
X29245908Y-79536592D01*
X29259576Y-79553247D01*
X29269729Y-79572243D01*
X29275984Y-79592862D01*
X29278700Y-79620440D01*
X29278700Y-80079160D01*
X29275984Y-80106738D01*
X29269729Y-80127357D01*
X29259576Y-80146353D01*
X29245908Y-80163008D01*
X29229253Y-80176676D01*
X29210257Y-80186829D01*
X29189638Y-80193084D01*
X29162060Y-80195800D01*
X28653340Y-80195800D01*
X28625762Y-80193084D01*
X28605143Y-80186829D01*
X28586147Y-80176676D01*
X28569492Y-80163008D01*
X28555824Y-80146353D01*
X28545671Y-80127357D01*
X28539416Y-80106738D01*
X28536700Y-80079160D01*
X28536700Y-79620440D01*
X28539416Y-79592862D01*
X28545671Y-79572243D01*
X28555824Y-79553247D01*
X28569492Y-79536592D01*
X28586147Y-79522924D01*
X28605143Y-79512771D01*
X28625762Y-79506516D01*
X28653340Y-79503800D01*
X29162060Y-79503800D01*
X29189638Y-79506516D01*
X29189638Y-79506516D01*
G37*
G36*
X35344138Y-79476116D02*
G01*
X35364757Y-79482371D01*
X35383753Y-79492524D01*
X35400408Y-79506192D01*
X35414076Y-79522847D01*
X35424229Y-79541843D01*
X35430484Y-79562462D01*
X35433200Y-79590040D01*
X35433200Y-80048760D01*
X35430484Y-80076338D01*
X35424229Y-80096957D01*
X35414076Y-80115953D01*
X35400408Y-80132608D01*
X35383753Y-80146276D01*
X35364757Y-80156429D01*
X35344138Y-80162684D01*
X35316560Y-80165400D01*
X34807840Y-80165400D01*
X34780262Y-80162684D01*
X34759643Y-80156429D01*
X34740647Y-80146276D01*
X34723992Y-80132608D01*
X34710324Y-80115953D01*
X34700171Y-80096957D01*
X34693916Y-80076338D01*
X34691200Y-80048760D01*
X34691200Y-79590040D01*
X34693916Y-79562462D01*
X34700171Y-79541843D01*
X34710324Y-79522847D01*
X34723992Y-79506192D01*
X34740647Y-79492524D01*
X34759643Y-79482371D01*
X34780262Y-79476116D01*
X34807840Y-79473400D01*
X35316560Y-79473400D01*
X35344138Y-79476116D01*
X35344138Y-79476116D01*
G37*
G36*
X43072042Y-78198618D02*
G01*
X43138227Y-78205137D01*
X43308066Y-78256657D01*
X43464591Y-78340322D01*
X43500329Y-78369652D01*
X43601786Y-78452914D01*
X43681317Y-78549824D01*
X43714378Y-78590109D01*
X43725115Y-78610196D01*
X43783540Y-78719500D01*
X43798043Y-78746634D01*
X43849563Y-78916473D01*
X43866959Y-79093100D01*
X43849563Y-79269727D01*
X43799590Y-79434466D01*
X43798042Y-79439568D01*
X43775163Y-79482371D01*
X43714378Y-79596091D01*
X43706605Y-79605562D01*
X43601786Y-79733286D01*
X43500329Y-79816548D01*
X43464591Y-79845878D01*
X43308066Y-79929543D01*
X43138227Y-79981063D01*
X43072043Y-79987581D01*
X43005860Y-79994100D01*
X42917340Y-79994100D01*
X42851157Y-79987581D01*
X42784973Y-79981063D01*
X42615134Y-79929543D01*
X42458609Y-79845878D01*
X42422871Y-79816548D01*
X42321414Y-79733286D01*
X42216595Y-79605562D01*
X42208822Y-79596091D01*
X42148037Y-79482371D01*
X42125158Y-79439568D01*
X42123610Y-79434466D01*
X42073637Y-79269727D01*
X42056241Y-79093100D01*
X42073637Y-78916473D01*
X42125157Y-78746634D01*
X42139661Y-78719500D01*
X42198085Y-78610196D01*
X42208822Y-78590109D01*
X42241883Y-78549824D01*
X42321414Y-78452914D01*
X42422871Y-78369652D01*
X42458609Y-78340322D01*
X42615134Y-78256657D01*
X42784973Y-78205137D01*
X42851158Y-78198618D01*
X42917340Y-78192100D01*
X43005860Y-78192100D01*
X43072042Y-78198618D01*
X43072042Y-78198618D01*
G37*
G36*
X39242540Y-78192100D02*
G01*
X39323127Y-78200037D01*
X39492966Y-78251557D01*
X39649491Y-78335222D01*
X39655705Y-78340322D01*
X39786686Y-78447814D01*
X39862113Y-78539724D01*
X39899278Y-78585009D01*
X39905779Y-78597171D01*
X39971166Y-78719500D01*
X39982943Y-78741534D01*
X40034463Y-78911373D01*
X40051859Y-79088000D01*
X40034463Y-79264627D01*
X39982943Y-79434466D01*
X39899278Y-79590991D01*
X39875110Y-79620440D01*
X39786686Y-79728186D01*
X39685229Y-79811448D01*
X39649491Y-79840778D01*
X39492966Y-79924443D01*
X39323127Y-79975963D01*
X39271345Y-79981063D01*
X39190760Y-79989000D01*
X39102240Y-79989000D01*
X39021655Y-79981063D01*
X38969873Y-79975963D01*
X38800034Y-79924443D01*
X38643509Y-79840778D01*
X38607771Y-79811448D01*
X38506314Y-79728186D01*
X38417890Y-79620440D01*
X38393722Y-79590991D01*
X38310057Y-79434466D01*
X38258537Y-79264627D01*
X38241141Y-79088000D01*
X38258537Y-78911373D01*
X38310057Y-78741534D01*
X38321835Y-78719500D01*
X38387221Y-78597171D01*
X38393722Y-78585009D01*
X38430887Y-78539724D01*
X38506314Y-78447814D01*
X38637295Y-78340322D01*
X38643509Y-78335222D01*
X38800034Y-78251557D01*
X38969873Y-78200037D01*
X39050460Y-78192100D01*
X39102240Y-78187000D01*
X39190760Y-78187000D01*
X39242540Y-78192100D01*
X39242540Y-78192100D01*
G37*
G36*
X25595538Y-78549216D02*
G01*
X25616157Y-78555471D01*
X25635153Y-78565624D01*
X25651808Y-78579292D01*
X25665476Y-78595947D01*
X25675629Y-78614943D01*
X25681884Y-78635562D01*
X25684600Y-78663140D01*
X25684600Y-79121860D01*
X25681884Y-79149438D01*
X25675629Y-79170057D01*
X25665476Y-79189053D01*
X25651808Y-79205708D01*
X25635153Y-79219376D01*
X25616157Y-79229529D01*
X25595538Y-79235784D01*
X25567960Y-79238500D01*
X25059240Y-79238500D01*
X25031662Y-79235784D01*
X25011043Y-79229529D01*
X24992047Y-79219376D01*
X24975392Y-79205708D01*
X24961724Y-79189053D01*
X24951571Y-79170057D01*
X24945316Y-79149438D01*
X24942600Y-79121860D01*
X24942600Y-78663140D01*
X24945316Y-78635562D01*
X24951571Y-78614943D01*
X24961724Y-78595947D01*
X24975392Y-78579292D01*
X24992047Y-78565624D01*
X25011043Y-78555471D01*
X25031662Y-78549216D01*
X25059240Y-78546500D01*
X25567960Y-78546500D01*
X25595538Y-78549216D01*
X25595538Y-78549216D01*
G37*
G36*
X32397738Y-78539116D02*
G01*
X32418357Y-78545371D01*
X32437353Y-78555524D01*
X32454008Y-78569192D01*
X32467676Y-78585847D01*
X32477829Y-78604843D01*
X32484084Y-78625462D01*
X32486800Y-78653040D01*
X32486800Y-79111760D01*
X32484084Y-79139338D01*
X32477829Y-79159957D01*
X32467676Y-79178953D01*
X32454008Y-79195608D01*
X32437353Y-79209276D01*
X32418357Y-79219429D01*
X32397738Y-79225684D01*
X32370160Y-79228400D01*
X31861440Y-79228400D01*
X31833862Y-79225684D01*
X31813243Y-79219429D01*
X31794247Y-79209276D01*
X31777592Y-79195608D01*
X31763924Y-79178953D01*
X31753771Y-79159957D01*
X31747516Y-79139338D01*
X31744800Y-79111760D01*
X31744800Y-78653040D01*
X31747516Y-78625462D01*
X31753771Y-78604843D01*
X31763924Y-78585847D01*
X31777592Y-78569192D01*
X31794247Y-78555524D01*
X31813243Y-78545371D01*
X31833862Y-78539116D01*
X31861440Y-78536400D01*
X32370160Y-78536400D01*
X32397738Y-78539116D01*
X32397738Y-78539116D01*
G37*
G36*
X29189638Y-78536516D02*
G01*
X29210257Y-78542771D01*
X29229253Y-78552924D01*
X29245908Y-78566592D01*
X29259576Y-78583247D01*
X29269729Y-78602243D01*
X29275984Y-78622862D01*
X29278700Y-78650440D01*
X29278700Y-79109160D01*
X29275984Y-79136738D01*
X29269729Y-79157357D01*
X29259576Y-79176353D01*
X29245908Y-79193008D01*
X29229253Y-79206676D01*
X29210257Y-79216829D01*
X29189638Y-79223084D01*
X29162060Y-79225800D01*
X28653340Y-79225800D01*
X28625762Y-79223084D01*
X28605143Y-79216829D01*
X28586147Y-79206676D01*
X28569492Y-79193008D01*
X28555824Y-79176353D01*
X28545671Y-79157357D01*
X28539416Y-79136738D01*
X28536700Y-79109160D01*
X28536700Y-78650440D01*
X28539416Y-78622862D01*
X28545671Y-78602243D01*
X28555824Y-78583247D01*
X28569492Y-78566592D01*
X28586147Y-78552924D01*
X28605143Y-78542771D01*
X28625762Y-78536516D01*
X28653340Y-78533800D01*
X29162060Y-78533800D01*
X29189638Y-78536516D01*
X29189638Y-78536516D01*
G37*
G36*
X35344138Y-78506116D02*
G01*
X35364757Y-78512371D01*
X35383753Y-78522524D01*
X35400408Y-78536192D01*
X35414076Y-78552847D01*
X35424229Y-78571843D01*
X35430484Y-78592462D01*
X35433200Y-78620040D01*
X35433200Y-79078760D01*
X35430484Y-79106338D01*
X35424229Y-79126957D01*
X35414076Y-79145953D01*
X35400408Y-79162608D01*
X35383753Y-79176276D01*
X35364757Y-79186429D01*
X35344138Y-79192684D01*
X35316560Y-79195400D01*
X34807840Y-79195400D01*
X34780262Y-79192684D01*
X34759643Y-79186429D01*
X34740647Y-79176276D01*
X34723992Y-79162608D01*
X34710324Y-79145953D01*
X34700171Y-79126957D01*
X34693916Y-79106338D01*
X34691200Y-79078760D01*
X34691200Y-78620040D01*
X34693916Y-78592462D01*
X34700171Y-78571843D01*
X34710324Y-78552847D01*
X34723992Y-78536192D01*
X34740647Y-78522524D01*
X34759643Y-78512371D01*
X34780262Y-78506116D01*
X34807840Y-78503400D01*
X35316560Y-78503400D01*
X35344138Y-78506116D01*
X35344138Y-78506116D01*
G37*
G36*
X59750442Y-77045518D02*
G01*
X59816627Y-77052037D01*
X59986466Y-77103557D01*
X60142991Y-77187222D01*
X60151335Y-77194070D01*
X60280186Y-77299814D01*
X60363058Y-77400795D01*
X60392778Y-77437009D01*
X60476443Y-77593534D01*
X60527963Y-77763373D01*
X60545359Y-77940000D01*
X60527963Y-78116627D01*
X60476443Y-78286466D01*
X60392778Y-78442991D01*
X60363448Y-78478729D01*
X60280186Y-78580186D01*
X60194580Y-78650440D01*
X60142991Y-78692778D01*
X59986466Y-78776443D01*
X59816627Y-78827963D01*
X59750443Y-78834481D01*
X59684260Y-78841000D01*
X59595740Y-78841000D01*
X59529557Y-78834481D01*
X59463373Y-78827963D01*
X59293534Y-78776443D01*
X59137009Y-78692778D01*
X59085420Y-78650440D01*
X58999814Y-78580186D01*
X58916552Y-78478729D01*
X58887222Y-78442991D01*
X58803557Y-78286466D01*
X58752037Y-78116627D01*
X58734641Y-77940000D01*
X58752037Y-77763373D01*
X58803557Y-77593534D01*
X58887222Y-77437009D01*
X58916942Y-77400795D01*
X58999814Y-77299814D01*
X59128665Y-77194070D01*
X59137009Y-77187222D01*
X59293534Y-77103557D01*
X59463373Y-77052037D01*
X59529558Y-77045518D01*
X59595740Y-77039000D01*
X59684260Y-77039000D01*
X59750442Y-77045518D01*
X59750442Y-77045518D01*
G37*
G36*
X62290442Y-77045518D02*
G01*
X62356627Y-77052037D01*
X62526466Y-77103557D01*
X62682991Y-77187222D01*
X62691335Y-77194070D01*
X62820186Y-77299814D01*
X62903058Y-77400795D01*
X62932778Y-77437009D01*
X63016443Y-77593534D01*
X63067963Y-77763373D01*
X63085359Y-77940000D01*
X63067963Y-78116627D01*
X63016443Y-78286466D01*
X62932778Y-78442991D01*
X62903448Y-78478729D01*
X62820186Y-78580186D01*
X62734580Y-78650440D01*
X62682991Y-78692778D01*
X62526466Y-78776443D01*
X62356627Y-78827963D01*
X62290443Y-78834481D01*
X62224260Y-78841000D01*
X62135740Y-78841000D01*
X62069557Y-78834481D01*
X62003373Y-78827963D01*
X61833534Y-78776443D01*
X61677009Y-78692778D01*
X61625420Y-78650440D01*
X61539814Y-78580186D01*
X61456552Y-78478729D01*
X61427222Y-78442991D01*
X61343557Y-78286466D01*
X61292037Y-78116627D01*
X61274641Y-77940000D01*
X61292037Y-77763373D01*
X61343557Y-77593534D01*
X61427222Y-77437009D01*
X61456942Y-77400795D01*
X61539814Y-77299814D01*
X61668665Y-77194070D01*
X61677009Y-77187222D01*
X61833534Y-77103557D01*
X62003373Y-77052037D01*
X62069558Y-77045518D01*
X62135740Y-77039000D01*
X62224260Y-77039000D01*
X62290442Y-77045518D01*
X62290442Y-77045518D01*
G37*
G36*
X21650442Y-77045518D02*
G01*
X21716627Y-77052037D01*
X21886466Y-77103557D01*
X22042991Y-77187222D01*
X22051335Y-77194070D01*
X22180186Y-77299814D01*
X22263058Y-77400795D01*
X22292778Y-77437009D01*
X22376443Y-77593534D01*
X22427963Y-77763373D01*
X22445359Y-77940000D01*
X22427963Y-78116627D01*
X22376443Y-78286466D01*
X22292778Y-78442991D01*
X22263448Y-78478729D01*
X22180186Y-78580186D01*
X22094580Y-78650440D01*
X22042991Y-78692778D01*
X21886466Y-78776443D01*
X21716627Y-78827963D01*
X21650443Y-78834481D01*
X21584260Y-78841000D01*
X21495740Y-78841000D01*
X21429557Y-78834481D01*
X21363373Y-78827963D01*
X21193534Y-78776443D01*
X21037009Y-78692778D01*
X20985420Y-78650440D01*
X20899814Y-78580186D01*
X20816552Y-78478729D01*
X20787222Y-78442991D01*
X20703557Y-78286466D01*
X20652037Y-78116627D01*
X20634641Y-77940000D01*
X20652037Y-77763373D01*
X20703557Y-77593534D01*
X20787222Y-77437009D01*
X20816942Y-77400795D01*
X20899814Y-77299814D01*
X21028665Y-77194070D01*
X21037009Y-77187222D01*
X21193534Y-77103557D01*
X21363373Y-77052037D01*
X21429558Y-77045518D01*
X21495740Y-77039000D01*
X21584260Y-77039000D01*
X21650442Y-77045518D01*
X21650442Y-77045518D01*
G37*
G36*
X19110442Y-77045518D02*
G01*
X19176627Y-77052037D01*
X19346466Y-77103557D01*
X19502991Y-77187222D01*
X19511335Y-77194070D01*
X19640186Y-77299814D01*
X19723058Y-77400795D01*
X19752778Y-77437009D01*
X19836443Y-77593534D01*
X19887963Y-77763373D01*
X19905359Y-77940000D01*
X19887963Y-78116627D01*
X19836443Y-78286466D01*
X19752778Y-78442991D01*
X19723448Y-78478729D01*
X19640186Y-78580186D01*
X19554580Y-78650440D01*
X19502991Y-78692778D01*
X19346466Y-78776443D01*
X19176627Y-78827963D01*
X19110443Y-78834481D01*
X19044260Y-78841000D01*
X18955740Y-78841000D01*
X18889557Y-78834481D01*
X18823373Y-78827963D01*
X18653534Y-78776443D01*
X18497009Y-78692778D01*
X18445420Y-78650440D01*
X18359814Y-78580186D01*
X18276552Y-78478729D01*
X18247222Y-78442991D01*
X18163557Y-78286466D01*
X18112037Y-78116627D01*
X18094641Y-77940000D01*
X18112037Y-77763373D01*
X18163557Y-77593534D01*
X18247222Y-77437009D01*
X18276942Y-77400795D01*
X18359814Y-77299814D01*
X18488665Y-77194070D01*
X18497009Y-77187222D01*
X18653534Y-77103557D01*
X18823373Y-77052037D01*
X18889558Y-77045518D01*
X18955740Y-77039000D01*
X19044260Y-77039000D01*
X19110442Y-77045518D01*
X19110442Y-77045518D01*
G37*
G36*
X49093421Y-76609974D02*
G01*
X49193695Y-76651509D01*
X49193696Y-76651510D01*
X49283942Y-76711810D01*
X49360690Y-76788558D01*
X49360691Y-76788560D01*
X49420991Y-76878805D01*
X49462526Y-76979079D01*
X49483700Y-77085530D01*
X49483700Y-77194070D01*
X49462526Y-77300521D01*
X49420991Y-77400795D01*
X49420990Y-77400796D01*
X49360690Y-77491042D01*
X49283942Y-77567790D01*
X49245416Y-77593532D01*
X49193695Y-77628091D01*
X49093421Y-77669626D01*
X48986970Y-77690800D01*
X48878430Y-77690800D01*
X48771979Y-77669626D01*
X48671705Y-77628091D01*
X48619984Y-77593532D01*
X48581458Y-77567790D01*
X48504710Y-77491042D01*
X48444410Y-77400796D01*
X48444409Y-77400795D01*
X48402874Y-77300521D01*
X48381700Y-77194070D01*
X48381700Y-77085530D01*
X48402874Y-76979079D01*
X48444409Y-76878805D01*
X48504709Y-76788560D01*
X48504710Y-76788558D01*
X48581458Y-76711810D01*
X48671704Y-76651510D01*
X48671705Y-76651509D01*
X48771979Y-76609974D01*
X48878430Y-76588800D01*
X48986970Y-76588800D01*
X49093421Y-76609974D01*
X49093421Y-76609974D01*
G37*
G36*
X53493421Y-76609974D02*
G01*
X53593695Y-76651509D01*
X53593696Y-76651510D01*
X53683942Y-76711810D01*
X53760690Y-76788558D01*
X53760691Y-76788560D01*
X53820991Y-76878805D01*
X53862526Y-76979079D01*
X53883700Y-77085530D01*
X53883700Y-77194070D01*
X53862526Y-77300521D01*
X53820991Y-77400795D01*
X53820990Y-77400796D01*
X53760690Y-77491042D01*
X53683942Y-77567790D01*
X53645416Y-77593532D01*
X53593695Y-77628091D01*
X53493421Y-77669626D01*
X53386970Y-77690800D01*
X53278430Y-77690800D01*
X53171979Y-77669626D01*
X53071705Y-77628091D01*
X53019984Y-77593532D01*
X52981458Y-77567790D01*
X52904710Y-77491042D01*
X52844410Y-77400796D01*
X52844409Y-77400795D01*
X52802874Y-77300521D01*
X52781700Y-77194070D01*
X52781700Y-77085530D01*
X52802874Y-76979079D01*
X52844409Y-76878805D01*
X52904709Y-76788560D01*
X52904710Y-76788558D01*
X52981458Y-76711810D01*
X53071704Y-76651510D01*
X53071705Y-76651509D01*
X53171979Y-76609974D01*
X53278430Y-76588800D01*
X53386970Y-76588800D01*
X53493421Y-76609974D01*
X53493421Y-76609974D01*
G37*
G36*
X34279500Y-77584200D02*
G01*
X32377500Y-77584200D01*
X32377500Y-76382200D01*
X34279500Y-76382200D01*
X34279500Y-77584200D01*
X34279500Y-77584200D01*
G37*
G36*
X28079500Y-77584200D02*
G01*
X26177500Y-77584200D01*
X26177500Y-76382200D01*
X28079500Y-76382200D01*
X28079500Y-77584200D01*
X28079500Y-77584200D01*
G37*
G36*
X43072043Y-75658619D02*
G01*
X43138227Y-75665137D01*
X43308066Y-75716657D01*
X43464591Y-75800322D01*
X43500329Y-75829652D01*
X43601786Y-75912914D01*
X43685048Y-76014371D01*
X43714378Y-76050109D01*
X43798043Y-76206634D01*
X43849563Y-76376473D01*
X43866959Y-76553100D01*
X43849563Y-76729727D01*
X43798043Y-76899566D01*
X43714378Y-77056091D01*
X43690218Y-77085530D01*
X43601786Y-77193286D01*
X43500329Y-77276548D01*
X43464591Y-77305878D01*
X43308066Y-77389543D01*
X43138227Y-77441063D01*
X43072042Y-77447582D01*
X43005860Y-77454100D01*
X42917340Y-77454100D01*
X42851158Y-77447582D01*
X42784973Y-77441063D01*
X42615134Y-77389543D01*
X42458609Y-77305878D01*
X42422871Y-77276548D01*
X42321414Y-77193286D01*
X42232982Y-77085530D01*
X42208822Y-77056091D01*
X42125157Y-76899566D01*
X42073637Y-76729727D01*
X42056241Y-76553100D01*
X42073637Y-76376473D01*
X42125157Y-76206634D01*
X42208822Y-76050109D01*
X42238152Y-76014371D01*
X42321414Y-75912914D01*
X42422871Y-75829652D01*
X42458609Y-75800322D01*
X42615134Y-75716657D01*
X42784973Y-75665137D01*
X42851157Y-75658619D01*
X42917340Y-75652100D01*
X43005860Y-75652100D01*
X43072043Y-75658619D01*
X43072043Y-75658619D01*
G37*
G36*
X39242540Y-75652100D02*
G01*
X39323127Y-75660037D01*
X39492966Y-75711557D01*
X39649491Y-75795222D01*
X39655705Y-75800322D01*
X39786686Y-75907814D01*
X39869948Y-76009271D01*
X39899278Y-76045009D01*
X39982943Y-76201534D01*
X40034463Y-76371373D01*
X40051859Y-76548000D01*
X40034463Y-76724627D01*
X39982943Y-76894466D01*
X39899278Y-77050991D01*
X39870932Y-77085530D01*
X39786686Y-77188186D01*
X39685229Y-77271448D01*
X39649491Y-77300778D01*
X39492966Y-77384443D01*
X39323127Y-77435963D01*
X39271345Y-77441063D01*
X39190760Y-77449000D01*
X39102240Y-77449000D01*
X39021655Y-77441063D01*
X38969873Y-77435963D01*
X38800034Y-77384443D01*
X38643509Y-77300778D01*
X38607771Y-77271448D01*
X38506314Y-77188186D01*
X38422068Y-77085530D01*
X38393722Y-77050991D01*
X38310057Y-76894466D01*
X38258537Y-76724627D01*
X38241141Y-76548000D01*
X38258537Y-76371373D01*
X38310057Y-76201534D01*
X38393722Y-76045009D01*
X38423052Y-76009271D01*
X38506314Y-75907814D01*
X38637295Y-75800322D01*
X38643509Y-75795222D01*
X38800034Y-75711557D01*
X38969873Y-75660037D01*
X39050460Y-75652100D01*
X39102240Y-75647000D01*
X39190760Y-75647000D01*
X39242540Y-75652100D01*
X39242540Y-75652100D01*
G37*
G36*
X59750443Y-74505519D02*
G01*
X59816627Y-74512037D01*
X59986466Y-74563557D01*
X60142991Y-74647222D01*
X60178729Y-74676552D01*
X60280186Y-74759814D01*
X60349637Y-74844442D01*
X60392778Y-74897009D01*
X60476443Y-75053534D01*
X60527963Y-75223373D01*
X60545359Y-75400000D01*
X60527963Y-75576627D01*
X60476443Y-75746466D01*
X60392778Y-75902991D01*
X60363448Y-75938729D01*
X60280186Y-76040186D01*
X60178729Y-76123448D01*
X60142991Y-76152778D01*
X59986466Y-76236443D01*
X59816627Y-76287963D01*
X59750442Y-76294482D01*
X59684260Y-76301000D01*
X59595740Y-76301000D01*
X59529558Y-76294482D01*
X59463373Y-76287963D01*
X59293534Y-76236443D01*
X59137009Y-76152778D01*
X59101271Y-76123448D01*
X58999814Y-76040186D01*
X58916552Y-75938729D01*
X58887222Y-75902991D01*
X58803557Y-75746466D01*
X58752037Y-75576627D01*
X58734641Y-75400000D01*
X58752037Y-75223373D01*
X58803557Y-75053534D01*
X58887222Y-74897009D01*
X58930363Y-74844442D01*
X58999814Y-74759814D01*
X59101271Y-74676552D01*
X59137009Y-74647222D01*
X59293534Y-74563557D01*
X59463373Y-74512037D01*
X59529557Y-74505519D01*
X59595740Y-74499000D01*
X59684260Y-74499000D01*
X59750443Y-74505519D01*
X59750443Y-74505519D01*
G37*
G36*
X62290443Y-74505519D02*
G01*
X62356627Y-74512037D01*
X62526466Y-74563557D01*
X62682991Y-74647222D01*
X62718729Y-74676552D01*
X62820186Y-74759814D01*
X62889637Y-74844442D01*
X62932778Y-74897009D01*
X63016443Y-75053534D01*
X63067963Y-75223373D01*
X63085359Y-75400000D01*
X63067963Y-75576627D01*
X63016443Y-75746466D01*
X62932778Y-75902991D01*
X62903448Y-75938729D01*
X62820186Y-76040186D01*
X62718729Y-76123448D01*
X62682991Y-76152778D01*
X62526466Y-76236443D01*
X62356627Y-76287963D01*
X62290442Y-76294482D01*
X62224260Y-76301000D01*
X62135740Y-76301000D01*
X62069558Y-76294482D01*
X62003373Y-76287963D01*
X61833534Y-76236443D01*
X61677009Y-76152778D01*
X61641271Y-76123448D01*
X61539814Y-76040186D01*
X61456552Y-75938729D01*
X61427222Y-75902991D01*
X61343557Y-75746466D01*
X61292037Y-75576627D01*
X61274641Y-75400000D01*
X61292037Y-75223373D01*
X61343557Y-75053534D01*
X61427222Y-74897009D01*
X61470363Y-74844442D01*
X61539814Y-74759814D01*
X61641271Y-74676552D01*
X61677009Y-74647222D01*
X61833534Y-74563557D01*
X62003373Y-74512037D01*
X62069557Y-74505519D01*
X62135740Y-74499000D01*
X62224260Y-74499000D01*
X62290443Y-74505519D01*
X62290443Y-74505519D01*
G37*
G36*
X21650443Y-74505519D02*
G01*
X21716627Y-74512037D01*
X21886466Y-74563557D01*
X22042991Y-74647222D01*
X22078729Y-74676552D01*
X22180186Y-74759814D01*
X22249637Y-74844442D01*
X22292778Y-74897009D01*
X22376443Y-75053534D01*
X22427963Y-75223373D01*
X22445359Y-75400000D01*
X22427963Y-75576627D01*
X22376443Y-75746466D01*
X22292778Y-75902991D01*
X22263448Y-75938729D01*
X22180186Y-76040186D01*
X22078729Y-76123448D01*
X22042991Y-76152778D01*
X21886466Y-76236443D01*
X21716627Y-76287963D01*
X21650442Y-76294482D01*
X21584260Y-76301000D01*
X21495740Y-76301000D01*
X21429558Y-76294482D01*
X21363373Y-76287963D01*
X21193534Y-76236443D01*
X21037009Y-76152778D01*
X21001271Y-76123448D01*
X20899814Y-76040186D01*
X20816552Y-75938729D01*
X20787222Y-75902991D01*
X20703557Y-75746466D01*
X20652037Y-75576627D01*
X20634641Y-75400000D01*
X20652037Y-75223373D01*
X20703557Y-75053534D01*
X20787222Y-74897009D01*
X20830363Y-74844442D01*
X20899814Y-74759814D01*
X21001271Y-74676552D01*
X21037009Y-74647222D01*
X21193534Y-74563557D01*
X21363373Y-74512037D01*
X21429557Y-74505519D01*
X21495740Y-74499000D01*
X21584260Y-74499000D01*
X21650443Y-74505519D01*
X21650443Y-74505519D01*
G37*
G36*
X19110443Y-74505519D02*
G01*
X19176627Y-74512037D01*
X19346466Y-74563557D01*
X19502991Y-74647222D01*
X19538729Y-74676552D01*
X19640186Y-74759814D01*
X19709637Y-74844442D01*
X19752778Y-74897009D01*
X19836443Y-75053534D01*
X19887963Y-75223373D01*
X19905359Y-75400000D01*
X19887963Y-75576627D01*
X19836443Y-75746466D01*
X19752778Y-75902991D01*
X19723448Y-75938729D01*
X19640186Y-76040186D01*
X19538729Y-76123448D01*
X19502991Y-76152778D01*
X19346466Y-76236443D01*
X19176627Y-76287963D01*
X19110442Y-76294482D01*
X19044260Y-76301000D01*
X18955740Y-76301000D01*
X18889558Y-76294482D01*
X18823373Y-76287963D01*
X18653534Y-76236443D01*
X18497009Y-76152778D01*
X18461271Y-76123448D01*
X18359814Y-76040186D01*
X18276552Y-75938729D01*
X18247222Y-75902991D01*
X18163557Y-75746466D01*
X18112037Y-75576627D01*
X18094641Y-75400000D01*
X18112037Y-75223373D01*
X18163557Y-75053534D01*
X18247222Y-74897009D01*
X18290363Y-74844442D01*
X18359814Y-74759814D01*
X18461271Y-74676552D01*
X18497009Y-74647222D01*
X18653534Y-74563557D01*
X18823373Y-74512037D01*
X18889557Y-74505519D01*
X18955740Y-74499000D01*
X19044260Y-74499000D01*
X19110443Y-74505519D01*
X19110443Y-74505519D01*
G37*
G36*
X53033700Y-75490800D02*
G01*
X49231700Y-75490800D01*
X49231700Y-73388800D01*
X53033700Y-73388800D01*
X53033700Y-75490800D01*
X53033700Y-75490800D01*
G37*
G36*
X47733700Y-75440800D02*
G01*
X45631700Y-75440800D01*
X45631700Y-73638800D01*
X47733700Y-73638800D01*
X47733700Y-75440800D01*
X47733700Y-75440800D01*
G37*
G36*
X56633700Y-75440800D02*
G01*
X54531700Y-75440800D01*
X54531700Y-73638800D01*
X56633700Y-73638800D01*
X56633700Y-75440800D01*
X56633700Y-75440800D01*
G37*
G36*
X43862600Y-74914100D02*
G01*
X42060600Y-74914100D01*
X42060600Y-73112100D01*
X43862600Y-73112100D01*
X43862600Y-74914100D01*
X43862600Y-74914100D01*
G37*
G36*
X39242540Y-73112100D02*
G01*
X39323127Y-73120037D01*
X39492966Y-73171557D01*
X39649491Y-73255222D01*
X39685229Y-73284552D01*
X39786686Y-73367814D01*
X39869948Y-73469271D01*
X39899278Y-73505009D01*
X39982943Y-73661534D01*
X40034463Y-73831373D01*
X40051859Y-74008000D01*
X40034463Y-74184627D01*
X39982943Y-74354466D01*
X39899278Y-74510991D01*
X39869948Y-74546729D01*
X39786686Y-74648186D01*
X39685229Y-74731448D01*
X39649491Y-74760778D01*
X39492966Y-74844443D01*
X39323127Y-74895963D01*
X39256943Y-74902481D01*
X39190760Y-74909000D01*
X39102240Y-74909000D01*
X39036057Y-74902481D01*
X38969873Y-74895963D01*
X38800034Y-74844443D01*
X38643509Y-74760778D01*
X38607771Y-74731448D01*
X38506314Y-74648186D01*
X38423052Y-74546729D01*
X38393722Y-74510991D01*
X38310057Y-74354466D01*
X38258537Y-74184627D01*
X38241141Y-74008000D01*
X38258537Y-73831373D01*
X38310057Y-73661534D01*
X38393722Y-73505009D01*
X38423052Y-73469271D01*
X38506314Y-73367814D01*
X38607771Y-73284552D01*
X38643509Y-73255222D01*
X38800034Y-73171557D01*
X38969873Y-73120037D01*
X39050460Y-73112100D01*
X39102240Y-73107000D01*
X39190760Y-73107000D01*
X39242540Y-73112100D01*
X39242540Y-73112100D01*
G37*
G36*
X34279500Y-73884200D02*
G01*
X32377500Y-73884200D01*
X32377500Y-72682200D01*
X34279500Y-72682200D01*
X34279500Y-73884200D01*
X34279500Y-73884200D01*
G37*
G36*
X28079500Y-73884200D02*
G01*
X26177500Y-73884200D01*
X26177500Y-72682200D01*
X28079500Y-72682200D01*
X28079500Y-73884200D01*
X28079500Y-73884200D01*
G37*
G36*
X59750443Y-71965519D02*
G01*
X59816627Y-71972037D01*
X59986466Y-72023557D01*
X60142991Y-72107222D01*
X60178729Y-72136552D01*
X60280186Y-72219814D01*
X60363448Y-72321271D01*
X60392778Y-72357009D01*
X60476443Y-72513534D01*
X60527963Y-72683373D01*
X60545359Y-72860000D01*
X60527963Y-73036627D01*
X60476443Y-73206466D01*
X60392778Y-73362991D01*
X60371597Y-73388800D01*
X60280186Y-73500186D01*
X60178729Y-73583448D01*
X60142991Y-73612778D01*
X59986466Y-73696443D01*
X59816627Y-73747963D01*
X59750442Y-73754482D01*
X59684260Y-73761000D01*
X59595740Y-73761000D01*
X59529558Y-73754482D01*
X59463373Y-73747963D01*
X59293534Y-73696443D01*
X59137009Y-73612778D01*
X59101271Y-73583448D01*
X58999814Y-73500186D01*
X58908403Y-73388800D01*
X58887222Y-73362991D01*
X58803557Y-73206466D01*
X58752037Y-73036627D01*
X58734641Y-72860000D01*
X58752037Y-72683373D01*
X58803557Y-72513534D01*
X58887222Y-72357009D01*
X58916552Y-72321271D01*
X58999814Y-72219814D01*
X59101271Y-72136552D01*
X59137009Y-72107222D01*
X59293534Y-72023557D01*
X59463373Y-71972037D01*
X59529557Y-71965519D01*
X59595740Y-71959000D01*
X59684260Y-71959000D01*
X59750443Y-71965519D01*
X59750443Y-71965519D01*
G37*
G36*
X19110443Y-71965519D02*
G01*
X19176627Y-71972037D01*
X19346466Y-72023557D01*
X19502991Y-72107222D01*
X19538729Y-72136552D01*
X19640186Y-72219814D01*
X19723448Y-72321271D01*
X19752778Y-72357009D01*
X19836443Y-72513534D01*
X19887963Y-72683373D01*
X19905359Y-72860000D01*
X19887963Y-73036627D01*
X19836443Y-73206466D01*
X19752778Y-73362991D01*
X19731597Y-73388800D01*
X19640186Y-73500186D01*
X19538729Y-73583448D01*
X19502991Y-73612778D01*
X19346466Y-73696443D01*
X19176627Y-73747963D01*
X19110442Y-73754482D01*
X19044260Y-73761000D01*
X18955740Y-73761000D01*
X18889558Y-73754482D01*
X18823373Y-73747963D01*
X18653534Y-73696443D01*
X18497009Y-73612778D01*
X18461271Y-73583448D01*
X18359814Y-73500186D01*
X18268403Y-73388800D01*
X18247222Y-73362991D01*
X18163557Y-73206466D01*
X18112037Y-73036627D01*
X18094641Y-72860000D01*
X18112037Y-72683373D01*
X18163557Y-72513534D01*
X18247222Y-72357009D01*
X18276552Y-72321271D01*
X18359814Y-72219814D01*
X18461271Y-72136552D01*
X18497009Y-72107222D01*
X18653534Y-72023557D01*
X18823373Y-71972037D01*
X18889557Y-71965519D01*
X18955740Y-71959000D01*
X19044260Y-71959000D01*
X19110443Y-71965519D01*
X19110443Y-71965519D01*
G37*
G36*
X62290443Y-71965519D02*
G01*
X62356627Y-71972037D01*
X62526466Y-72023557D01*
X62682991Y-72107222D01*
X62718729Y-72136552D01*
X62820186Y-72219814D01*
X62903448Y-72321271D01*
X62932778Y-72357009D01*
X63016443Y-72513534D01*
X63067963Y-72683373D01*
X63085359Y-72860000D01*
X63067963Y-73036627D01*
X63016443Y-73206466D01*
X62932778Y-73362991D01*
X62911597Y-73388800D01*
X62820186Y-73500186D01*
X62718729Y-73583448D01*
X62682991Y-73612778D01*
X62526466Y-73696443D01*
X62356627Y-73747963D01*
X62290442Y-73754482D01*
X62224260Y-73761000D01*
X62135740Y-73761000D01*
X62069558Y-73754482D01*
X62003373Y-73747963D01*
X61833534Y-73696443D01*
X61677009Y-73612778D01*
X61641271Y-73583448D01*
X61539814Y-73500186D01*
X61448403Y-73388800D01*
X61427222Y-73362991D01*
X61343557Y-73206466D01*
X61292037Y-73036627D01*
X61274641Y-72860000D01*
X61292037Y-72683373D01*
X61343557Y-72513534D01*
X61427222Y-72357009D01*
X61456552Y-72321271D01*
X61539814Y-72219814D01*
X61641271Y-72136552D01*
X61677009Y-72107222D01*
X61833534Y-72023557D01*
X62003373Y-71972037D01*
X62069557Y-71965519D01*
X62135740Y-71959000D01*
X62224260Y-71959000D01*
X62290443Y-71965519D01*
X62290443Y-71965519D01*
G37*
G36*
X21650443Y-71965519D02*
G01*
X21716627Y-71972037D01*
X21886466Y-72023557D01*
X22042991Y-72107222D01*
X22078729Y-72136552D01*
X22180186Y-72219814D01*
X22263448Y-72321271D01*
X22292778Y-72357009D01*
X22376443Y-72513534D01*
X22427963Y-72683373D01*
X22445359Y-72860000D01*
X22427963Y-73036627D01*
X22376443Y-73206466D01*
X22292778Y-73362991D01*
X22271597Y-73388800D01*
X22180186Y-73500186D01*
X22078729Y-73583448D01*
X22042991Y-73612778D01*
X21886466Y-73696443D01*
X21716627Y-73747963D01*
X21650442Y-73754482D01*
X21584260Y-73761000D01*
X21495740Y-73761000D01*
X21429558Y-73754482D01*
X21363373Y-73747963D01*
X21193534Y-73696443D01*
X21037009Y-73612778D01*
X21001271Y-73583448D01*
X20899814Y-73500186D01*
X20808403Y-73388800D01*
X20787222Y-73362991D01*
X20703557Y-73206466D01*
X20652037Y-73036627D01*
X20634641Y-72860000D01*
X20652037Y-72683373D01*
X20703557Y-72513534D01*
X20787222Y-72357009D01*
X20816552Y-72321271D01*
X20899814Y-72219814D01*
X21001271Y-72136552D01*
X21037009Y-72107222D01*
X21193534Y-72023557D01*
X21363373Y-71972037D01*
X21429557Y-71965519D01*
X21495740Y-71959000D01*
X21584260Y-71959000D01*
X21650443Y-71965519D01*
X21650443Y-71965519D01*
G37*
G36*
X40047500Y-72369000D02*
G01*
X38245500Y-72369000D01*
X38245500Y-70567000D01*
X40047500Y-70567000D01*
X40047500Y-72369000D01*
X40047500Y-72369000D01*
G37*
G36*
X62290442Y-69425518D02*
G01*
X62356627Y-69432037D01*
X62526466Y-69483557D01*
X62682991Y-69567222D01*
X62709420Y-69588912D01*
X62820186Y-69679814D01*
X62901622Y-69779045D01*
X62932778Y-69817009D01*
X63016443Y-69973534D01*
X63067963Y-70143373D01*
X63085359Y-70320000D01*
X63067963Y-70496627D01*
X63016443Y-70666466D01*
X62932778Y-70822991D01*
X62903448Y-70858729D01*
X62820186Y-70960186D01*
X62718729Y-71043448D01*
X62682991Y-71072778D01*
X62526466Y-71156443D01*
X62356627Y-71207963D01*
X62290443Y-71214481D01*
X62224260Y-71221000D01*
X62135740Y-71221000D01*
X62069557Y-71214481D01*
X62003373Y-71207963D01*
X61833534Y-71156443D01*
X61677009Y-71072778D01*
X61641271Y-71043448D01*
X61539814Y-70960186D01*
X61456552Y-70858729D01*
X61427222Y-70822991D01*
X61343557Y-70666466D01*
X61292037Y-70496627D01*
X61274641Y-70320000D01*
X61292037Y-70143373D01*
X61343557Y-69973534D01*
X61427222Y-69817009D01*
X61458378Y-69779045D01*
X61539814Y-69679814D01*
X61650580Y-69588912D01*
X61677009Y-69567222D01*
X61833534Y-69483557D01*
X62003373Y-69432037D01*
X62069558Y-69425518D01*
X62135740Y-69419000D01*
X62224260Y-69419000D01*
X62290442Y-69425518D01*
X62290442Y-69425518D01*
G37*
G36*
X59750442Y-69425518D02*
G01*
X59816627Y-69432037D01*
X59986466Y-69483557D01*
X60142991Y-69567222D01*
X60169420Y-69588912D01*
X60280186Y-69679814D01*
X60361622Y-69779045D01*
X60392778Y-69817009D01*
X60476443Y-69973534D01*
X60527963Y-70143373D01*
X60545359Y-70320000D01*
X60527963Y-70496627D01*
X60476443Y-70666466D01*
X60392778Y-70822991D01*
X60363448Y-70858729D01*
X60280186Y-70960186D01*
X60178729Y-71043448D01*
X60142991Y-71072778D01*
X59986466Y-71156443D01*
X59816627Y-71207963D01*
X59750443Y-71214481D01*
X59684260Y-71221000D01*
X59595740Y-71221000D01*
X59529557Y-71214481D01*
X59463373Y-71207963D01*
X59293534Y-71156443D01*
X59137009Y-71072778D01*
X59101271Y-71043448D01*
X58999814Y-70960186D01*
X58916552Y-70858729D01*
X58887222Y-70822991D01*
X58803557Y-70666466D01*
X58752037Y-70496627D01*
X58734641Y-70320000D01*
X58752037Y-70143373D01*
X58803557Y-69973534D01*
X58887222Y-69817009D01*
X58918378Y-69779045D01*
X58999814Y-69679814D01*
X59110580Y-69588912D01*
X59137009Y-69567222D01*
X59293534Y-69483557D01*
X59463373Y-69432037D01*
X59529558Y-69425518D01*
X59595740Y-69419000D01*
X59684260Y-69419000D01*
X59750442Y-69425518D01*
X59750442Y-69425518D01*
G37*
G36*
X21650442Y-69425518D02*
G01*
X21716627Y-69432037D01*
X21886466Y-69483557D01*
X22042991Y-69567222D01*
X22069420Y-69588912D01*
X22180186Y-69679814D01*
X22261622Y-69779045D01*
X22292778Y-69817009D01*
X22376443Y-69973534D01*
X22427963Y-70143373D01*
X22445359Y-70320000D01*
X22427963Y-70496627D01*
X22376443Y-70666466D01*
X22292778Y-70822991D01*
X22263448Y-70858729D01*
X22180186Y-70960186D01*
X22078729Y-71043448D01*
X22042991Y-71072778D01*
X21886466Y-71156443D01*
X21716627Y-71207963D01*
X21650443Y-71214481D01*
X21584260Y-71221000D01*
X21495740Y-71221000D01*
X21429557Y-71214481D01*
X21363373Y-71207963D01*
X21193534Y-71156443D01*
X21037009Y-71072778D01*
X21001271Y-71043448D01*
X20899814Y-70960186D01*
X20816552Y-70858729D01*
X20787222Y-70822991D01*
X20703557Y-70666466D01*
X20652037Y-70496627D01*
X20634641Y-70320000D01*
X20652037Y-70143373D01*
X20703557Y-69973534D01*
X20787222Y-69817009D01*
X20818378Y-69779045D01*
X20899814Y-69679814D01*
X21010580Y-69588912D01*
X21037009Y-69567222D01*
X21193534Y-69483557D01*
X21363373Y-69432037D01*
X21429558Y-69425518D01*
X21495740Y-69419000D01*
X21584260Y-69419000D01*
X21650442Y-69425518D01*
X21650442Y-69425518D01*
G37*
G36*
X19110442Y-69425518D02*
G01*
X19176627Y-69432037D01*
X19346466Y-69483557D01*
X19502991Y-69567222D01*
X19529420Y-69588912D01*
X19640186Y-69679814D01*
X19721622Y-69779045D01*
X19752778Y-69817009D01*
X19836443Y-69973534D01*
X19887963Y-70143373D01*
X19905359Y-70320000D01*
X19887963Y-70496627D01*
X19836443Y-70666466D01*
X19752778Y-70822991D01*
X19723448Y-70858729D01*
X19640186Y-70960186D01*
X19538729Y-71043448D01*
X19502991Y-71072778D01*
X19346466Y-71156443D01*
X19176627Y-71207963D01*
X19110443Y-71214481D01*
X19044260Y-71221000D01*
X18955740Y-71221000D01*
X18889557Y-71214481D01*
X18823373Y-71207963D01*
X18653534Y-71156443D01*
X18497009Y-71072778D01*
X18461271Y-71043448D01*
X18359814Y-70960186D01*
X18276552Y-70858729D01*
X18247222Y-70822991D01*
X18163557Y-70666466D01*
X18112037Y-70496627D01*
X18094641Y-70320000D01*
X18112037Y-70143373D01*
X18163557Y-69973534D01*
X18247222Y-69817009D01*
X18278378Y-69779045D01*
X18359814Y-69679814D01*
X18470580Y-69588912D01*
X18497009Y-69567222D01*
X18653534Y-69483557D01*
X18823373Y-69432037D01*
X18889558Y-69425518D01*
X18955740Y-69419000D01*
X19044260Y-69419000D01*
X19110442Y-69425518D01*
X19110442Y-69425518D01*
G37*
G36*
X49952500Y-70055600D02*
G01*
X48350500Y-70055600D01*
X48350500Y-67953600D01*
X49952500Y-67953600D01*
X49952500Y-70055600D01*
X49952500Y-70055600D01*
G37*
G36*
X52252500Y-70055600D02*
G01*
X50650500Y-70055600D01*
X50650500Y-67953600D01*
X52252500Y-67953600D01*
X52252500Y-70055600D01*
X52252500Y-70055600D01*
G37*
G36*
X47652500Y-70055600D02*
G01*
X46050500Y-70055600D01*
X46050500Y-67953600D01*
X47652500Y-67953600D01*
X47652500Y-70055600D01*
X47652500Y-70055600D01*
G37*
G36*
X54725598Y-68195147D02*
G01*
X54761167Y-68205937D01*
X54793939Y-68223454D01*
X54822669Y-68247031D01*
X54846246Y-68275761D01*
X54863763Y-68308533D01*
X54874553Y-68344102D01*
X54878800Y-68387225D01*
X54878800Y-69671575D01*
X54874553Y-69714698D01*
X54863763Y-69750267D01*
X54846246Y-69783039D01*
X54822669Y-69811769D01*
X54793939Y-69835346D01*
X54761167Y-69852863D01*
X54725598Y-69863653D01*
X54682475Y-69867900D01*
X53623125Y-69867900D01*
X53580002Y-69863653D01*
X53544433Y-69852863D01*
X53511661Y-69835346D01*
X53482931Y-69811769D01*
X53459354Y-69783039D01*
X53441837Y-69750267D01*
X53431047Y-69714698D01*
X53426800Y-69671575D01*
X53426800Y-68387225D01*
X53431047Y-68344102D01*
X53441837Y-68308533D01*
X53459354Y-68275761D01*
X53482931Y-68247031D01*
X53511661Y-68223454D01*
X53544433Y-68205937D01*
X53580002Y-68195147D01*
X53623125Y-68190900D01*
X54682475Y-68190900D01*
X54725598Y-68195147D01*
X54725598Y-68195147D01*
G37*
G36*
X44712898Y-68185047D02*
G01*
X44748467Y-68195837D01*
X44781239Y-68213354D01*
X44809969Y-68236931D01*
X44833546Y-68265661D01*
X44851063Y-68298433D01*
X44861853Y-68334002D01*
X44866100Y-68377125D01*
X44866100Y-69661475D01*
X44861853Y-69704598D01*
X44851063Y-69740167D01*
X44833546Y-69772939D01*
X44809969Y-69801669D01*
X44781239Y-69825246D01*
X44748467Y-69842763D01*
X44712898Y-69853553D01*
X44669775Y-69857800D01*
X43610425Y-69857800D01*
X43567302Y-69853553D01*
X43531733Y-69842763D01*
X43498961Y-69825246D01*
X43470231Y-69801669D01*
X43446654Y-69772939D01*
X43429137Y-69740167D01*
X43418347Y-69704598D01*
X43414100Y-69661475D01*
X43414100Y-68377125D01*
X43418347Y-68334002D01*
X43429137Y-68298433D01*
X43446654Y-68265661D01*
X43470231Y-68236931D01*
X43498961Y-68213354D01*
X43531733Y-68195837D01*
X43567302Y-68185047D01*
X43610425Y-68180800D01*
X44669775Y-68180800D01*
X44712898Y-68185047D01*
X44712898Y-68185047D01*
G37*
G36*
X21650443Y-66885519D02*
G01*
X21716627Y-66892037D01*
X21886466Y-66943557D01*
X22042991Y-67027222D01*
X22078729Y-67056552D01*
X22180186Y-67139814D01*
X22263448Y-67241271D01*
X22292778Y-67277009D01*
X22376443Y-67433534D01*
X22427963Y-67603373D01*
X22445359Y-67780000D01*
X22427963Y-67956627D01*
X22376443Y-68126466D01*
X22292778Y-68282991D01*
X22280105Y-68298433D01*
X22180186Y-68420186D01*
X22078729Y-68503448D01*
X22042991Y-68532778D01*
X21886466Y-68616443D01*
X21716627Y-68667963D01*
X21650443Y-68674481D01*
X21584260Y-68681000D01*
X21495740Y-68681000D01*
X21429557Y-68674481D01*
X21363373Y-68667963D01*
X21193534Y-68616443D01*
X21037009Y-68532778D01*
X21001271Y-68503448D01*
X20899814Y-68420186D01*
X20799895Y-68298433D01*
X20787222Y-68282991D01*
X20703557Y-68126466D01*
X20652037Y-67956627D01*
X20634641Y-67780000D01*
X20652037Y-67603373D01*
X20703557Y-67433534D01*
X20787222Y-67277009D01*
X20816552Y-67241271D01*
X20899814Y-67139814D01*
X21001271Y-67056552D01*
X21037009Y-67027222D01*
X21193534Y-66943557D01*
X21363373Y-66892037D01*
X21429557Y-66885519D01*
X21495740Y-66879000D01*
X21584260Y-66879000D01*
X21650443Y-66885519D01*
X21650443Y-66885519D01*
G37*
G36*
X62290443Y-66885519D02*
G01*
X62356627Y-66892037D01*
X62526466Y-66943557D01*
X62682991Y-67027222D01*
X62718729Y-67056552D01*
X62820186Y-67139814D01*
X62903448Y-67241271D01*
X62932778Y-67277009D01*
X63016443Y-67433534D01*
X63067963Y-67603373D01*
X63085359Y-67780000D01*
X63067963Y-67956627D01*
X63016443Y-68126466D01*
X62932778Y-68282991D01*
X62920105Y-68298433D01*
X62820186Y-68420186D01*
X62718729Y-68503448D01*
X62682991Y-68532778D01*
X62526466Y-68616443D01*
X62356627Y-68667963D01*
X62290443Y-68674481D01*
X62224260Y-68681000D01*
X62135740Y-68681000D01*
X62069557Y-68674481D01*
X62003373Y-68667963D01*
X61833534Y-68616443D01*
X61677009Y-68532778D01*
X61641271Y-68503448D01*
X61539814Y-68420186D01*
X61439895Y-68298433D01*
X61427222Y-68282991D01*
X61343557Y-68126466D01*
X61292037Y-67956627D01*
X61274641Y-67780000D01*
X61292037Y-67603373D01*
X61343557Y-67433534D01*
X61427222Y-67277009D01*
X61456552Y-67241271D01*
X61539814Y-67139814D01*
X61641271Y-67056552D01*
X61677009Y-67027222D01*
X61833534Y-66943557D01*
X62003373Y-66892037D01*
X62069557Y-66885519D01*
X62135740Y-66879000D01*
X62224260Y-66879000D01*
X62290443Y-66885519D01*
X62290443Y-66885519D01*
G37*
G36*
X19110443Y-66885519D02*
G01*
X19176627Y-66892037D01*
X19346466Y-66943557D01*
X19502991Y-67027222D01*
X19538729Y-67056552D01*
X19640186Y-67139814D01*
X19723448Y-67241271D01*
X19752778Y-67277009D01*
X19836443Y-67433534D01*
X19887963Y-67603373D01*
X19905359Y-67780000D01*
X19887963Y-67956627D01*
X19836443Y-68126466D01*
X19752778Y-68282991D01*
X19740105Y-68298433D01*
X19640186Y-68420186D01*
X19538729Y-68503448D01*
X19502991Y-68532778D01*
X19346466Y-68616443D01*
X19176627Y-68667963D01*
X19110443Y-68674481D01*
X19044260Y-68681000D01*
X18955740Y-68681000D01*
X18889557Y-68674481D01*
X18823373Y-68667963D01*
X18653534Y-68616443D01*
X18497009Y-68532778D01*
X18461271Y-68503448D01*
X18359814Y-68420186D01*
X18259895Y-68298433D01*
X18247222Y-68282991D01*
X18163557Y-68126466D01*
X18112037Y-67956627D01*
X18094641Y-67780000D01*
X18112037Y-67603373D01*
X18163557Y-67433534D01*
X18247222Y-67277009D01*
X18276552Y-67241271D01*
X18359814Y-67139814D01*
X18461271Y-67056552D01*
X18497009Y-67027222D01*
X18653534Y-66943557D01*
X18823373Y-66892037D01*
X18889557Y-66885519D01*
X18955740Y-66879000D01*
X19044260Y-66879000D01*
X19110443Y-66885519D01*
X19110443Y-66885519D01*
G37*
G36*
X59750443Y-66885519D02*
G01*
X59816627Y-66892037D01*
X59986466Y-66943557D01*
X60142991Y-67027222D01*
X60178729Y-67056552D01*
X60280186Y-67139814D01*
X60363448Y-67241271D01*
X60392778Y-67277009D01*
X60476443Y-67433534D01*
X60527963Y-67603373D01*
X60545359Y-67780000D01*
X60527963Y-67956627D01*
X60476443Y-68126466D01*
X60392778Y-68282991D01*
X60380105Y-68298433D01*
X60280186Y-68420186D01*
X60178729Y-68503448D01*
X60142991Y-68532778D01*
X59986466Y-68616443D01*
X59816627Y-68667963D01*
X59750443Y-68674481D01*
X59684260Y-68681000D01*
X59595740Y-68681000D01*
X59529557Y-68674481D01*
X59463373Y-68667963D01*
X59293534Y-68616443D01*
X59137009Y-68532778D01*
X59101271Y-68503448D01*
X58999814Y-68420186D01*
X58899895Y-68298433D01*
X58887222Y-68282991D01*
X58803557Y-68126466D01*
X58752037Y-67956627D01*
X58734641Y-67780000D01*
X58752037Y-67603373D01*
X58803557Y-67433534D01*
X58887222Y-67277009D01*
X58916552Y-67241271D01*
X58999814Y-67139814D01*
X59101271Y-67056552D01*
X59137009Y-67027222D01*
X59293534Y-66943557D01*
X59463373Y-66892037D01*
X59529557Y-66885519D01*
X59595740Y-66879000D01*
X59684260Y-66879000D01*
X59750443Y-66885519D01*
X59750443Y-66885519D01*
G37*
G36*
X42468838Y-66763416D02*
G01*
X42489457Y-66769671D01*
X42508453Y-66779824D01*
X42525108Y-66793492D01*
X42538776Y-66810147D01*
X42548929Y-66829143D01*
X42555184Y-66849762D01*
X42557900Y-66877340D01*
X42557900Y-67336060D01*
X42555184Y-67363638D01*
X42548929Y-67384257D01*
X42538776Y-67403253D01*
X42525108Y-67419908D01*
X42508453Y-67433576D01*
X42489457Y-67443729D01*
X42468838Y-67449984D01*
X42441260Y-67452700D01*
X41932540Y-67452700D01*
X41904962Y-67449984D01*
X41884343Y-67443729D01*
X41865347Y-67433576D01*
X41848692Y-67419908D01*
X41835024Y-67403253D01*
X41824871Y-67384257D01*
X41818616Y-67363638D01*
X41815900Y-67336060D01*
X41815900Y-66877340D01*
X41818616Y-66849762D01*
X41824871Y-66829143D01*
X41835024Y-66810147D01*
X41848692Y-66793492D01*
X41865347Y-66779824D01*
X41884343Y-66769671D01*
X41904962Y-66763416D01*
X41932540Y-66760700D01*
X42441260Y-66760700D01*
X42468838Y-66763416D01*
X42468838Y-66763416D01*
G37*
G36*
X54725598Y-65320147D02*
G01*
X54761167Y-65330937D01*
X54793939Y-65348454D01*
X54822669Y-65372031D01*
X54846246Y-65400761D01*
X54863763Y-65433533D01*
X54874553Y-65469102D01*
X54878800Y-65512225D01*
X54878800Y-66796575D01*
X54874553Y-66839698D01*
X54863763Y-66875267D01*
X54846246Y-66908039D01*
X54822669Y-66936769D01*
X54793939Y-66960346D01*
X54761167Y-66977863D01*
X54725598Y-66988653D01*
X54682475Y-66992900D01*
X53623125Y-66992900D01*
X53580002Y-66988653D01*
X53544433Y-66977863D01*
X53511661Y-66960346D01*
X53482931Y-66936769D01*
X53459354Y-66908039D01*
X53441837Y-66875267D01*
X53431047Y-66839698D01*
X53426800Y-66796575D01*
X53426800Y-65512225D01*
X53431047Y-65469102D01*
X53441837Y-65433533D01*
X53459354Y-65400761D01*
X53482931Y-65372031D01*
X53511661Y-65348454D01*
X53544433Y-65330937D01*
X53580002Y-65320147D01*
X53623125Y-65315900D01*
X54682475Y-65315900D01*
X54725598Y-65320147D01*
X54725598Y-65320147D01*
G37*
G36*
X44712898Y-65310047D02*
G01*
X44748467Y-65320837D01*
X44781239Y-65338354D01*
X44809969Y-65361931D01*
X44833546Y-65390661D01*
X44851063Y-65423433D01*
X44861853Y-65459002D01*
X44866100Y-65502125D01*
X44866100Y-66786475D01*
X44861853Y-66829598D01*
X44851063Y-66865167D01*
X44833546Y-66897939D01*
X44809969Y-66926669D01*
X44781239Y-66950246D01*
X44748467Y-66967763D01*
X44712898Y-66978553D01*
X44669775Y-66982800D01*
X43610425Y-66982800D01*
X43567302Y-66978553D01*
X43531733Y-66967763D01*
X43498961Y-66950246D01*
X43470231Y-66926669D01*
X43446654Y-66897939D01*
X43429137Y-66865167D01*
X43418347Y-66829598D01*
X43414100Y-66786475D01*
X43414100Y-65502125D01*
X43418347Y-65459002D01*
X43429137Y-65423433D01*
X43446654Y-65390661D01*
X43470231Y-65361931D01*
X43498961Y-65338354D01*
X43531733Y-65320837D01*
X43567302Y-65310047D01*
X43610425Y-65305800D01*
X44669775Y-65305800D01*
X44712898Y-65310047D01*
X44712898Y-65310047D01*
G37*
G36*
X42468838Y-65793416D02*
G01*
X42489457Y-65799671D01*
X42508453Y-65809824D01*
X42525108Y-65823492D01*
X42538776Y-65840147D01*
X42548929Y-65859143D01*
X42555184Y-65879762D01*
X42557900Y-65907340D01*
X42557900Y-66366060D01*
X42555184Y-66393638D01*
X42548929Y-66414257D01*
X42538776Y-66433253D01*
X42525108Y-66449908D01*
X42508453Y-66463576D01*
X42489457Y-66473729D01*
X42468838Y-66479984D01*
X42441260Y-66482700D01*
X41932540Y-66482700D01*
X41904962Y-66479984D01*
X41884343Y-66473729D01*
X41865347Y-66463576D01*
X41848692Y-66449908D01*
X41835024Y-66433253D01*
X41824871Y-66414257D01*
X41818616Y-66393638D01*
X41815900Y-66366060D01*
X41815900Y-65907340D01*
X41818616Y-65879762D01*
X41824871Y-65859143D01*
X41835024Y-65840147D01*
X41848692Y-65823492D01*
X41865347Y-65809824D01*
X41884343Y-65799671D01*
X41904962Y-65793416D01*
X41932540Y-65790700D01*
X42441260Y-65790700D01*
X42468838Y-65793416D01*
X42468838Y-65793416D01*
G37*
G36*
X62290443Y-64345519D02*
G01*
X62356627Y-64352037D01*
X62526466Y-64403557D01*
X62682991Y-64487222D01*
X62688999Y-64492153D01*
X62820186Y-64599814D01*
X62903448Y-64701271D01*
X62932778Y-64737009D01*
X63016443Y-64893534D01*
X63067963Y-65063373D01*
X63085359Y-65240000D01*
X63067963Y-65416627D01*
X63016443Y-65586466D01*
X62932778Y-65742991D01*
X62903448Y-65778729D01*
X62820186Y-65880186D01*
X62718729Y-65963448D01*
X62682991Y-65992778D01*
X62526466Y-66076443D01*
X62356627Y-66127963D01*
X62290442Y-66134482D01*
X62224260Y-66141000D01*
X62135740Y-66141000D01*
X62069558Y-66134482D01*
X62003373Y-66127963D01*
X61833534Y-66076443D01*
X61677009Y-65992778D01*
X61641271Y-65963448D01*
X61539814Y-65880186D01*
X61456552Y-65778729D01*
X61427222Y-65742991D01*
X61343557Y-65586466D01*
X61292037Y-65416627D01*
X61274641Y-65240000D01*
X61292037Y-65063373D01*
X61343557Y-64893534D01*
X61427222Y-64737009D01*
X61456552Y-64701271D01*
X61539814Y-64599814D01*
X61671001Y-64492153D01*
X61677009Y-64487222D01*
X61833534Y-64403557D01*
X62003373Y-64352037D01*
X62069557Y-64345519D01*
X62135740Y-64339000D01*
X62224260Y-64339000D01*
X62290443Y-64345519D01*
X62290443Y-64345519D01*
G37*
G36*
X59750443Y-64345519D02*
G01*
X59816627Y-64352037D01*
X59986466Y-64403557D01*
X60142991Y-64487222D01*
X60148999Y-64492153D01*
X60280186Y-64599814D01*
X60363448Y-64701271D01*
X60392778Y-64737009D01*
X60476443Y-64893534D01*
X60527963Y-65063373D01*
X60545359Y-65240000D01*
X60527963Y-65416627D01*
X60476443Y-65586466D01*
X60392778Y-65742991D01*
X60363448Y-65778729D01*
X60280186Y-65880186D01*
X60178729Y-65963448D01*
X60142991Y-65992778D01*
X59986466Y-66076443D01*
X59816627Y-66127963D01*
X59750442Y-66134482D01*
X59684260Y-66141000D01*
X59595740Y-66141000D01*
X59529558Y-66134482D01*
X59463373Y-66127963D01*
X59293534Y-66076443D01*
X59137009Y-65992778D01*
X59101271Y-65963448D01*
X58999814Y-65880186D01*
X58916552Y-65778729D01*
X58887222Y-65742991D01*
X58803557Y-65586466D01*
X58752037Y-65416627D01*
X58734641Y-65240000D01*
X58752037Y-65063373D01*
X58803557Y-64893534D01*
X58887222Y-64737009D01*
X58916552Y-64701271D01*
X58999814Y-64599814D01*
X59131001Y-64492153D01*
X59137009Y-64487222D01*
X59293534Y-64403557D01*
X59463373Y-64352037D01*
X59529557Y-64345519D01*
X59595740Y-64339000D01*
X59684260Y-64339000D01*
X59750443Y-64345519D01*
X59750443Y-64345519D01*
G37*
G36*
X21650443Y-64345519D02*
G01*
X21716627Y-64352037D01*
X21886466Y-64403557D01*
X22042991Y-64487222D01*
X22048999Y-64492153D01*
X22180186Y-64599814D01*
X22263448Y-64701271D01*
X22292778Y-64737009D01*
X22376443Y-64893534D01*
X22427963Y-65063373D01*
X22445359Y-65240000D01*
X22427963Y-65416627D01*
X22376443Y-65586466D01*
X22292778Y-65742991D01*
X22263448Y-65778729D01*
X22180186Y-65880186D01*
X22078729Y-65963448D01*
X22042991Y-65992778D01*
X21886466Y-66076443D01*
X21716627Y-66127963D01*
X21650442Y-66134482D01*
X21584260Y-66141000D01*
X21495740Y-66141000D01*
X21429558Y-66134482D01*
X21363373Y-66127963D01*
X21193534Y-66076443D01*
X21037009Y-65992778D01*
X21001271Y-65963448D01*
X20899814Y-65880186D01*
X20816552Y-65778729D01*
X20787222Y-65742991D01*
X20703557Y-65586466D01*
X20652037Y-65416627D01*
X20634641Y-65240000D01*
X20652037Y-65063373D01*
X20703557Y-64893534D01*
X20787222Y-64737009D01*
X20816552Y-64701271D01*
X20899814Y-64599814D01*
X21031001Y-64492153D01*
X21037009Y-64487222D01*
X21193534Y-64403557D01*
X21363373Y-64352037D01*
X21429557Y-64345519D01*
X21495740Y-64339000D01*
X21584260Y-64339000D01*
X21650443Y-64345519D01*
X21650443Y-64345519D01*
G37*
G36*
X19110443Y-64345519D02*
G01*
X19176627Y-64352037D01*
X19346466Y-64403557D01*
X19502991Y-64487222D01*
X19508999Y-64492153D01*
X19640186Y-64599814D01*
X19723448Y-64701271D01*
X19752778Y-64737009D01*
X19836443Y-64893534D01*
X19887963Y-65063373D01*
X19905359Y-65240000D01*
X19887963Y-65416627D01*
X19836443Y-65586466D01*
X19752778Y-65742991D01*
X19723448Y-65778729D01*
X19640186Y-65880186D01*
X19538729Y-65963448D01*
X19502991Y-65992778D01*
X19346466Y-66076443D01*
X19176627Y-66127963D01*
X19110442Y-66134482D01*
X19044260Y-66141000D01*
X18955740Y-66141000D01*
X18889558Y-66134482D01*
X18823373Y-66127963D01*
X18653534Y-66076443D01*
X18497009Y-65992778D01*
X18461271Y-65963448D01*
X18359814Y-65880186D01*
X18276552Y-65778729D01*
X18247222Y-65742991D01*
X18163557Y-65586466D01*
X18112037Y-65416627D01*
X18094641Y-65240000D01*
X18112037Y-65063373D01*
X18163557Y-64893534D01*
X18247222Y-64737009D01*
X18276552Y-64701271D01*
X18359814Y-64599814D01*
X18491001Y-64492153D01*
X18497009Y-64487222D01*
X18653534Y-64403557D01*
X18823373Y-64352037D01*
X18889557Y-64345519D01*
X18955740Y-64339000D01*
X19044260Y-64339000D01*
X19110443Y-64345519D01*
X19110443Y-64345519D01*
G37*
G36*
X57167738Y-64538316D02*
G01*
X57188357Y-64544571D01*
X57207353Y-64554724D01*
X57224008Y-64568392D01*
X57237676Y-64585047D01*
X57247829Y-64604043D01*
X57254084Y-64624662D01*
X57256800Y-64652240D01*
X57256800Y-65110960D01*
X57254084Y-65138538D01*
X57247829Y-65159157D01*
X57237676Y-65178153D01*
X57224008Y-65194808D01*
X57207353Y-65208476D01*
X57188357Y-65218629D01*
X57167738Y-65224884D01*
X57140160Y-65227600D01*
X56631440Y-65227600D01*
X56603862Y-65224884D01*
X56583243Y-65218629D01*
X56564247Y-65208476D01*
X56547592Y-65194808D01*
X56533924Y-65178153D01*
X56523771Y-65159157D01*
X56517516Y-65138538D01*
X56514800Y-65110960D01*
X56514800Y-64652240D01*
X56517516Y-64624662D01*
X56523771Y-64604043D01*
X56533924Y-64585047D01*
X56547592Y-64568392D01*
X56564247Y-64554724D01*
X56583243Y-64544571D01*
X56603862Y-64538316D01*
X56631440Y-64535600D01*
X57140160Y-64535600D01*
X57167738Y-64538316D01*
X57167738Y-64538316D01*
G37*
G36*
X33508238Y-63802316D02*
G01*
X33528857Y-63808571D01*
X33547853Y-63818724D01*
X33564508Y-63832392D01*
X33578176Y-63849047D01*
X33588329Y-63868043D01*
X33594584Y-63888662D01*
X33597300Y-63916240D01*
X33597300Y-64424960D01*
X33594584Y-64452538D01*
X33588329Y-64473157D01*
X33578176Y-64492153D01*
X33564508Y-64508808D01*
X33547853Y-64522476D01*
X33528857Y-64532629D01*
X33508238Y-64538884D01*
X33480660Y-64541600D01*
X33021940Y-64541600D01*
X32994362Y-64538884D01*
X32973743Y-64532629D01*
X32954747Y-64522476D01*
X32938092Y-64508808D01*
X32924424Y-64492153D01*
X32914271Y-64473157D01*
X32908016Y-64452538D01*
X32905300Y-64424960D01*
X32905300Y-63916240D01*
X32908016Y-63888662D01*
X32914271Y-63868043D01*
X32924424Y-63849047D01*
X32938092Y-63832392D01*
X32954747Y-63818724D01*
X32973743Y-63808571D01*
X32994362Y-63802316D01*
X33021940Y-63799600D01*
X33480660Y-63799600D01*
X33508238Y-63802316D01*
X33508238Y-63802316D01*
G37*
G36*
X34478238Y-63802316D02*
G01*
X34498857Y-63808571D01*
X34517853Y-63818724D01*
X34534508Y-63832392D01*
X34548176Y-63849047D01*
X34558329Y-63868043D01*
X34564584Y-63888662D01*
X34567300Y-63916240D01*
X34567300Y-64424960D01*
X34564584Y-64452538D01*
X34558329Y-64473157D01*
X34548176Y-64492153D01*
X34534508Y-64508808D01*
X34517853Y-64522476D01*
X34498857Y-64532629D01*
X34478238Y-64538884D01*
X34450660Y-64541600D01*
X33991940Y-64541600D01*
X33964362Y-64538884D01*
X33943743Y-64532629D01*
X33924747Y-64522476D01*
X33908092Y-64508808D01*
X33894424Y-64492153D01*
X33884271Y-64473157D01*
X33878016Y-64452538D01*
X33875300Y-64424960D01*
X33875300Y-63916240D01*
X33878016Y-63888662D01*
X33884271Y-63868043D01*
X33894424Y-63849047D01*
X33908092Y-63832392D01*
X33924747Y-63818724D01*
X33943743Y-63808571D01*
X33964362Y-63802316D01*
X33991940Y-63799600D01*
X34450660Y-63799600D01*
X34478238Y-63802316D01*
X34478238Y-63802316D01*
G37*
G36*
X57167738Y-63568316D02*
G01*
X57188357Y-63574571D01*
X57207353Y-63584724D01*
X57224008Y-63598392D01*
X57237676Y-63615047D01*
X57247829Y-63634043D01*
X57254084Y-63654662D01*
X57256800Y-63682240D01*
X57256800Y-64140960D01*
X57254084Y-64168538D01*
X57247829Y-64189157D01*
X57237676Y-64208153D01*
X57224008Y-64224808D01*
X57207353Y-64238476D01*
X57188357Y-64248629D01*
X57167738Y-64254884D01*
X57140160Y-64257600D01*
X56631440Y-64257600D01*
X56603862Y-64254884D01*
X56583243Y-64248629D01*
X56564247Y-64238476D01*
X56547592Y-64224808D01*
X56533924Y-64208153D01*
X56523771Y-64189157D01*
X56517516Y-64168538D01*
X56514800Y-64140960D01*
X56514800Y-63682240D01*
X56517516Y-63654662D01*
X56523771Y-63634043D01*
X56533924Y-63615047D01*
X56547592Y-63598392D01*
X56564247Y-63584724D01*
X56583243Y-63574571D01*
X56603862Y-63568316D01*
X56631440Y-63565600D01*
X57140160Y-63565600D01*
X57167738Y-63568316D01*
X57167738Y-63568316D01*
G37*
G36*
X24350938Y-63329316D02*
G01*
X24371557Y-63335571D01*
X24390553Y-63345724D01*
X24407208Y-63359392D01*
X24420876Y-63376047D01*
X24431029Y-63395043D01*
X24437284Y-63415662D01*
X24440000Y-63443240D01*
X24440000Y-63901960D01*
X24437284Y-63929538D01*
X24431029Y-63950157D01*
X24420876Y-63969153D01*
X24407208Y-63985808D01*
X24390553Y-63999476D01*
X24371557Y-64009629D01*
X24350938Y-64015884D01*
X24323360Y-64018600D01*
X23814640Y-64018600D01*
X23787062Y-64015884D01*
X23766443Y-64009629D01*
X23747447Y-63999476D01*
X23730792Y-63985808D01*
X23717124Y-63969153D01*
X23706971Y-63950157D01*
X23700716Y-63929538D01*
X23698000Y-63901960D01*
X23698000Y-63443240D01*
X23700716Y-63415662D01*
X23706971Y-63395043D01*
X23717124Y-63376047D01*
X23730792Y-63359392D01*
X23747447Y-63345724D01*
X23766443Y-63335571D01*
X23787062Y-63329316D01*
X23814640Y-63326600D01*
X24323360Y-63326600D01*
X24350938Y-63329316D01*
X24350938Y-63329316D01*
G37*
G36*
X51102500Y-63755600D02*
G01*
X47200500Y-63755600D01*
X47200500Y-61653600D01*
X51102500Y-61653600D01*
X51102500Y-63755600D01*
X51102500Y-63755600D01*
G37*
G36*
X59750442Y-61805518D02*
G01*
X59816627Y-61812037D01*
X59986466Y-61863557D01*
X60142991Y-61947222D01*
X60178729Y-61976552D01*
X60280186Y-62059814D01*
X60363448Y-62161271D01*
X60392778Y-62197009D01*
X60476443Y-62353534D01*
X60527963Y-62523373D01*
X60545359Y-62700000D01*
X60527963Y-62876627D01*
X60476443Y-63046466D01*
X60392778Y-63202991D01*
X60363448Y-63238729D01*
X60280186Y-63340186D01*
X60188217Y-63415662D01*
X60142991Y-63452778D01*
X59986466Y-63536443D01*
X59816627Y-63587963D01*
X59750443Y-63594481D01*
X59684260Y-63601000D01*
X59595740Y-63601000D01*
X59529557Y-63594481D01*
X59463373Y-63587963D01*
X59293534Y-63536443D01*
X59137009Y-63452778D01*
X59091783Y-63415662D01*
X58999814Y-63340186D01*
X58916552Y-63238729D01*
X58887222Y-63202991D01*
X58803557Y-63046466D01*
X58752037Y-62876627D01*
X58734641Y-62700000D01*
X58752037Y-62523373D01*
X58803557Y-62353534D01*
X58887222Y-62197009D01*
X58916552Y-62161271D01*
X58999814Y-62059814D01*
X59101271Y-61976552D01*
X59137009Y-61947222D01*
X59293534Y-61863557D01*
X59463373Y-61812037D01*
X59529558Y-61805518D01*
X59595740Y-61799000D01*
X59684260Y-61799000D01*
X59750442Y-61805518D01*
X59750442Y-61805518D01*
G37*
G36*
X21650442Y-61805518D02*
G01*
X21716627Y-61812037D01*
X21886466Y-61863557D01*
X22042991Y-61947222D01*
X22078729Y-61976552D01*
X22180186Y-62059814D01*
X22263448Y-62161271D01*
X22292778Y-62197009D01*
X22376443Y-62353534D01*
X22427963Y-62523373D01*
X22445359Y-62700000D01*
X22427963Y-62876627D01*
X22376443Y-63046466D01*
X22292778Y-63202991D01*
X22263448Y-63238729D01*
X22180186Y-63340186D01*
X22088217Y-63415662D01*
X22042991Y-63452778D01*
X21886466Y-63536443D01*
X21716627Y-63587963D01*
X21650443Y-63594481D01*
X21584260Y-63601000D01*
X21495740Y-63601000D01*
X21429557Y-63594481D01*
X21363373Y-63587963D01*
X21193534Y-63536443D01*
X21037009Y-63452778D01*
X20991783Y-63415662D01*
X20899814Y-63340186D01*
X20816552Y-63238729D01*
X20787222Y-63202991D01*
X20703557Y-63046466D01*
X20652037Y-62876627D01*
X20634641Y-62700000D01*
X20652037Y-62523373D01*
X20703557Y-62353534D01*
X20787222Y-62197009D01*
X20816552Y-62161271D01*
X20899814Y-62059814D01*
X21001271Y-61976552D01*
X21037009Y-61947222D01*
X21193534Y-61863557D01*
X21363373Y-61812037D01*
X21429558Y-61805518D01*
X21495740Y-61799000D01*
X21584260Y-61799000D01*
X21650442Y-61805518D01*
X21650442Y-61805518D01*
G37*
G36*
X19110442Y-61805518D02*
G01*
X19176627Y-61812037D01*
X19346466Y-61863557D01*
X19502991Y-61947222D01*
X19538729Y-61976552D01*
X19640186Y-62059814D01*
X19723448Y-62161271D01*
X19752778Y-62197009D01*
X19836443Y-62353534D01*
X19887963Y-62523373D01*
X19905359Y-62700000D01*
X19887963Y-62876627D01*
X19836443Y-63046466D01*
X19752778Y-63202991D01*
X19723448Y-63238729D01*
X19640186Y-63340186D01*
X19548217Y-63415662D01*
X19502991Y-63452778D01*
X19346466Y-63536443D01*
X19176627Y-63587963D01*
X19110443Y-63594481D01*
X19044260Y-63601000D01*
X18955740Y-63601000D01*
X18889557Y-63594481D01*
X18823373Y-63587963D01*
X18653534Y-63536443D01*
X18497009Y-63452778D01*
X18451783Y-63415662D01*
X18359814Y-63340186D01*
X18276552Y-63238729D01*
X18247222Y-63202991D01*
X18163557Y-63046466D01*
X18112037Y-62876627D01*
X18094641Y-62700000D01*
X18112037Y-62523373D01*
X18163557Y-62353534D01*
X18247222Y-62197009D01*
X18276552Y-62161271D01*
X18359814Y-62059814D01*
X18461271Y-61976552D01*
X18497009Y-61947222D01*
X18653534Y-61863557D01*
X18823373Y-61812037D01*
X18889558Y-61805518D01*
X18955740Y-61799000D01*
X19044260Y-61799000D01*
X19110442Y-61805518D01*
X19110442Y-61805518D01*
G37*
G36*
X62290442Y-61805518D02*
G01*
X62356627Y-61812037D01*
X62526466Y-61863557D01*
X62682991Y-61947222D01*
X62718729Y-61976552D01*
X62820186Y-62059814D01*
X62903448Y-62161271D01*
X62932778Y-62197009D01*
X63016443Y-62353534D01*
X63067963Y-62523373D01*
X63085359Y-62700000D01*
X63067963Y-62876627D01*
X63016443Y-63046466D01*
X62932778Y-63202991D01*
X62903448Y-63238729D01*
X62820186Y-63340186D01*
X62728217Y-63415662D01*
X62682991Y-63452778D01*
X62526466Y-63536443D01*
X62356627Y-63587963D01*
X62290443Y-63594481D01*
X62224260Y-63601000D01*
X62135740Y-63601000D01*
X62069557Y-63594481D01*
X62003373Y-63587963D01*
X61833534Y-63536443D01*
X61677009Y-63452778D01*
X61631783Y-63415662D01*
X61539814Y-63340186D01*
X61456552Y-63238729D01*
X61427222Y-63202991D01*
X61343557Y-63046466D01*
X61292037Y-62876627D01*
X61274641Y-62700000D01*
X61292037Y-62523373D01*
X61343557Y-62353534D01*
X61427222Y-62197009D01*
X61456552Y-62161271D01*
X61539814Y-62059814D01*
X61641271Y-61976552D01*
X61677009Y-61947222D01*
X61833534Y-61863557D01*
X62003373Y-61812037D01*
X62069558Y-61805518D01*
X62135740Y-61799000D01*
X62224260Y-61799000D01*
X62290442Y-61805518D01*
X62290442Y-61805518D01*
G37*
G36*
X24350938Y-62359316D02*
G01*
X24371557Y-62365571D01*
X24390553Y-62375724D01*
X24407208Y-62389392D01*
X24420876Y-62406047D01*
X24431029Y-62425043D01*
X24437284Y-62445662D01*
X24440000Y-62473240D01*
X24440000Y-62931960D01*
X24437284Y-62959538D01*
X24431029Y-62980157D01*
X24420876Y-62999153D01*
X24407208Y-63015808D01*
X24390553Y-63029476D01*
X24371557Y-63039629D01*
X24350938Y-63045884D01*
X24323360Y-63048600D01*
X23814640Y-63048600D01*
X23787062Y-63045884D01*
X23766443Y-63039629D01*
X23747447Y-63029476D01*
X23730792Y-63015808D01*
X23717124Y-62999153D01*
X23706971Y-62980157D01*
X23700716Y-62959538D01*
X23698000Y-62931960D01*
X23698000Y-62473240D01*
X23700716Y-62445662D01*
X23706971Y-62425043D01*
X23717124Y-62406047D01*
X23730792Y-62389392D01*
X23747447Y-62375724D01*
X23766443Y-62365571D01*
X23787062Y-62359316D01*
X23814640Y-62356600D01*
X24323360Y-62356600D01*
X24350938Y-62359316D01*
X24350938Y-62359316D01*
G37*
G36*
X36881200Y-62967700D02*
G01*
X28229200Y-62967700D01*
X28229200Y-61365700D01*
X36881200Y-61365700D01*
X36881200Y-62967700D01*
X36881200Y-62967700D01*
G37*
G36*
X19110442Y-59265518D02*
G01*
X19176627Y-59272037D01*
X19346466Y-59323557D01*
X19502991Y-59407222D01*
X19538729Y-59436552D01*
X19640186Y-59519814D01*
X19723448Y-59621271D01*
X19752778Y-59657009D01*
X19836443Y-59813534D01*
X19887963Y-59983373D01*
X19905359Y-60160000D01*
X19887963Y-60336627D01*
X19836443Y-60506466D01*
X19752778Y-60662991D01*
X19723448Y-60698729D01*
X19640186Y-60800186D01*
X19538729Y-60883448D01*
X19502991Y-60912778D01*
X19346466Y-60996443D01*
X19176627Y-61047963D01*
X19110443Y-61054481D01*
X19044260Y-61061000D01*
X18955740Y-61061000D01*
X18889557Y-61054481D01*
X18823373Y-61047963D01*
X18653534Y-60996443D01*
X18497009Y-60912778D01*
X18461271Y-60883448D01*
X18359814Y-60800186D01*
X18276552Y-60698729D01*
X18247222Y-60662991D01*
X18163557Y-60506466D01*
X18112037Y-60336627D01*
X18094641Y-60160000D01*
X18112037Y-59983373D01*
X18163557Y-59813534D01*
X18247222Y-59657009D01*
X18276552Y-59621271D01*
X18359814Y-59519814D01*
X18461271Y-59436552D01*
X18497009Y-59407222D01*
X18653534Y-59323557D01*
X18823373Y-59272037D01*
X18889558Y-59265518D01*
X18955740Y-59259000D01*
X19044260Y-59259000D01*
X19110442Y-59265518D01*
X19110442Y-59265518D01*
G37*
G36*
X21650442Y-59265518D02*
G01*
X21716627Y-59272037D01*
X21886466Y-59323557D01*
X22042991Y-59407222D01*
X22078729Y-59436552D01*
X22180186Y-59519814D01*
X22263448Y-59621271D01*
X22292778Y-59657009D01*
X22376443Y-59813534D01*
X22427963Y-59983373D01*
X22445359Y-60160000D01*
X22427963Y-60336627D01*
X22376443Y-60506466D01*
X22292778Y-60662991D01*
X22263448Y-60698729D01*
X22180186Y-60800186D01*
X22078729Y-60883448D01*
X22042991Y-60912778D01*
X21886466Y-60996443D01*
X21716627Y-61047963D01*
X21650443Y-61054481D01*
X21584260Y-61061000D01*
X21495740Y-61061000D01*
X21429557Y-61054481D01*
X21363373Y-61047963D01*
X21193534Y-60996443D01*
X21037009Y-60912778D01*
X21001271Y-60883448D01*
X20899814Y-60800186D01*
X20816552Y-60698729D01*
X20787222Y-60662991D01*
X20703557Y-60506466D01*
X20652037Y-60336627D01*
X20634641Y-60160000D01*
X20652037Y-59983373D01*
X20703557Y-59813534D01*
X20787222Y-59657009D01*
X20816552Y-59621271D01*
X20899814Y-59519814D01*
X21001271Y-59436552D01*
X21037009Y-59407222D01*
X21193534Y-59323557D01*
X21363373Y-59272037D01*
X21429558Y-59265518D01*
X21495740Y-59259000D01*
X21584260Y-59259000D01*
X21650442Y-59265518D01*
X21650442Y-59265518D01*
G37*
G36*
X59750442Y-59265518D02*
G01*
X59816627Y-59272037D01*
X59986466Y-59323557D01*
X60142991Y-59407222D01*
X60178729Y-59436552D01*
X60280186Y-59519814D01*
X60363448Y-59621271D01*
X60392778Y-59657009D01*
X60476443Y-59813534D01*
X60527963Y-59983373D01*
X60545359Y-60160000D01*
X60527963Y-60336627D01*
X60476443Y-60506466D01*
X60392778Y-60662991D01*
X60363448Y-60698729D01*
X60280186Y-60800186D01*
X60178729Y-60883448D01*
X60142991Y-60912778D01*
X59986466Y-60996443D01*
X59816627Y-61047963D01*
X59750443Y-61054481D01*
X59684260Y-61061000D01*
X59595740Y-61061000D01*
X59529557Y-61054481D01*
X59463373Y-61047963D01*
X59293534Y-60996443D01*
X59137009Y-60912778D01*
X59101271Y-60883448D01*
X58999814Y-60800186D01*
X58916552Y-60698729D01*
X58887222Y-60662991D01*
X58803557Y-60506466D01*
X58752037Y-60336627D01*
X58734641Y-60160000D01*
X58752037Y-59983373D01*
X58803557Y-59813534D01*
X58887222Y-59657009D01*
X58916552Y-59621271D01*
X58999814Y-59519814D01*
X59101271Y-59436552D01*
X59137009Y-59407222D01*
X59293534Y-59323557D01*
X59463373Y-59272037D01*
X59529558Y-59265518D01*
X59595740Y-59259000D01*
X59684260Y-59259000D01*
X59750442Y-59265518D01*
X59750442Y-59265518D01*
G37*
G36*
X62290442Y-59265518D02*
G01*
X62356627Y-59272037D01*
X62526466Y-59323557D01*
X62682991Y-59407222D01*
X62718729Y-59436552D01*
X62820186Y-59519814D01*
X62903448Y-59621271D01*
X62932778Y-59657009D01*
X63016443Y-59813534D01*
X63067963Y-59983373D01*
X63085359Y-60160000D01*
X63067963Y-60336627D01*
X63016443Y-60506466D01*
X62932778Y-60662991D01*
X62903448Y-60698729D01*
X62820186Y-60800186D01*
X62718729Y-60883448D01*
X62682991Y-60912778D01*
X62526466Y-60996443D01*
X62356627Y-61047963D01*
X62290443Y-61054481D01*
X62224260Y-61061000D01*
X62135740Y-61061000D01*
X62069557Y-61054481D01*
X62003373Y-61047963D01*
X61833534Y-60996443D01*
X61677009Y-60912778D01*
X61641271Y-60883448D01*
X61539814Y-60800186D01*
X61456552Y-60698729D01*
X61427222Y-60662991D01*
X61343557Y-60506466D01*
X61292037Y-60336627D01*
X61274641Y-60160000D01*
X61292037Y-59983373D01*
X61343557Y-59813534D01*
X61427222Y-59657009D01*
X61456552Y-59621271D01*
X61539814Y-59519814D01*
X61641271Y-59436552D01*
X61677009Y-59407222D01*
X61833534Y-59323557D01*
X62003373Y-59272037D01*
X62069558Y-59265518D01*
X62135740Y-59259000D01*
X62224260Y-59259000D01*
X62290442Y-59265518D01*
X62290442Y-59265518D01*
G37*
G36*
X27656200Y-60792700D02*
G01*
X26054200Y-60792700D01*
X26054200Y-52140700D01*
X27656200Y-52140700D01*
X27656200Y-60792700D01*
X27656200Y-60792700D01*
G37*
G36*
X39056200Y-60792700D02*
G01*
X37454200Y-60792700D01*
X37454200Y-52140700D01*
X39056200Y-52140700D01*
X39056200Y-60792700D01*
X39056200Y-60792700D01*
G37*
G36*
X24899638Y-58688716D02*
G01*
X24920257Y-58694971D01*
X24939253Y-58705124D01*
X24955908Y-58718792D01*
X24969576Y-58735447D01*
X24979729Y-58754443D01*
X24985984Y-58775062D01*
X24988700Y-58802640D01*
X24988700Y-59261360D01*
X24985984Y-59288938D01*
X24979729Y-59309557D01*
X24969576Y-59328553D01*
X24955908Y-59345208D01*
X24939253Y-59358876D01*
X24920257Y-59369029D01*
X24899638Y-59375284D01*
X24872060Y-59378000D01*
X24363340Y-59378000D01*
X24335762Y-59375284D01*
X24315143Y-59369029D01*
X24296147Y-59358876D01*
X24279492Y-59345208D01*
X24265824Y-59328553D01*
X24255671Y-59309557D01*
X24249416Y-59288938D01*
X24246700Y-59261360D01*
X24246700Y-58802640D01*
X24249416Y-58775062D01*
X24255671Y-58754443D01*
X24265824Y-58735447D01*
X24279492Y-58718792D01*
X24296147Y-58705124D01*
X24315143Y-58694971D01*
X24335762Y-58688716D01*
X24363340Y-58686000D01*
X24872060Y-58686000D01*
X24899638Y-58688716D01*
X24899638Y-58688716D01*
G37*
G36*
X59750443Y-56725519D02*
G01*
X59816627Y-56732037D01*
X59986466Y-56783557D01*
X60142991Y-56867222D01*
X60178729Y-56896552D01*
X60280186Y-56979814D01*
X60330980Y-57041708D01*
X60392778Y-57117009D01*
X60476443Y-57273534D01*
X60527963Y-57443373D01*
X60545359Y-57620000D01*
X60527963Y-57796627D01*
X60479788Y-57955438D01*
X60476442Y-57966468D01*
X60461817Y-57993829D01*
X60392778Y-58122991D01*
X60363448Y-58158729D01*
X60280186Y-58260186D01*
X60183471Y-58339557D01*
X60142991Y-58372778D01*
X59986466Y-58456443D01*
X59816627Y-58507963D01*
X59750443Y-58514481D01*
X59684260Y-58521000D01*
X59595740Y-58521000D01*
X59529557Y-58514481D01*
X59463373Y-58507963D01*
X59293534Y-58456443D01*
X59137009Y-58372778D01*
X59096529Y-58339557D01*
X58999814Y-58260186D01*
X58916552Y-58158729D01*
X58887222Y-58122991D01*
X58818183Y-57993829D01*
X58803558Y-57966468D01*
X58800212Y-57955438D01*
X58752037Y-57796627D01*
X58734641Y-57620000D01*
X58752037Y-57443373D01*
X58803557Y-57273534D01*
X58887222Y-57117009D01*
X58949020Y-57041708D01*
X58999814Y-56979814D01*
X59101271Y-56896552D01*
X59137009Y-56867222D01*
X59293534Y-56783557D01*
X59463373Y-56732037D01*
X59529557Y-56725519D01*
X59595740Y-56719000D01*
X59684260Y-56719000D01*
X59750443Y-56725519D01*
X59750443Y-56725519D01*
G37*
G36*
X19110443Y-56725519D02*
G01*
X19176627Y-56732037D01*
X19346466Y-56783557D01*
X19502991Y-56867222D01*
X19538729Y-56896552D01*
X19640186Y-56979814D01*
X19690980Y-57041708D01*
X19752778Y-57117009D01*
X19836443Y-57273534D01*
X19887963Y-57443373D01*
X19905359Y-57620000D01*
X19887963Y-57796627D01*
X19839788Y-57955438D01*
X19836442Y-57966468D01*
X19821817Y-57993829D01*
X19752778Y-58122991D01*
X19723448Y-58158729D01*
X19640186Y-58260186D01*
X19543471Y-58339557D01*
X19502991Y-58372778D01*
X19346466Y-58456443D01*
X19176627Y-58507963D01*
X19110443Y-58514481D01*
X19044260Y-58521000D01*
X18955740Y-58521000D01*
X18889557Y-58514481D01*
X18823373Y-58507963D01*
X18653534Y-58456443D01*
X18497009Y-58372778D01*
X18456529Y-58339557D01*
X18359814Y-58260186D01*
X18276552Y-58158729D01*
X18247222Y-58122991D01*
X18178183Y-57993829D01*
X18163558Y-57966468D01*
X18160212Y-57955438D01*
X18112037Y-57796627D01*
X18094641Y-57620000D01*
X18112037Y-57443373D01*
X18163557Y-57273534D01*
X18247222Y-57117009D01*
X18309020Y-57041708D01*
X18359814Y-56979814D01*
X18461271Y-56896552D01*
X18497009Y-56867222D01*
X18653534Y-56783557D01*
X18823373Y-56732037D01*
X18889557Y-56725519D01*
X18955740Y-56719000D01*
X19044260Y-56719000D01*
X19110443Y-56725519D01*
X19110443Y-56725519D01*
G37*
G36*
X62290443Y-56725519D02*
G01*
X62356627Y-56732037D01*
X62526466Y-56783557D01*
X62682991Y-56867222D01*
X62718729Y-56896552D01*
X62820186Y-56979814D01*
X62870980Y-57041708D01*
X62932778Y-57117009D01*
X63016443Y-57273534D01*
X63067963Y-57443373D01*
X63085359Y-57620000D01*
X63067963Y-57796627D01*
X63019788Y-57955438D01*
X63016442Y-57966468D01*
X63001817Y-57993829D01*
X62932778Y-58122991D01*
X62903448Y-58158729D01*
X62820186Y-58260186D01*
X62723471Y-58339557D01*
X62682991Y-58372778D01*
X62526466Y-58456443D01*
X62356627Y-58507963D01*
X62290443Y-58514481D01*
X62224260Y-58521000D01*
X62135740Y-58521000D01*
X62069557Y-58514481D01*
X62003373Y-58507963D01*
X61833534Y-58456443D01*
X61677009Y-58372778D01*
X61636529Y-58339557D01*
X61539814Y-58260186D01*
X61456552Y-58158729D01*
X61427222Y-58122991D01*
X61358183Y-57993829D01*
X61343558Y-57966468D01*
X61340212Y-57955438D01*
X61292037Y-57796627D01*
X61274641Y-57620000D01*
X61292037Y-57443373D01*
X61343557Y-57273534D01*
X61427222Y-57117009D01*
X61489020Y-57041708D01*
X61539814Y-56979814D01*
X61641271Y-56896552D01*
X61677009Y-56867222D01*
X61833534Y-56783557D01*
X62003373Y-56732037D01*
X62069557Y-56725519D01*
X62135740Y-56719000D01*
X62224260Y-56719000D01*
X62290443Y-56725519D01*
X62290443Y-56725519D01*
G37*
G36*
X21650443Y-56725519D02*
G01*
X21716627Y-56732037D01*
X21886466Y-56783557D01*
X22042991Y-56867222D01*
X22078729Y-56896552D01*
X22180186Y-56979814D01*
X22230980Y-57041708D01*
X22292778Y-57117009D01*
X22376443Y-57273534D01*
X22427963Y-57443373D01*
X22445359Y-57620000D01*
X22427963Y-57796627D01*
X22379788Y-57955438D01*
X22376442Y-57966468D01*
X22361817Y-57993829D01*
X22292778Y-58122991D01*
X22263448Y-58158729D01*
X22180186Y-58260186D01*
X22083471Y-58339557D01*
X22042991Y-58372778D01*
X21886466Y-58456443D01*
X21716627Y-58507963D01*
X21650443Y-58514481D01*
X21584260Y-58521000D01*
X21495740Y-58521000D01*
X21429557Y-58514481D01*
X21363373Y-58507963D01*
X21193534Y-58456443D01*
X21037009Y-58372778D01*
X20996529Y-58339557D01*
X20899814Y-58260186D01*
X20816552Y-58158729D01*
X20787222Y-58122991D01*
X20718183Y-57993829D01*
X20703558Y-57966468D01*
X20700212Y-57955438D01*
X20652037Y-57796627D01*
X20634641Y-57620000D01*
X20652037Y-57443373D01*
X20703557Y-57273534D01*
X20787222Y-57117009D01*
X20849020Y-57041708D01*
X20899814Y-56979814D01*
X21001271Y-56896552D01*
X21037009Y-56867222D01*
X21193534Y-56783557D01*
X21363373Y-56732037D01*
X21429557Y-56725519D01*
X21495740Y-56719000D01*
X21584260Y-56719000D01*
X21650443Y-56725519D01*
X21650443Y-56725519D01*
G37*
G36*
X24899638Y-57718716D02*
G01*
X24920257Y-57724971D01*
X24939253Y-57735124D01*
X24955908Y-57748792D01*
X24969576Y-57765447D01*
X24979729Y-57784443D01*
X24985984Y-57805062D01*
X24988700Y-57832640D01*
X24988700Y-58291360D01*
X24985984Y-58318938D01*
X24979729Y-58339557D01*
X24969576Y-58358553D01*
X24955908Y-58375208D01*
X24939253Y-58388876D01*
X24920257Y-58399029D01*
X24899638Y-58405284D01*
X24872060Y-58408000D01*
X24363340Y-58408000D01*
X24335762Y-58405284D01*
X24315143Y-58399029D01*
X24296147Y-58388876D01*
X24279492Y-58375208D01*
X24265824Y-58358553D01*
X24255671Y-58339557D01*
X24249416Y-58318938D01*
X24246700Y-58291360D01*
X24246700Y-57832640D01*
X24249416Y-57805062D01*
X24255671Y-57784443D01*
X24265824Y-57765447D01*
X24279492Y-57748792D01*
X24296147Y-57735124D01*
X24315143Y-57724971D01*
X24335762Y-57718716D01*
X24363340Y-57716000D01*
X24872060Y-57716000D01*
X24899638Y-57718716D01*
X24899638Y-57718716D01*
G37*
G36*
X45432200Y-58295500D02*
G01*
X43933200Y-58295500D01*
X43933200Y-49395500D01*
X45432200Y-49395500D01*
X45432200Y-58295500D01*
X45432200Y-58295500D01*
G37*
G36*
X52744200Y-58295500D02*
G01*
X51245200Y-58295500D01*
X51245200Y-49395500D01*
X52744200Y-49395500D01*
X52744200Y-58295500D01*
X52744200Y-58295500D01*
G37*
G36*
X54317938Y-57355216D02*
G01*
X54338557Y-57361471D01*
X54357553Y-57371624D01*
X54374208Y-57385292D01*
X54387876Y-57401947D01*
X54398029Y-57420943D01*
X54404284Y-57441562D01*
X54407000Y-57469140D01*
X54407000Y-57927860D01*
X54404284Y-57955438D01*
X54398029Y-57976057D01*
X54387876Y-57995053D01*
X54374208Y-58011708D01*
X54357553Y-58025376D01*
X54338557Y-58035529D01*
X54317938Y-58041784D01*
X54290360Y-58044500D01*
X53781640Y-58044500D01*
X53754062Y-58041784D01*
X53733443Y-58035529D01*
X53714447Y-58025376D01*
X53697792Y-58011708D01*
X53684124Y-57995053D01*
X53673971Y-57976057D01*
X53667716Y-57955438D01*
X53665000Y-57927860D01*
X53665000Y-57469140D01*
X53667716Y-57441562D01*
X53673971Y-57420943D01*
X53684124Y-57401947D01*
X53697792Y-57385292D01*
X53714447Y-57371624D01*
X53733443Y-57361471D01*
X53754062Y-57355216D01*
X53781640Y-57352500D01*
X54290360Y-57352500D01*
X54317938Y-57355216D01*
X54317938Y-57355216D01*
G37*
G36*
X54317938Y-56385216D02*
G01*
X54338557Y-56391471D01*
X54357553Y-56401624D01*
X54374208Y-56415292D01*
X54387876Y-56431947D01*
X54398029Y-56450943D01*
X54404284Y-56471562D01*
X54407000Y-56499140D01*
X54407000Y-56957860D01*
X54404284Y-56985438D01*
X54398029Y-57006057D01*
X54387876Y-57025053D01*
X54374208Y-57041708D01*
X54357553Y-57055376D01*
X54338557Y-57065529D01*
X54317938Y-57071784D01*
X54290360Y-57074500D01*
X53781640Y-57074500D01*
X53754062Y-57071784D01*
X53733443Y-57065529D01*
X53714447Y-57055376D01*
X53697792Y-57041708D01*
X53684124Y-57025053D01*
X53673971Y-57006057D01*
X53667716Y-56985438D01*
X53665000Y-56957860D01*
X53665000Y-56499140D01*
X53667716Y-56471562D01*
X53673971Y-56450943D01*
X53684124Y-56431947D01*
X53697792Y-56415292D01*
X53714447Y-56401624D01*
X53733443Y-56391471D01*
X53754062Y-56385216D01*
X53781640Y-56382500D01*
X54290360Y-56382500D01*
X54317938Y-56385216D01*
X54317938Y-56385216D01*
G37*
G36*
X19110443Y-54185519D02*
G01*
X19176627Y-54192037D01*
X19346466Y-54243557D01*
X19346468Y-54243558D01*
X19396195Y-54270138D01*
X19502991Y-54327222D01*
X19531025Y-54350229D01*
X19640186Y-54439814D01*
X19722208Y-54539760D01*
X19752778Y-54577009D01*
X19836443Y-54733534D01*
X19887963Y-54903373D01*
X19905359Y-55080000D01*
X19887963Y-55256627D01*
X19836443Y-55426466D01*
X19752778Y-55582991D01*
X19727960Y-55613231D01*
X19640186Y-55720186D01*
X19538729Y-55803448D01*
X19502991Y-55832778D01*
X19346466Y-55916443D01*
X19176627Y-55967963D01*
X19110442Y-55974482D01*
X19044260Y-55981000D01*
X18955740Y-55981000D01*
X18889558Y-55974482D01*
X18823373Y-55967963D01*
X18653534Y-55916443D01*
X18497009Y-55832778D01*
X18461271Y-55803448D01*
X18359814Y-55720186D01*
X18272040Y-55613231D01*
X18247222Y-55582991D01*
X18163557Y-55426466D01*
X18112037Y-55256627D01*
X18094641Y-55080000D01*
X18112037Y-54903373D01*
X18163557Y-54733534D01*
X18247222Y-54577009D01*
X18277792Y-54539760D01*
X18359814Y-54439814D01*
X18468975Y-54350229D01*
X18497009Y-54327222D01*
X18603805Y-54270138D01*
X18653532Y-54243558D01*
X18653534Y-54243557D01*
X18823373Y-54192037D01*
X18889557Y-54185519D01*
X18955740Y-54179000D01*
X19044260Y-54179000D01*
X19110443Y-54185519D01*
X19110443Y-54185519D01*
G37*
G36*
X59750443Y-54185519D02*
G01*
X59816627Y-54192037D01*
X59986466Y-54243557D01*
X59986468Y-54243558D01*
X60036195Y-54270138D01*
X60142991Y-54327222D01*
X60171025Y-54350229D01*
X60280186Y-54439814D01*
X60362208Y-54539760D01*
X60392778Y-54577009D01*
X60476443Y-54733534D01*
X60527963Y-54903373D01*
X60545359Y-55080000D01*
X60527963Y-55256627D01*
X60476443Y-55426466D01*
X60392778Y-55582991D01*
X60367960Y-55613231D01*
X60280186Y-55720186D01*
X60178729Y-55803448D01*
X60142991Y-55832778D01*
X59986466Y-55916443D01*
X59816627Y-55967963D01*
X59750442Y-55974482D01*
X59684260Y-55981000D01*
X59595740Y-55981000D01*
X59529558Y-55974482D01*
X59463373Y-55967963D01*
X59293534Y-55916443D01*
X59137009Y-55832778D01*
X59101271Y-55803448D01*
X58999814Y-55720186D01*
X58912040Y-55613231D01*
X58887222Y-55582991D01*
X58803557Y-55426466D01*
X58752037Y-55256627D01*
X58734641Y-55080000D01*
X58752037Y-54903373D01*
X58803557Y-54733534D01*
X58887222Y-54577009D01*
X58917792Y-54539760D01*
X58999814Y-54439814D01*
X59108975Y-54350229D01*
X59137009Y-54327222D01*
X59243805Y-54270138D01*
X59293532Y-54243558D01*
X59293534Y-54243557D01*
X59463373Y-54192037D01*
X59529557Y-54185519D01*
X59595740Y-54179000D01*
X59684260Y-54179000D01*
X59750443Y-54185519D01*
X59750443Y-54185519D01*
G37*
G36*
X62290443Y-54185519D02*
G01*
X62356627Y-54192037D01*
X62526466Y-54243557D01*
X62526468Y-54243558D01*
X62576195Y-54270138D01*
X62682991Y-54327222D01*
X62711025Y-54350229D01*
X62820186Y-54439814D01*
X62902208Y-54539760D01*
X62932778Y-54577009D01*
X63016443Y-54733534D01*
X63067963Y-54903373D01*
X63085359Y-55080000D01*
X63067963Y-55256627D01*
X63016443Y-55426466D01*
X62932778Y-55582991D01*
X62907960Y-55613231D01*
X62820186Y-55720186D01*
X62718729Y-55803448D01*
X62682991Y-55832778D01*
X62526466Y-55916443D01*
X62356627Y-55967963D01*
X62290442Y-55974482D01*
X62224260Y-55981000D01*
X62135740Y-55981000D01*
X62069558Y-55974482D01*
X62003373Y-55967963D01*
X61833534Y-55916443D01*
X61677009Y-55832778D01*
X61641271Y-55803448D01*
X61539814Y-55720186D01*
X61452040Y-55613231D01*
X61427222Y-55582991D01*
X61343557Y-55426466D01*
X61292037Y-55256627D01*
X61274641Y-55080000D01*
X61292037Y-54903373D01*
X61343557Y-54733534D01*
X61427222Y-54577009D01*
X61457792Y-54539760D01*
X61539814Y-54439814D01*
X61648975Y-54350229D01*
X61677009Y-54327222D01*
X61783805Y-54270138D01*
X61833532Y-54243558D01*
X61833534Y-54243557D01*
X62003373Y-54192037D01*
X62069557Y-54185519D01*
X62135740Y-54179000D01*
X62224260Y-54179000D01*
X62290443Y-54185519D01*
X62290443Y-54185519D01*
G37*
G36*
X21650443Y-54185519D02*
G01*
X21716627Y-54192037D01*
X21886466Y-54243557D01*
X21886468Y-54243558D01*
X21936195Y-54270138D01*
X22042991Y-54327222D01*
X22071025Y-54350229D01*
X22180186Y-54439814D01*
X22262208Y-54539760D01*
X22292778Y-54577009D01*
X22376443Y-54733534D01*
X22427963Y-54903373D01*
X22445359Y-55080000D01*
X22427963Y-55256627D01*
X22376443Y-55426466D01*
X22292778Y-55582991D01*
X22267960Y-55613231D01*
X22180186Y-55720186D01*
X22078729Y-55803448D01*
X22042991Y-55832778D01*
X21886466Y-55916443D01*
X21716627Y-55967963D01*
X21650442Y-55974482D01*
X21584260Y-55981000D01*
X21495740Y-55981000D01*
X21429558Y-55974482D01*
X21363373Y-55967963D01*
X21193534Y-55916443D01*
X21037009Y-55832778D01*
X21001271Y-55803448D01*
X20899814Y-55720186D01*
X20812040Y-55613231D01*
X20787222Y-55582991D01*
X20703557Y-55426466D01*
X20652037Y-55256627D01*
X20634641Y-55080000D01*
X20652037Y-54903373D01*
X20703557Y-54733534D01*
X20787222Y-54577009D01*
X20817792Y-54539760D01*
X20899814Y-54439814D01*
X21008975Y-54350229D01*
X21037009Y-54327222D01*
X21143805Y-54270138D01*
X21193532Y-54243558D01*
X21193534Y-54243557D01*
X21363373Y-54192037D01*
X21429557Y-54185519D01*
X21495740Y-54179000D01*
X21584260Y-54179000D01*
X21650443Y-54185519D01*
X21650443Y-54185519D01*
G37*
G36*
X54407891Y-54811485D02*
G01*
X54441869Y-54821793D01*
X54473190Y-54838534D01*
X54500639Y-54861061D01*
X54523166Y-54888510D01*
X54539907Y-54919831D01*
X54550215Y-54953809D01*
X54554300Y-54995290D01*
X54554300Y-55596510D01*
X54550215Y-55637991D01*
X54539907Y-55671969D01*
X54523166Y-55703290D01*
X54500639Y-55730739D01*
X54473190Y-55753266D01*
X54441869Y-55770007D01*
X54407891Y-55780315D01*
X54366410Y-55784400D01*
X53690190Y-55784400D01*
X53648709Y-55780315D01*
X53614731Y-55770007D01*
X53583410Y-55753266D01*
X53555961Y-55730739D01*
X53533434Y-55703290D01*
X53516693Y-55671969D01*
X53506385Y-55637991D01*
X53502300Y-55596510D01*
X53502300Y-54995290D01*
X53506385Y-54953809D01*
X53516693Y-54919831D01*
X53533434Y-54888510D01*
X53555961Y-54861061D01*
X53583410Y-54838534D01*
X53614731Y-54821793D01*
X53648709Y-54811485D01*
X53690190Y-54807400D01*
X54366410Y-54807400D01*
X54407891Y-54811485D01*
X54407891Y-54811485D01*
G37*
G36*
X55692038Y-54937116D02*
G01*
X55712657Y-54943371D01*
X55731653Y-54953524D01*
X55748308Y-54967192D01*
X55761976Y-54983847D01*
X55772129Y-55002843D01*
X55778384Y-55023462D01*
X55781100Y-55051040D01*
X55781100Y-55509760D01*
X55778384Y-55537338D01*
X55772129Y-55557957D01*
X55761976Y-55576953D01*
X55748308Y-55593608D01*
X55731653Y-55607276D01*
X55712657Y-55617429D01*
X55692038Y-55623684D01*
X55664460Y-55626400D01*
X55155740Y-55626400D01*
X55128162Y-55623684D01*
X55107543Y-55617429D01*
X55088547Y-55607276D01*
X55071892Y-55593608D01*
X55058224Y-55576953D01*
X55048071Y-55557957D01*
X55041816Y-55537338D01*
X55039100Y-55509760D01*
X55039100Y-55051040D01*
X55041816Y-55023462D01*
X55048071Y-55002843D01*
X55058224Y-54983847D01*
X55071892Y-54967192D01*
X55088547Y-54953524D01*
X55107543Y-54943371D01*
X55128162Y-54937116D01*
X55155740Y-54934400D01*
X55664460Y-54934400D01*
X55692038Y-54937116D01*
X55692038Y-54937116D01*
G37*
G36*
X40543438Y-54639916D02*
G01*
X40564057Y-54646171D01*
X40583053Y-54656324D01*
X40599708Y-54669992D01*
X40613376Y-54686647D01*
X40623529Y-54705643D01*
X40629784Y-54726262D01*
X40632500Y-54753840D01*
X40632500Y-55212560D01*
X40629784Y-55240138D01*
X40623529Y-55260757D01*
X40613376Y-55279753D01*
X40599708Y-55296408D01*
X40583053Y-55310076D01*
X40564057Y-55320229D01*
X40543438Y-55326484D01*
X40515860Y-55329200D01*
X40007140Y-55329200D01*
X39979562Y-55326484D01*
X39958943Y-55320229D01*
X39939947Y-55310076D01*
X39923292Y-55296408D01*
X39909624Y-55279753D01*
X39899471Y-55260757D01*
X39893216Y-55240138D01*
X39890500Y-55212560D01*
X39890500Y-54753840D01*
X39893216Y-54726262D01*
X39899471Y-54705643D01*
X39909624Y-54686647D01*
X39923292Y-54669992D01*
X39939947Y-54656324D01*
X39958943Y-54646171D01*
X39979562Y-54639916D01*
X40007140Y-54637200D01*
X40515860Y-54637200D01*
X40543438Y-54639916D01*
X40543438Y-54639916D01*
G37*
G36*
X55692038Y-53967116D02*
G01*
X55712657Y-53973371D01*
X55731653Y-53983524D01*
X55748308Y-53997192D01*
X55761976Y-54013847D01*
X55772129Y-54032843D01*
X55778384Y-54053462D01*
X55781100Y-54081040D01*
X55781100Y-54539760D01*
X55778384Y-54567338D01*
X55772129Y-54587957D01*
X55761976Y-54606953D01*
X55748308Y-54623608D01*
X55731653Y-54637276D01*
X55712657Y-54647429D01*
X55692038Y-54653684D01*
X55664460Y-54656400D01*
X55155740Y-54656400D01*
X55128162Y-54653684D01*
X55107543Y-54647429D01*
X55088547Y-54637276D01*
X55071892Y-54623608D01*
X55058224Y-54606953D01*
X55048071Y-54587957D01*
X55041816Y-54567338D01*
X55039100Y-54539760D01*
X55039100Y-54081040D01*
X55041816Y-54053462D01*
X55048071Y-54032843D01*
X55058224Y-54013847D01*
X55071892Y-53997192D01*
X55088547Y-53983524D01*
X55107543Y-53973371D01*
X55128162Y-53967116D01*
X55155740Y-53964400D01*
X55664460Y-53964400D01*
X55692038Y-53967116D01*
X55692038Y-53967116D01*
G37*
G36*
X40543438Y-53669916D02*
G01*
X40564057Y-53676171D01*
X40583053Y-53686324D01*
X40599708Y-53699992D01*
X40613376Y-53716647D01*
X40623529Y-53735643D01*
X40629784Y-53756262D01*
X40632500Y-53783840D01*
X40632500Y-54242560D01*
X40629784Y-54270138D01*
X40623529Y-54290757D01*
X40613376Y-54309753D01*
X40599708Y-54326408D01*
X40583053Y-54340076D01*
X40564057Y-54350229D01*
X40543438Y-54356484D01*
X40515860Y-54359200D01*
X40007140Y-54359200D01*
X39979562Y-54356484D01*
X39958943Y-54350229D01*
X39939947Y-54340076D01*
X39923292Y-54326408D01*
X39909624Y-54309753D01*
X39899471Y-54290757D01*
X39893216Y-54270138D01*
X39890500Y-54242560D01*
X39890500Y-53783840D01*
X39893216Y-53756262D01*
X39899471Y-53735643D01*
X39909624Y-53716647D01*
X39923292Y-53699992D01*
X39939947Y-53686324D01*
X39958943Y-53676171D01*
X39979562Y-53669916D01*
X40007140Y-53667200D01*
X40515860Y-53667200D01*
X40543438Y-53669916D01*
X40543438Y-53669916D01*
G37*
G36*
X54407891Y-53236485D02*
G01*
X54441869Y-53246793D01*
X54473190Y-53263534D01*
X54500639Y-53286061D01*
X54523166Y-53313510D01*
X54539907Y-53344831D01*
X54550215Y-53378809D01*
X54554300Y-53420290D01*
X54554300Y-54021510D01*
X54550215Y-54062991D01*
X54539907Y-54096969D01*
X54523166Y-54128290D01*
X54500639Y-54155739D01*
X54473190Y-54178266D01*
X54441869Y-54195007D01*
X54407891Y-54205315D01*
X54366410Y-54209400D01*
X53690190Y-54209400D01*
X53648709Y-54205315D01*
X53614731Y-54195007D01*
X53583410Y-54178266D01*
X53555961Y-54155739D01*
X53533434Y-54128290D01*
X53516693Y-54096969D01*
X53506385Y-54062991D01*
X53502300Y-54021510D01*
X53502300Y-53420290D01*
X53506385Y-53378809D01*
X53516693Y-53344831D01*
X53533434Y-53313510D01*
X53555961Y-53286061D01*
X53583410Y-53263534D01*
X53614731Y-53246793D01*
X53648709Y-53236485D01*
X53690190Y-53232400D01*
X54366410Y-53232400D01*
X54407891Y-53236485D01*
X54407891Y-53236485D01*
G37*
G36*
X19110443Y-51645519D02*
G01*
X19176627Y-51652037D01*
X19346466Y-51703557D01*
X19502991Y-51787222D01*
X19538729Y-51816552D01*
X19640186Y-51899814D01*
X19718712Y-51995500D01*
X19752778Y-52037009D01*
X19836443Y-52193534D01*
X19887963Y-52363373D01*
X19905359Y-52540000D01*
X19887963Y-52716627D01*
X19836443Y-52886466D01*
X19752778Y-53042991D01*
X19723448Y-53078729D01*
X19640186Y-53180186D01*
X19553907Y-53250992D01*
X19502991Y-53292778D01*
X19346466Y-53376443D01*
X19176627Y-53427963D01*
X19110443Y-53434481D01*
X19044260Y-53441000D01*
X18955740Y-53441000D01*
X18889557Y-53434481D01*
X18823373Y-53427963D01*
X18653534Y-53376443D01*
X18497009Y-53292778D01*
X18446093Y-53250992D01*
X18359814Y-53180186D01*
X18276552Y-53078729D01*
X18247222Y-53042991D01*
X18163557Y-52886466D01*
X18112037Y-52716627D01*
X18094641Y-52540000D01*
X18112037Y-52363373D01*
X18163557Y-52193534D01*
X18247222Y-52037009D01*
X18281288Y-51995500D01*
X18359814Y-51899814D01*
X18461271Y-51816552D01*
X18497009Y-51787222D01*
X18653534Y-51703557D01*
X18823373Y-51652037D01*
X18889557Y-51645519D01*
X18955740Y-51639000D01*
X19044260Y-51639000D01*
X19110443Y-51645519D01*
X19110443Y-51645519D01*
G37*
G36*
X62290443Y-51645519D02*
G01*
X62356627Y-51652037D01*
X62526466Y-51703557D01*
X62682991Y-51787222D01*
X62718729Y-51816552D01*
X62820186Y-51899814D01*
X62898712Y-51995500D01*
X62932778Y-52037009D01*
X63016443Y-52193534D01*
X63067963Y-52363373D01*
X63085359Y-52540000D01*
X63067963Y-52716627D01*
X63016443Y-52886466D01*
X62932778Y-53042991D01*
X62903448Y-53078729D01*
X62820186Y-53180186D01*
X62733907Y-53250992D01*
X62682991Y-53292778D01*
X62526466Y-53376443D01*
X62356627Y-53427963D01*
X62290443Y-53434481D01*
X62224260Y-53441000D01*
X62135740Y-53441000D01*
X62069557Y-53434481D01*
X62003373Y-53427963D01*
X61833534Y-53376443D01*
X61677009Y-53292778D01*
X61626093Y-53250992D01*
X61539814Y-53180186D01*
X61456552Y-53078729D01*
X61427222Y-53042991D01*
X61343557Y-52886466D01*
X61292037Y-52716627D01*
X61274641Y-52540000D01*
X61292037Y-52363373D01*
X61343557Y-52193534D01*
X61427222Y-52037009D01*
X61461288Y-51995500D01*
X61539814Y-51899814D01*
X61641271Y-51816552D01*
X61677009Y-51787222D01*
X61833534Y-51703557D01*
X62003373Y-51652037D01*
X62069557Y-51645519D01*
X62135740Y-51639000D01*
X62224260Y-51639000D01*
X62290443Y-51645519D01*
X62290443Y-51645519D01*
G37*
G36*
X59750443Y-51645519D02*
G01*
X59816627Y-51652037D01*
X59986466Y-51703557D01*
X60142991Y-51787222D01*
X60178729Y-51816552D01*
X60280186Y-51899814D01*
X60358712Y-51995500D01*
X60392778Y-52037009D01*
X60476443Y-52193534D01*
X60527963Y-52363373D01*
X60545359Y-52540000D01*
X60527963Y-52716627D01*
X60476443Y-52886466D01*
X60392778Y-53042991D01*
X60363448Y-53078729D01*
X60280186Y-53180186D01*
X60193907Y-53250992D01*
X60142991Y-53292778D01*
X59986466Y-53376443D01*
X59816627Y-53427963D01*
X59750443Y-53434481D01*
X59684260Y-53441000D01*
X59595740Y-53441000D01*
X59529557Y-53434481D01*
X59463373Y-53427963D01*
X59293534Y-53376443D01*
X59137009Y-53292778D01*
X59086093Y-53250992D01*
X58999814Y-53180186D01*
X58916552Y-53078729D01*
X58887222Y-53042991D01*
X58803557Y-52886466D01*
X58752037Y-52716627D01*
X58734641Y-52540000D01*
X58752037Y-52363373D01*
X58803557Y-52193534D01*
X58887222Y-52037009D01*
X58921288Y-51995500D01*
X58999814Y-51899814D01*
X59101271Y-51816552D01*
X59137009Y-51787222D01*
X59293534Y-51703557D01*
X59463373Y-51652037D01*
X59529557Y-51645519D01*
X59595740Y-51639000D01*
X59684260Y-51639000D01*
X59750443Y-51645519D01*
X59750443Y-51645519D01*
G37*
G36*
X21650443Y-51645519D02*
G01*
X21716627Y-51652037D01*
X21886466Y-51703557D01*
X22042991Y-51787222D01*
X22078729Y-51816552D01*
X22180186Y-51899814D01*
X22258712Y-51995500D01*
X22292778Y-52037009D01*
X22376443Y-52193534D01*
X22427963Y-52363373D01*
X22445359Y-52540000D01*
X22427963Y-52716627D01*
X22376443Y-52886466D01*
X22292778Y-53042991D01*
X22263448Y-53078729D01*
X22180186Y-53180186D01*
X22093907Y-53250992D01*
X22042991Y-53292778D01*
X21886466Y-53376443D01*
X21716627Y-53427963D01*
X21650443Y-53434481D01*
X21584260Y-53441000D01*
X21495740Y-53441000D01*
X21429557Y-53434481D01*
X21363373Y-53427963D01*
X21193534Y-53376443D01*
X21037009Y-53292778D01*
X20986093Y-53250992D01*
X20899814Y-53180186D01*
X20816552Y-53078729D01*
X20787222Y-53042991D01*
X20703557Y-52886466D01*
X20652037Y-52716627D01*
X20634641Y-52540000D01*
X20652037Y-52363373D01*
X20703557Y-52193534D01*
X20787222Y-52037009D01*
X20821288Y-51995500D01*
X20899814Y-51899814D01*
X21001271Y-51816552D01*
X21037009Y-51787222D01*
X21193534Y-51703557D01*
X21363373Y-51652037D01*
X21429557Y-51645519D01*
X21495740Y-51639000D01*
X21584260Y-51639000D01*
X21650443Y-51645519D01*
X21650443Y-51645519D01*
G37*
G36*
X36881200Y-51567700D02*
G01*
X28229200Y-51567700D01*
X28229200Y-49965700D01*
X36881200Y-49965700D01*
X36881200Y-51567700D01*
X36881200Y-51567700D01*
G37*
G36*
X60541000Y-50901000D02*
G01*
X58739000Y-50901000D01*
X58739000Y-49099000D01*
X60541000Y-49099000D01*
X60541000Y-50901000D01*
X60541000Y-50901000D01*
G37*
G36*
X62290443Y-49105519D02*
G01*
X62356627Y-49112037D01*
X62526466Y-49163557D01*
X62682991Y-49247222D01*
X62714250Y-49272876D01*
X62820186Y-49359814D01*
X62903448Y-49461271D01*
X62932778Y-49497009D01*
X63016443Y-49653534D01*
X63067963Y-49823373D01*
X63085359Y-50000000D01*
X63067963Y-50176627D01*
X63016443Y-50346466D01*
X62932778Y-50502991D01*
X62903448Y-50538729D01*
X62820186Y-50640186D01*
X62718729Y-50723448D01*
X62682991Y-50752778D01*
X62526466Y-50836443D01*
X62356627Y-50887963D01*
X62290443Y-50894481D01*
X62224260Y-50901000D01*
X62135740Y-50901000D01*
X62069557Y-50894481D01*
X62003373Y-50887963D01*
X61833534Y-50836443D01*
X61677009Y-50752778D01*
X61641271Y-50723448D01*
X61539814Y-50640186D01*
X61456552Y-50538729D01*
X61427222Y-50502991D01*
X61343557Y-50346466D01*
X61292037Y-50176627D01*
X61274641Y-50000000D01*
X61292037Y-49823373D01*
X61343557Y-49653534D01*
X61427222Y-49497009D01*
X61456552Y-49461271D01*
X61539814Y-49359814D01*
X61645750Y-49272876D01*
X61677009Y-49247222D01*
X61833534Y-49163557D01*
X62003373Y-49112037D01*
X62069557Y-49105519D01*
X62135740Y-49099000D01*
X62224260Y-49099000D01*
X62290443Y-49105519D01*
X62290443Y-49105519D01*
G37*
G36*
X19901000Y-50901000D02*
G01*
X18099000Y-50901000D01*
X18099000Y-49099000D01*
X19901000Y-49099000D01*
X19901000Y-50901000D01*
X19901000Y-50901000D01*
G37*
G36*
X21650443Y-49105519D02*
G01*
X21716627Y-49112037D01*
X21886466Y-49163557D01*
X22042991Y-49247222D01*
X22074250Y-49272876D01*
X22180186Y-49359814D01*
X22263448Y-49461271D01*
X22292778Y-49497009D01*
X22376443Y-49653534D01*
X22427963Y-49823373D01*
X22445359Y-50000000D01*
X22427963Y-50176627D01*
X22376443Y-50346466D01*
X22292778Y-50502991D01*
X22263448Y-50538729D01*
X22180186Y-50640186D01*
X22078729Y-50723448D01*
X22042991Y-50752778D01*
X21886466Y-50836443D01*
X21716627Y-50887963D01*
X21650443Y-50894481D01*
X21584260Y-50901000D01*
X21495740Y-50901000D01*
X21429557Y-50894481D01*
X21363373Y-50887963D01*
X21193534Y-50836443D01*
X21037009Y-50752778D01*
X21001271Y-50723448D01*
X20899814Y-50640186D01*
X20816552Y-50538729D01*
X20787222Y-50502991D01*
X20703557Y-50346466D01*
X20652037Y-50176627D01*
X20634641Y-50000000D01*
X20652037Y-49823373D01*
X20703557Y-49653534D01*
X20787222Y-49497009D01*
X20816552Y-49461271D01*
X20899814Y-49359814D01*
X21005750Y-49272876D01*
X21037009Y-49247222D01*
X21193534Y-49163557D01*
X21363373Y-49112037D01*
X21429557Y-49105519D01*
X21495740Y-49099000D01*
X21584260Y-49099000D01*
X21650443Y-49105519D01*
X21650443Y-49105519D01*
G37*
G36*
X35042338Y-48557216D02*
G01*
X35062957Y-48563471D01*
X35081953Y-48573624D01*
X35098608Y-48587292D01*
X35112276Y-48603947D01*
X35122429Y-48622943D01*
X35128684Y-48643562D01*
X35131400Y-48671140D01*
X35131400Y-49179860D01*
X35128684Y-49207438D01*
X35122429Y-49228057D01*
X35112276Y-49247053D01*
X35098608Y-49263708D01*
X35081953Y-49277376D01*
X35062957Y-49287529D01*
X35042338Y-49293784D01*
X35014760Y-49296500D01*
X34556040Y-49296500D01*
X34528462Y-49293784D01*
X34507843Y-49287529D01*
X34488847Y-49277376D01*
X34472192Y-49263708D01*
X34458524Y-49247053D01*
X34448371Y-49228057D01*
X34442116Y-49207438D01*
X34439400Y-49179860D01*
X34439400Y-48671140D01*
X34442116Y-48643562D01*
X34448371Y-48622943D01*
X34458524Y-48603947D01*
X34472192Y-48587292D01*
X34488847Y-48573624D01*
X34507843Y-48563471D01*
X34528462Y-48557216D01*
X34556040Y-48554500D01*
X35014760Y-48554500D01*
X35042338Y-48557216D01*
X35042338Y-48557216D01*
G37*
G36*
X36012338Y-48557216D02*
G01*
X36032957Y-48563471D01*
X36051953Y-48573624D01*
X36068608Y-48587292D01*
X36082276Y-48603947D01*
X36092429Y-48622943D01*
X36098684Y-48643562D01*
X36101400Y-48671140D01*
X36101400Y-49179860D01*
X36098684Y-49207438D01*
X36092429Y-49228057D01*
X36082276Y-49247053D01*
X36068608Y-49263708D01*
X36051953Y-49277376D01*
X36032957Y-49287529D01*
X36012338Y-49293784D01*
X35984760Y-49296500D01*
X35526040Y-49296500D01*
X35498462Y-49293784D01*
X35477843Y-49287529D01*
X35458847Y-49277376D01*
X35442192Y-49263708D01*
X35428524Y-49247053D01*
X35418371Y-49228057D01*
X35412116Y-49207438D01*
X35409400Y-49179860D01*
X35409400Y-48671140D01*
X35412116Y-48643562D01*
X35418371Y-48622943D01*
X35428524Y-48603947D01*
X35442192Y-48587292D01*
X35458847Y-48573624D01*
X35477843Y-48563471D01*
X35498462Y-48557216D01*
X35526040Y-48554500D01*
X35984760Y-48554500D01*
X36012338Y-48557216D01*
X36012338Y-48557216D01*
G37*
G36*
X32705538Y-48536916D02*
G01*
X32726157Y-48543171D01*
X32745153Y-48553324D01*
X32761808Y-48566992D01*
X32775476Y-48583647D01*
X32785629Y-48602643D01*
X32791884Y-48623262D01*
X32794600Y-48650840D01*
X32794600Y-49159560D01*
X32791884Y-49187138D01*
X32785629Y-49207757D01*
X32775476Y-49226753D01*
X32761808Y-49243408D01*
X32745153Y-49257076D01*
X32726157Y-49267229D01*
X32705538Y-49273484D01*
X32677960Y-49276200D01*
X32219240Y-49276200D01*
X32191662Y-49273484D01*
X32171043Y-49267229D01*
X32152047Y-49257076D01*
X32135392Y-49243408D01*
X32121724Y-49226753D01*
X32111571Y-49207757D01*
X32105316Y-49187138D01*
X32102600Y-49159560D01*
X32102600Y-48650840D01*
X32105316Y-48623262D01*
X32111571Y-48602643D01*
X32121724Y-48583647D01*
X32135392Y-48566992D01*
X32152047Y-48553324D01*
X32171043Y-48543171D01*
X32191662Y-48536916D01*
X32219240Y-48534200D01*
X32677960Y-48534200D01*
X32705538Y-48536916D01*
X32705538Y-48536916D01*
G37*
G36*
X33675538Y-48536916D02*
G01*
X33696157Y-48543171D01*
X33715153Y-48553324D01*
X33731808Y-48566992D01*
X33745476Y-48583647D01*
X33755629Y-48602643D01*
X33761884Y-48623262D01*
X33764600Y-48650840D01*
X33764600Y-49159560D01*
X33761884Y-49187138D01*
X33755629Y-49207757D01*
X33745476Y-49226753D01*
X33731808Y-49243408D01*
X33715153Y-49257076D01*
X33696157Y-49267229D01*
X33675538Y-49273484D01*
X33647960Y-49276200D01*
X33189240Y-49276200D01*
X33161662Y-49273484D01*
X33141043Y-49267229D01*
X33122047Y-49257076D01*
X33105392Y-49243408D01*
X33091724Y-49226753D01*
X33081571Y-49207757D01*
X33075316Y-49187138D01*
X33072600Y-49159560D01*
X33072600Y-48650840D01*
X33075316Y-48623262D01*
X33081571Y-48602643D01*
X33091724Y-48583647D01*
X33105392Y-48566992D01*
X33122047Y-48553324D01*
X33141043Y-48543171D01*
X33161662Y-48536916D01*
X33189240Y-48534200D01*
X33647960Y-48534200D01*
X33675538Y-48536916D01*
X33675538Y-48536916D01*
G37*
M02*
