G04 #@! TF.GenerationSoftware,KiCad,Pcbnew,(5.1.0)-1*
G04 #@! TF.CreationDate,2020-09-16T11:17:04+02:00*
G04 #@! TF.ProjectId,Nand Lite,4e616e64-204c-4697-9465-2e6b69636164,rev?*
G04 #@! TF.SameCoordinates,Original*
G04 #@! TF.FileFunction,Soldermask,Bot*
G04 #@! TF.FilePolarity,Negative*
%FSLAX46Y46*%
G04 Gerber Fmt 4.6, Leading zero omitted, Abs format (unit mm)*
G04 Created by KiCad (PCBNEW (5.1.0)-1) date 2020-09-16 11:17:04*
%MOMM*%
%LPD*%
G04 APERTURE LIST*
%ADD10C,0.100000*%
G04 APERTURE END LIST*
D10*
G36*
X43072042Y-80738618D02*
G01*
X43138227Y-80745137D01*
X43308066Y-80796657D01*
X43464591Y-80880322D01*
X43500329Y-80909652D01*
X43601786Y-80992914D01*
X43685048Y-81094371D01*
X43714378Y-81130109D01*
X43798043Y-81286634D01*
X43849563Y-81456473D01*
X43866959Y-81633100D01*
X43849563Y-81809727D01*
X43798043Y-81979566D01*
X43714378Y-82136091D01*
X43685048Y-82171829D01*
X43601786Y-82273286D01*
X43500329Y-82356548D01*
X43464591Y-82385878D01*
X43308066Y-82469543D01*
X43138227Y-82521063D01*
X43072042Y-82527582D01*
X43005860Y-82534100D01*
X42917340Y-82534100D01*
X42851158Y-82527582D01*
X42784973Y-82521063D01*
X42615134Y-82469543D01*
X42458609Y-82385878D01*
X42422871Y-82356548D01*
X42321414Y-82273286D01*
X42238152Y-82171829D01*
X42208822Y-82136091D01*
X42125157Y-81979566D01*
X42073637Y-81809727D01*
X42056241Y-81633100D01*
X42073637Y-81456473D01*
X42125157Y-81286634D01*
X42208822Y-81130109D01*
X42238152Y-81094371D01*
X42321414Y-80992914D01*
X42422871Y-80909652D01*
X42458609Y-80880322D01*
X42615134Y-80796657D01*
X42784973Y-80745137D01*
X42851158Y-80738618D01*
X42917340Y-80732100D01*
X43005860Y-80732100D01*
X43072042Y-80738618D01*
X43072042Y-80738618D01*
G37*
G36*
X39242540Y-80732100D02*
G01*
X39323127Y-80740037D01*
X39492966Y-80791557D01*
X39649491Y-80875222D01*
X39655705Y-80880322D01*
X39786686Y-80987814D01*
X39869948Y-81089271D01*
X39899278Y-81125009D01*
X39982943Y-81281534D01*
X40034463Y-81451373D01*
X40051859Y-81628000D01*
X40034463Y-81804627D01*
X39982943Y-81974466D01*
X39899278Y-82130991D01*
X39869948Y-82166729D01*
X39786686Y-82268186D01*
X39685229Y-82351448D01*
X39649491Y-82380778D01*
X39492966Y-82464443D01*
X39323127Y-82515963D01*
X39271345Y-82521063D01*
X39190760Y-82529000D01*
X39102240Y-82529000D01*
X39021655Y-82521063D01*
X38969873Y-82515963D01*
X38800034Y-82464443D01*
X38643509Y-82380778D01*
X38607771Y-82351448D01*
X38506314Y-82268186D01*
X38423052Y-82166729D01*
X38393722Y-82130991D01*
X38310057Y-81974466D01*
X38258537Y-81804627D01*
X38241141Y-81628000D01*
X38258537Y-81451373D01*
X38310057Y-81281534D01*
X38393722Y-81125009D01*
X38423052Y-81089271D01*
X38506314Y-80987814D01*
X38637295Y-80880322D01*
X38643509Y-80875222D01*
X38800034Y-80791557D01*
X38969873Y-80740037D01*
X39050460Y-80732100D01*
X39102240Y-80727000D01*
X39190760Y-80727000D01*
X39242540Y-80732100D01*
X39242540Y-80732100D01*
G37*
G36*
X43072042Y-78198618D02*
G01*
X43138227Y-78205137D01*
X43308066Y-78256657D01*
X43464591Y-78340322D01*
X43500329Y-78369652D01*
X43601786Y-78452914D01*
X43685048Y-78554371D01*
X43714378Y-78590109D01*
X43798043Y-78746634D01*
X43849563Y-78916473D01*
X43866959Y-79093100D01*
X43849563Y-79269727D01*
X43798043Y-79439566D01*
X43714378Y-79596091D01*
X43685048Y-79631829D01*
X43601786Y-79733286D01*
X43500329Y-79816548D01*
X43464591Y-79845878D01*
X43308066Y-79929543D01*
X43138227Y-79981063D01*
X43072043Y-79987581D01*
X43005860Y-79994100D01*
X42917340Y-79994100D01*
X42851157Y-79987581D01*
X42784973Y-79981063D01*
X42615134Y-79929543D01*
X42458609Y-79845878D01*
X42422871Y-79816548D01*
X42321414Y-79733286D01*
X42238152Y-79631829D01*
X42208822Y-79596091D01*
X42125157Y-79439566D01*
X42073637Y-79269727D01*
X42056241Y-79093100D01*
X42073637Y-78916473D01*
X42125157Y-78746634D01*
X42208822Y-78590109D01*
X42238152Y-78554371D01*
X42321414Y-78452914D01*
X42422871Y-78369652D01*
X42458609Y-78340322D01*
X42615134Y-78256657D01*
X42784973Y-78205137D01*
X42851158Y-78198618D01*
X42917340Y-78192100D01*
X43005860Y-78192100D01*
X43072042Y-78198618D01*
X43072042Y-78198618D01*
G37*
G36*
X39242540Y-78192100D02*
G01*
X39323127Y-78200037D01*
X39492966Y-78251557D01*
X39649491Y-78335222D01*
X39655705Y-78340322D01*
X39786686Y-78447814D01*
X39869948Y-78549271D01*
X39899278Y-78585009D01*
X39982943Y-78741534D01*
X40034463Y-78911373D01*
X40051859Y-79088000D01*
X40034463Y-79264627D01*
X39982943Y-79434466D01*
X39899278Y-79590991D01*
X39869948Y-79626729D01*
X39786686Y-79728186D01*
X39685229Y-79811448D01*
X39649491Y-79840778D01*
X39492966Y-79924443D01*
X39323127Y-79975963D01*
X39271345Y-79981063D01*
X39190760Y-79989000D01*
X39102240Y-79989000D01*
X39021655Y-79981063D01*
X38969873Y-79975963D01*
X38800034Y-79924443D01*
X38643509Y-79840778D01*
X38607771Y-79811448D01*
X38506314Y-79728186D01*
X38423052Y-79626729D01*
X38393722Y-79590991D01*
X38310057Y-79434466D01*
X38258537Y-79264627D01*
X38241141Y-79088000D01*
X38258537Y-78911373D01*
X38310057Y-78741534D01*
X38393722Y-78585009D01*
X38423052Y-78549271D01*
X38506314Y-78447814D01*
X38637295Y-78340322D01*
X38643509Y-78335222D01*
X38800034Y-78251557D01*
X38969873Y-78200037D01*
X39050460Y-78192100D01*
X39102240Y-78187000D01*
X39190760Y-78187000D01*
X39242540Y-78192100D01*
X39242540Y-78192100D01*
G37*
G36*
X59750442Y-77045518D02*
G01*
X59816627Y-77052037D01*
X59986466Y-77103557D01*
X60142991Y-77187222D01*
X60151335Y-77194070D01*
X60280186Y-77299814D01*
X60363058Y-77400795D01*
X60392778Y-77437009D01*
X60476443Y-77593534D01*
X60527963Y-77763373D01*
X60545359Y-77940000D01*
X60527963Y-78116627D01*
X60476443Y-78286466D01*
X60392778Y-78442991D01*
X60363448Y-78478729D01*
X60280186Y-78580186D01*
X60178729Y-78663448D01*
X60142991Y-78692778D01*
X59986466Y-78776443D01*
X59816627Y-78827963D01*
X59750443Y-78834481D01*
X59684260Y-78841000D01*
X59595740Y-78841000D01*
X59529557Y-78834481D01*
X59463373Y-78827963D01*
X59293534Y-78776443D01*
X59137009Y-78692778D01*
X59101271Y-78663448D01*
X58999814Y-78580186D01*
X58916552Y-78478729D01*
X58887222Y-78442991D01*
X58803557Y-78286466D01*
X58752037Y-78116627D01*
X58734641Y-77940000D01*
X58752037Y-77763373D01*
X58803557Y-77593534D01*
X58887222Y-77437009D01*
X58916942Y-77400795D01*
X58999814Y-77299814D01*
X59128665Y-77194070D01*
X59137009Y-77187222D01*
X59293534Y-77103557D01*
X59463373Y-77052037D01*
X59529558Y-77045518D01*
X59595740Y-77039000D01*
X59684260Y-77039000D01*
X59750442Y-77045518D01*
X59750442Y-77045518D01*
G37*
G36*
X21650442Y-77045518D02*
G01*
X21716627Y-77052037D01*
X21886466Y-77103557D01*
X22042991Y-77187222D01*
X22051335Y-77194070D01*
X22180186Y-77299814D01*
X22263058Y-77400795D01*
X22292778Y-77437009D01*
X22376443Y-77593534D01*
X22427963Y-77763373D01*
X22445359Y-77940000D01*
X22427963Y-78116627D01*
X22376443Y-78286466D01*
X22292778Y-78442991D01*
X22263448Y-78478729D01*
X22180186Y-78580186D01*
X22078729Y-78663448D01*
X22042991Y-78692778D01*
X21886466Y-78776443D01*
X21716627Y-78827963D01*
X21650443Y-78834481D01*
X21584260Y-78841000D01*
X21495740Y-78841000D01*
X21429557Y-78834481D01*
X21363373Y-78827963D01*
X21193534Y-78776443D01*
X21037009Y-78692778D01*
X21001271Y-78663448D01*
X20899814Y-78580186D01*
X20816552Y-78478729D01*
X20787222Y-78442991D01*
X20703557Y-78286466D01*
X20652037Y-78116627D01*
X20634641Y-77940000D01*
X20652037Y-77763373D01*
X20703557Y-77593534D01*
X20787222Y-77437009D01*
X20816942Y-77400795D01*
X20899814Y-77299814D01*
X21028665Y-77194070D01*
X21037009Y-77187222D01*
X21193534Y-77103557D01*
X21363373Y-77052037D01*
X21429558Y-77045518D01*
X21495740Y-77039000D01*
X21584260Y-77039000D01*
X21650442Y-77045518D01*
X21650442Y-77045518D01*
G37*
G36*
X19110442Y-77045518D02*
G01*
X19176627Y-77052037D01*
X19346466Y-77103557D01*
X19502991Y-77187222D01*
X19511335Y-77194070D01*
X19640186Y-77299814D01*
X19723058Y-77400795D01*
X19752778Y-77437009D01*
X19836443Y-77593534D01*
X19887963Y-77763373D01*
X19905359Y-77940000D01*
X19887963Y-78116627D01*
X19836443Y-78286466D01*
X19752778Y-78442991D01*
X19723448Y-78478729D01*
X19640186Y-78580186D01*
X19538729Y-78663448D01*
X19502991Y-78692778D01*
X19346466Y-78776443D01*
X19176627Y-78827963D01*
X19110443Y-78834481D01*
X19044260Y-78841000D01*
X18955740Y-78841000D01*
X18889557Y-78834481D01*
X18823373Y-78827963D01*
X18653534Y-78776443D01*
X18497009Y-78692778D01*
X18461271Y-78663448D01*
X18359814Y-78580186D01*
X18276552Y-78478729D01*
X18247222Y-78442991D01*
X18163557Y-78286466D01*
X18112037Y-78116627D01*
X18094641Y-77940000D01*
X18112037Y-77763373D01*
X18163557Y-77593534D01*
X18247222Y-77437009D01*
X18276942Y-77400795D01*
X18359814Y-77299814D01*
X18488665Y-77194070D01*
X18497009Y-77187222D01*
X18653534Y-77103557D01*
X18823373Y-77052037D01*
X18889558Y-77045518D01*
X18955740Y-77039000D01*
X19044260Y-77039000D01*
X19110442Y-77045518D01*
X19110442Y-77045518D01*
G37*
G36*
X62290442Y-77045518D02*
G01*
X62356627Y-77052037D01*
X62526466Y-77103557D01*
X62682991Y-77187222D01*
X62691335Y-77194070D01*
X62820186Y-77299814D01*
X62903058Y-77400795D01*
X62932778Y-77437009D01*
X63016443Y-77593534D01*
X63067963Y-77763373D01*
X63085359Y-77940000D01*
X63067963Y-78116627D01*
X63016443Y-78286466D01*
X62932778Y-78442991D01*
X62903448Y-78478729D01*
X62820186Y-78580186D01*
X62718729Y-78663448D01*
X62682991Y-78692778D01*
X62526466Y-78776443D01*
X62356627Y-78827963D01*
X62290443Y-78834481D01*
X62224260Y-78841000D01*
X62135740Y-78841000D01*
X62069557Y-78834481D01*
X62003373Y-78827963D01*
X61833534Y-78776443D01*
X61677009Y-78692778D01*
X61641271Y-78663448D01*
X61539814Y-78580186D01*
X61456552Y-78478729D01*
X61427222Y-78442991D01*
X61343557Y-78286466D01*
X61292037Y-78116627D01*
X61274641Y-77940000D01*
X61292037Y-77763373D01*
X61343557Y-77593534D01*
X61427222Y-77437009D01*
X61456942Y-77400795D01*
X61539814Y-77299814D01*
X61668665Y-77194070D01*
X61677009Y-77187222D01*
X61833534Y-77103557D01*
X62003373Y-77052037D01*
X62069558Y-77045518D01*
X62135740Y-77039000D01*
X62224260Y-77039000D01*
X62290442Y-77045518D01*
X62290442Y-77045518D01*
G37*
G36*
X49093421Y-76609974D02*
G01*
X49193695Y-76651509D01*
X49193696Y-76651510D01*
X49283942Y-76711810D01*
X49360690Y-76788558D01*
X49360691Y-76788560D01*
X49420991Y-76878805D01*
X49462526Y-76979079D01*
X49483700Y-77085530D01*
X49483700Y-77194070D01*
X49462526Y-77300521D01*
X49420991Y-77400795D01*
X49420990Y-77400796D01*
X49360690Y-77491042D01*
X49283942Y-77567790D01*
X49245416Y-77593532D01*
X49193695Y-77628091D01*
X49093421Y-77669626D01*
X48986970Y-77690800D01*
X48878430Y-77690800D01*
X48771979Y-77669626D01*
X48671705Y-77628091D01*
X48619984Y-77593532D01*
X48581458Y-77567790D01*
X48504710Y-77491042D01*
X48444410Y-77400796D01*
X48444409Y-77400795D01*
X48402874Y-77300521D01*
X48381700Y-77194070D01*
X48381700Y-77085530D01*
X48402874Y-76979079D01*
X48444409Y-76878805D01*
X48504709Y-76788560D01*
X48504710Y-76788558D01*
X48581458Y-76711810D01*
X48671704Y-76651510D01*
X48671705Y-76651509D01*
X48771979Y-76609974D01*
X48878430Y-76588800D01*
X48986970Y-76588800D01*
X49093421Y-76609974D01*
X49093421Y-76609974D01*
G37*
G36*
X53493421Y-76609974D02*
G01*
X53593695Y-76651509D01*
X53593696Y-76651510D01*
X53683942Y-76711810D01*
X53760690Y-76788558D01*
X53760691Y-76788560D01*
X53820991Y-76878805D01*
X53862526Y-76979079D01*
X53883700Y-77085530D01*
X53883700Y-77194070D01*
X53862526Y-77300521D01*
X53820991Y-77400795D01*
X53820990Y-77400796D01*
X53760690Y-77491042D01*
X53683942Y-77567790D01*
X53645416Y-77593532D01*
X53593695Y-77628091D01*
X53493421Y-77669626D01*
X53386970Y-77690800D01*
X53278430Y-77690800D01*
X53171979Y-77669626D01*
X53071705Y-77628091D01*
X53019984Y-77593532D01*
X52981458Y-77567790D01*
X52904710Y-77491042D01*
X52844410Y-77400796D01*
X52844409Y-77400795D01*
X52802874Y-77300521D01*
X52781700Y-77194070D01*
X52781700Y-77085530D01*
X52802874Y-76979079D01*
X52844409Y-76878805D01*
X52904709Y-76788560D01*
X52904710Y-76788558D01*
X52981458Y-76711810D01*
X53071704Y-76651510D01*
X53071705Y-76651509D01*
X53171979Y-76609974D01*
X53278430Y-76588800D01*
X53386970Y-76588800D01*
X53493421Y-76609974D01*
X53493421Y-76609974D01*
G37*
G36*
X43072043Y-75658619D02*
G01*
X43138227Y-75665137D01*
X43308066Y-75716657D01*
X43464591Y-75800322D01*
X43500329Y-75829652D01*
X43601786Y-75912914D01*
X43685048Y-76014371D01*
X43714378Y-76050109D01*
X43798043Y-76206634D01*
X43849563Y-76376473D01*
X43866959Y-76553100D01*
X43849563Y-76729727D01*
X43798043Y-76899566D01*
X43714378Y-77056091D01*
X43690218Y-77085530D01*
X43601786Y-77193286D01*
X43500329Y-77276548D01*
X43464591Y-77305878D01*
X43308066Y-77389543D01*
X43138227Y-77441063D01*
X43072042Y-77447582D01*
X43005860Y-77454100D01*
X42917340Y-77454100D01*
X42851158Y-77447582D01*
X42784973Y-77441063D01*
X42615134Y-77389543D01*
X42458609Y-77305878D01*
X42422871Y-77276548D01*
X42321414Y-77193286D01*
X42232982Y-77085530D01*
X42208822Y-77056091D01*
X42125157Y-76899566D01*
X42073637Y-76729727D01*
X42056241Y-76553100D01*
X42073637Y-76376473D01*
X42125157Y-76206634D01*
X42208822Y-76050109D01*
X42238152Y-76014371D01*
X42321414Y-75912914D01*
X42422871Y-75829652D01*
X42458609Y-75800322D01*
X42615134Y-75716657D01*
X42784973Y-75665137D01*
X42851157Y-75658619D01*
X42917340Y-75652100D01*
X43005860Y-75652100D01*
X43072043Y-75658619D01*
X43072043Y-75658619D01*
G37*
G36*
X39242540Y-75652100D02*
G01*
X39323127Y-75660037D01*
X39492966Y-75711557D01*
X39649491Y-75795222D01*
X39655705Y-75800322D01*
X39786686Y-75907814D01*
X39869948Y-76009271D01*
X39899278Y-76045009D01*
X39982943Y-76201534D01*
X40034463Y-76371373D01*
X40051859Y-76548000D01*
X40034463Y-76724627D01*
X39982943Y-76894466D01*
X39899278Y-77050991D01*
X39870932Y-77085530D01*
X39786686Y-77188186D01*
X39685229Y-77271448D01*
X39649491Y-77300778D01*
X39492966Y-77384443D01*
X39323127Y-77435963D01*
X39271345Y-77441063D01*
X39190760Y-77449000D01*
X39102240Y-77449000D01*
X39021655Y-77441063D01*
X38969873Y-77435963D01*
X38800034Y-77384443D01*
X38643509Y-77300778D01*
X38607771Y-77271448D01*
X38506314Y-77188186D01*
X38422068Y-77085530D01*
X38393722Y-77050991D01*
X38310057Y-76894466D01*
X38258537Y-76724627D01*
X38241141Y-76548000D01*
X38258537Y-76371373D01*
X38310057Y-76201534D01*
X38393722Y-76045009D01*
X38423052Y-76009271D01*
X38506314Y-75907814D01*
X38637295Y-75800322D01*
X38643509Y-75795222D01*
X38800034Y-75711557D01*
X38969873Y-75660037D01*
X39050460Y-75652100D01*
X39102240Y-75647000D01*
X39190760Y-75647000D01*
X39242540Y-75652100D01*
X39242540Y-75652100D01*
G37*
G36*
X59750443Y-74505519D02*
G01*
X59816627Y-74512037D01*
X59986466Y-74563557D01*
X60142991Y-74647222D01*
X60178729Y-74676552D01*
X60280186Y-74759814D01*
X60349637Y-74844442D01*
X60392778Y-74897009D01*
X60476443Y-75053534D01*
X60527963Y-75223373D01*
X60545359Y-75400000D01*
X60527963Y-75576627D01*
X60476443Y-75746466D01*
X60392778Y-75902991D01*
X60363448Y-75938729D01*
X60280186Y-76040186D01*
X60178729Y-76123448D01*
X60142991Y-76152778D01*
X59986466Y-76236443D01*
X59816627Y-76287963D01*
X59750442Y-76294482D01*
X59684260Y-76301000D01*
X59595740Y-76301000D01*
X59529558Y-76294482D01*
X59463373Y-76287963D01*
X59293534Y-76236443D01*
X59137009Y-76152778D01*
X59101271Y-76123448D01*
X58999814Y-76040186D01*
X58916552Y-75938729D01*
X58887222Y-75902991D01*
X58803557Y-75746466D01*
X58752037Y-75576627D01*
X58734641Y-75400000D01*
X58752037Y-75223373D01*
X58803557Y-75053534D01*
X58887222Y-74897009D01*
X58930363Y-74844442D01*
X58999814Y-74759814D01*
X59101271Y-74676552D01*
X59137009Y-74647222D01*
X59293534Y-74563557D01*
X59463373Y-74512037D01*
X59529557Y-74505519D01*
X59595740Y-74499000D01*
X59684260Y-74499000D01*
X59750443Y-74505519D01*
X59750443Y-74505519D01*
G37*
G36*
X21650443Y-74505519D02*
G01*
X21716627Y-74512037D01*
X21886466Y-74563557D01*
X22042991Y-74647222D01*
X22078729Y-74676552D01*
X22180186Y-74759814D01*
X22249637Y-74844442D01*
X22292778Y-74897009D01*
X22376443Y-75053534D01*
X22427963Y-75223373D01*
X22445359Y-75400000D01*
X22427963Y-75576627D01*
X22376443Y-75746466D01*
X22292778Y-75902991D01*
X22263448Y-75938729D01*
X22180186Y-76040186D01*
X22078729Y-76123448D01*
X22042991Y-76152778D01*
X21886466Y-76236443D01*
X21716627Y-76287963D01*
X21650442Y-76294482D01*
X21584260Y-76301000D01*
X21495740Y-76301000D01*
X21429558Y-76294482D01*
X21363373Y-76287963D01*
X21193534Y-76236443D01*
X21037009Y-76152778D01*
X21001271Y-76123448D01*
X20899814Y-76040186D01*
X20816552Y-75938729D01*
X20787222Y-75902991D01*
X20703557Y-75746466D01*
X20652037Y-75576627D01*
X20634641Y-75400000D01*
X20652037Y-75223373D01*
X20703557Y-75053534D01*
X20787222Y-74897009D01*
X20830363Y-74844442D01*
X20899814Y-74759814D01*
X21001271Y-74676552D01*
X21037009Y-74647222D01*
X21193534Y-74563557D01*
X21363373Y-74512037D01*
X21429557Y-74505519D01*
X21495740Y-74499000D01*
X21584260Y-74499000D01*
X21650443Y-74505519D01*
X21650443Y-74505519D01*
G37*
G36*
X19110443Y-74505519D02*
G01*
X19176627Y-74512037D01*
X19346466Y-74563557D01*
X19502991Y-74647222D01*
X19538729Y-74676552D01*
X19640186Y-74759814D01*
X19709637Y-74844442D01*
X19752778Y-74897009D01*
X19836443Y-75053534D01*
X19887963Y-75223373D01*
X19905359Y-75400000D01*
X19887963Y-75576627D01*
X19836443Y-75746466D01*
X19752778Y-75902991D01*
X19723448Y-75938729D01*
X19640186Y-76040186D01*
X19538729Y-76123448D01*
X19502991Y-76152778D01*
X19346466Y-76236443D01*
X19176627Y-76287963D01*
X19110442Y-76294482D01*
X19044260Y-76301000D01*
X18955740Y-76301000D01*
X18889558Y-76294482D01*
X18823373Y-76287963D01*
X18653534Y-76236443D01*
X18497009Y-76152778D01*
X18461271Y-76123448D01*
X18359814Y-76040186D01*
X18276552Y-75938729D01*
X18247222Y-75902991D01*
X18163557Y-75746466D01*
X18112037Y-75576627D01*
X18094641Y-75400000D01*
X18112037Y-75223373D01*
X18163557Y-75053534D01*
X18247222Y-74897009D01*
X18290363Y-74844442D01*
X18359814Y-74759814D01*
X18461271Y-74676552D01*
X18497009Y-74647222D01*
X18653534Y-74563557D01*
X18823373Y-74512037D01*
X18889557Y-74505519D01*
X18955740Y-74499000D01*
X19044260Y-74499000D01*
X19110443Y-74505519D01*
X19110443Y-74505519D01*
G37*
G36*
X62290443Y-74505519D02*
G01*
X62356627Y-74512037D01*
X62526466Y-74563557D01*
X62682991Y-74647222D01*
X62718729Y-74676552D01*
X62820186Y-74759814D01*
X62889637Y-74844442D01*
X62932778Y-74897009D01*
X63016443Y-75053534D01*
X63067963Y-75223373D01*
X63085359Y-75400000D01*
X63067963Y-75576627D01*
X63016443Y-75746466D01*
X62932778Y-75902991D01*
X62903448Y-75938729D01*
X62820186Y-76040186D01*
X62718729Y-76123448D01*
X62682991Y-76152778D01*
X62526466Y-76236443D01*
X62356627Y-76287963D01*
X62290442Y-76294482D01*
X62224260Y-76301000D01*
X62135740Y-76301000D01*
X62069558Y-76294482D01*
X62003373Y-76287963D01*
X61833534Y-76236443D01*
X61677009Y-76152778D01*
X61641271Y-76123448D01*
X61539814Y-76040186D01*
X61456552Y-75938729D01*
X61427222Y-75902991D01*
X61343557Y-75746466D01*
X61292037Y-75576627D01*
X61274641Y-75400000D01*
X61292037Y-75223373D01*
X61343557Y-75053534D01*
X61427222Y-74897009D01*
X61470363Y-74844442D01*
X61539814Y-74759814D01*
X61641271Y-74676552D01*
X61677009Y-74647222D01*
X61833534Y-74563557D01*
X62003373Y-74512037D01*
X62069557Y-74505519D01*
X62135740Y-74499000D01*
X62224260Y-74499000D01*
X62290443Y-74505519D01*
X62290443Y-74505519D01*
G37*
G36*
X43862600Y-74914100D02*
G01*
X42060600Y-74914100D01*
X42060600Y-73112100D01*
X43862600Y-73112100D01*
X43862600Y-74914100D01*
X43862600Y-74914100D01*
G37*
G36*
X39242540Y-73112100D02*
G01*
X39323127Y-73120037D01*
X39492966Y-73171557D01*
X39649491Y-73255222D01*
X39685229Y-73284552D01*
X39786686Y-73367814D01*
X39869948Y-73469271D01*
X39899278Y-73505009D01*
X39982943Y-73661534D01*
X40034463Y-73831373D01*
X40051859Y-74008000D01*
X40034463Y-74184627D01*
X39982943Y-74354466D01*
X39899278Y-74510991D01*
X39869948Y-74546729D01*
X39786686Y-74648186D01*
X39685229Y-74731448D01*
X39649491Y-74760778D01*
X39492966Y-74844443D01*
X39323127Y-74895963D01*
X39256943Y-74902481D01*
X39190760Y-74909000D01*
X39102240Y-74909000D01*
X39036057Y-74902481D01*
X38969873Y-74895963D01*
X38800034Y-74844443D01*
X38643509Y-74760778D01*
X38607771Y-74731448D01*
X38506314Y-74648186D01*
X38423052Y-74546729D01*
X38393722Y-74510991D01*
X38310057Y-74354466D01*
X38258537Y-74184627D01*
X38241141Y-74008000D01*
X38258537Y-73831373D01*
X38310057Y-73661534D01*
X38393722Y-73505009D01*
X38423052Y-73469271D01*
X38506314Y-73367814D01*
X38607771Y-73284552D01*
X38643509Y-73255222D01*
X38800034Y-73171557D01*
X38969873Y-73120037D01*
X39050460Y-73112100D01*
X39102240Y-73107000D01*
X39190760Y-73107000D01*
X39242540Y-73112100D01*
X39242540Y-73112100D01*
G37*
G36*
X62290443Y-71965519D02*
G01*
X62356627Y-71972037D01*
X62526466Y-72023557D01*
X62682991Y-72107222D01*
X62718729Y-72136552D01*
X62820186Y-72219814D01*
X62903448Y-72321271D01*
X62932778Y-72357009D01*
X63016443Y-72513534D01*
X63067963Y-72683373D01*
X63085359Y-72860000D01*
X63067963Y-73036627D01*
X63016443Y-73206466D01*
X62932778Y-73362991D01*
X62903448Y-73398729D01*
X62820186Y-73500186D01*
X62718729Y-73583448D01*
X62682991Y-73612778D01*
X62526466Y-73696443D01*
X62356627Y-73747963D01*
X62290442Y-73754482D01*
X62224260Y-73761000D01*
X62135740Y-73761000D01*
X62069558Y-73754482D01*
X62003373Y-73747963D01*
X61833534Y-73696443D01*
X61677009Y-73612778D01*
X61641271Y-73583448D01*
X61539814Y-73500186D01*
X61456552Y-73398729D01*
X61427222Y-73362991D01*
X61343557Y-73206466D01*
X61292037Y-73036627D01*
X61274641Y-72860000D01*
X61292037Y-72683373D01*
X61343557Y-72513534D01*
X61427222Y-72357009D01*
X61456552Y-72321271D01*
X61539814Y-72219814D01*
X61641271Y-72136552D01*
X61677009Y-72107222D01*
X61833534Y-72023557D01*
X62003373Y-71972037D01*
X62069557Y-71965519D01*
X62135740Y-71959000D01*
X62224260Y-71959000D01*
X62290443Y-71965519D01*
X62290443Y-71965519D01*
G37*
G36*
X59750443Y-71965519D02*
G01*
X59816627Y-71972037D01*
X59986466Y-72023557D01*
X60142991Y-72107222D01*
X60178729Y-72136552D01*
X60280186Y-72219814D01*
X60363448Y-72321271D01*
X60392778Y-72357009D01*
X60476443Y-72513534D01*
X60527963Y-72683373D01*
X60545359Y-72860000D01*
X60527963Y-73036627D01*
X60476443Y-73206466D01*
X60392778Y-73362991D01*
X60363448Y-73398729D01*
X60280186Y-73500186D01*
X60178729Y-73583448D01*
X60142991Y-73612778D01*
X59986466Y-73696443D01*
X59816627Y-73747963D01*
X59750442Y-73754482D01*
X59684260Y-73761000D01*
X59595740Y-73761000D01*
X59529558Y-73754482D01*
X59463373Y-73747963D01*
X59293534Y-73696443D01*
X59137009Y-73612778D01*
X59101271Y-73583448D01*
X58999814Y-73500186D01*
X58916552Y-73398729D01*
X58887222Y-73362991D01*
X58803557Y-73206466D01*
X58752037Y-73036627D01*
X58734641Y-72860000D01*
X58752037Y-72683373D01*
X58803557Y-72513534D01*
X58887222Y-72357009D01*
X58916552Y-72321271D01*
X58999814Y-72219814D01*
X59101271Y-72136552D01*
X59137009Y-72107222D01*
X59293534Y-72023557D01*
X59463373Y-71972037D01*
X59529557Y-71965519D01*
X59595740Y-71959000D01*
X59684260Y-71959000D01*
X59750443Y-71965519D01*
X59750443Y-71965519D01*
G37*
G36*
X21650443Y-71965519D02*
G01*
X21716627Y-71972037D01*
X21886466Y-72023557D01*
X22042991Y-72107222D01*
X22078729Y-72136552D01*
X22180186Y-72219814D01*
X22263448Y-72321271D01*
X22292778Y-72357009D01*
X22376443Y-72513534D01*
X22427963Y-72683373D01*
X22445359Y-72860000D01*
X22427963Y-73036627D01*
X22376443Y-73206466D01*
X22292778Y-73362991D01*
X22263448Y-73398729D01*
X22180186Y-73500186D01*
X22078729Y-73583448D01*
X22042991Y-73612778D01*
X21886466Y-73696443D01*
X21716627Y-73747963D01*
X21650442Y-73754482D01*
X21584260Y-73761000D01*
X21495740Y-73761000D01*
X21429558Y-73754482D01*
X21363373Y-73747963D01*
X21193534Y-73696443D01*
X21037009Y-73612778D01*
X21001271Y-73583448D01*
X20899814Y-73500186D01*
X20816552Y-73398729D01*
X20787222Y-73362991D01*
X20703557Y-73206466D01*
X20652037Y-73036627D01*
X20634641Y-72860000D01*
X20652037Y-72683373D01*
X20703557Y-72513534D01*
X20787222Y-72357009D01*
X20816552Y-72321271D01*
X20899814Y-72219814D01*
X21001271Y-72136552D01*
X21037009Y-72107222D01*
X21193534Y-72023557D01*
X21363373Y-71972037D01*
X21429557Y-71965519D01*
X21495740Y-71959000D01*
X21584260Y-71959000D01*
X21650443Y-71965519D01*
X21650443Y-71965519D01*
G37*
G36*
X19110443Y-71965519D02*
G01*
X19176627Y-71972037D01*
X19346466Y-72023557D01*
X19502991Y-72107222D01*
X19538729Y-72136552D01*
X19640186Y-72219814D01*
X19723448Y-72321271D01*
X19752778Y-72357009D01*
X19836443Y-72513534D01*
X19887963Y-72683373D01*
X19905359Y-72860000D01*
X19887963Y-73036627D01*
X19836443Y-73206466D01*
X19752778Y-73362991D01*
X19723448Y-73398729D01*
X19640186Y-73500186D01*
X19538729Y-73583448D01*
X19502991Y-73612778D01*
X19346466Y-73696443D01*
X19176627Y-73747963D01*
X19110442Y-73754482D01*
X19044260Y-73761000D01*
X18955740Y-73761000D01*
X18889558Y-73754482D01*
X18823373Y-73747963D01*
X18653534Y-73696443D01*
X18497009Y-73612778D01*
X18461271Y-73583448D01*
X18359814Y-73500186D01*
X18276552Y-73398729D01*
X18247222Y-73362991D01*
X18163557Y-73206466D01*
X18112037Y-73036627D01*
X18094641Y-72860000D01*
X18112037Y-72683373D01*
X18163557Y-72513534D01*
X18247222Y-72357009D01*
X18276552Y-72321271D01*
X18359814Y-72219814D01*
X18461271Y-72136552D01*
X18497009Y-72107222D01*
X18653534Y-72023557D01*
X18823373Y-71972037D01*
X18889557Y-71965519D01*
X18955740Y-71959000D01*
X19044260Y-71959000D01*
X19110443Y-71965519D01*
X19110443Y-71965519D01*
G37*
G36*
X40047500Y-72369000D02*
G01*
X38245500Y-72369000D01*
X38245500Y-70567000D01*
X40047500Y-70567000D01*
X40047500Y-72369000D01*
X40047500Y-72369000D01*
G37*
G36*
X59750442Y-69425518D02*
G01*
X59816627Y-69432037D01*
X59986466Y-69483557D01*
X60142991Y-69567222D01*
X60178729Y-69596552D01*
X60280186Y-69679814D01*
X60363448Y-69781271D01*
X60392778Y-69817009D01*
X60476443Y-69973534D01*
X60527963Y-70143373D01*
X60545359Y-70320000D01*
X60527963Y-70496627D01*
X60476443Y-70666466D01*
X60392778Y-70822991D01*
X60363448Y-70858729D01*
X60280186Y-70960186D01*
X60178729Y-71043448D01*
X60142991Y-71072778D01*
X59986466Y-71156443D01*
X59816627Y-71207963D01*
X59750443Y-71214481D01*
X59684260Y-71221000D01*
X59595740Y-71221000D01*
X59529557Y-71214481D01*
X59463373Y-71207963D01*
X59293534Y-71156443D01*
X59137009Y-71072778D01*
X59101271Y-71043448D01*
X58999814Y-70960186D01*
X58916552Y-70858729D01*
X58887222Y-70822991D01*
X58803557Y-70666466D01*
X58752037Y-70496627D01*
X58734641Y-70320000D01*
X58752037Y-70143373D01*
X58803557Y-69973534D01*
X58887222Y-69817009D01*
X58916552Y-69781271D01*
X58999814Y-69679814D01*
X59101271Y-69596552D01*
X59137009Y-69567222D01*
X59293534Y-69483557D01*
X59463373Y-69432037D01*
X59529558Y-69425518D01*
X59595740Y-69419000D01*
X59684260Y-69419000D01*
X59750442Y-69425518D01*
X59750442Y-69425518D01*
G37*
G36*
X62290442Y-69425518D02*
G01*
X62356627Y-69432037D01*
X62526466Y-69483557D01*
X62682991Y-69567222D01*
X62718729Y-69596552D01*
X62820186Y-69679814D01*
X62903448Y-69781271D01*
X62932778Y-69817009D01*
X63016443Y-69973534D01*
X63067963Y-70143373D01*
X63085359Y-70320000D01*
X63067963Y-70496627D01*
X63016443Y-70666466D01*
X62932778Y-70822991D01*
X62903448Y-70858729D01*
X62820186Y-70960186D01*
X62718729Y-71043448D01*
X62682991Y-71072778D01*
X62526466Y-71156443D01*
X62356627Y-71207963D01*
X62290443Y-71214481D01*
X62224260Y-71221000D01*
X62135740Y-71221000D01*
X62069557Y-71214481D01*
X62003373Y-71207963D01*
X61833534Y-71156443D01*
X61677009Y-71072778D01*
X61641271Y-71043448D01*
X61539814Y-70960186D01*
X61456552Y-70858729D01*
X61427222Y-70822991D01*
X61343557Y-70666466D01*
X61292037Y-70496627D01*
X61274641Y-70320000D01*
X61292037Y-70143373D01*
X61343557Y-69973534D01*
X61427222Y-69817009D01*
X61456552Y-69781271D01*
X61539814Y-69679814D01*
X61641271Y-69596552D01*
X61677009Y-69567222D01*
X61833534Y-69483557D01*
X62003373Y-69432037D01*
X62069558Y-69425518D01*
X62135740Y-69419000D01*
X62224260Y-69419000D01*
X62290442Y-69425518D01*
X62290442Y-69425518D01*
G37*
G36*
X19110442Y-69425518D02*
G01*
X19176627Y-69432037D01*
X19346466Y-69483557D01*
X19502991Y-69567222D01*
X19538729Y-69596552D01*
X19640186Y-69679814D01*
X19723448Y-69781271D01*
X19752778Y-69817009D01*
X19836443Y-69973534D01*
X19887963Y-70143373D01*
X19905359Y-70320000D01*
X19887963Y-70496627D01*
X19836443Y-70666466D01*
X19752778Y-70822991D01*
X19723448Y-70858729D01*
X19640186Y-70960186D01*
X19538729Y-71043448D01*
X19502991Y-71072778D01*
X19346466Y-71156443D01*
X19176627Y-71207963D01*
X19110443Y-71214481D01*
X19044260Y-71221000D01*
X18955740Y-71221000D01*
X18889557Y-71214481D01*
X18823373Y-71207963D01*
X18653534Y-71156443D01*
X18497009Y-71072778D01*
X18461271Y-71043448D01*
X18359814Y-70960186D01*
X18276552Y-70858729D01*
X18247222Y-70822991D01*
X18163557Y-70666466D01*
X18112037Y-70496627D01*
X18094641Y-70320000D01*
X18112037Y-70143373D01*
X18163557Y-69973534D01*
X18247222Y-69817009D01*
X18276552Y-69781271D01*
X18359814Y-69679814D01*
X18461271Y-69596552D01*
X18497009Y-69567222D01*
X18653534Y-69483557D01*
X18823373Y-69432037D01*
X18889558Y-69425518D01*
X18955740Y-69419000D01*
X19044260Y-69419000D01*
X19110442Y-69425518D01*
X19110442Y-69425518D01*
G37*
G36*
X21650442Y-69425518D02*
G01*
X21716627Y-69432037D01*
X21886466Y-69483557D01*
X22042991Y-69567222D01*
X22078729Y-69596552D01*
X22180186Y-69679814D01*
X22263448Y-69781271D01*
X22292778Y-69817009D01*
X22376443Y-69973534D01*
X22427963Y-70143373D01*
X22445359Y-70320000D01*
X22427963Y-70496627D01*
X22376443Y-70666466D01*
X22292778Y-70822991D01*
X22263448Y-70858729D01*
X22180186Y-70960186D01*
X22078729Y-71043448D01*
X22042991Y-71072778D01*
X21886466Y-71156443D01*
X21716627Y-71207963D01*
X21650443Y-71214481D01*
X21584260Y-71221000D01*
X21495740Y-71221000D01*
X21429557Y-71214481D01*
X21363373Y-71207963D01*
X21193534Y-71156443D01*
X21037009Y-71072778D01*
X21001271Y-71043448D01*
X20899814Y-70960186D01*
X20816552Y-70858729D01*
X20787222Y-70822991D01*
X20703557Y-70666466D01*
X20652037Y-70496627D01*
X20634641Y-70320000D01*
X20652037Y-70143373D01*
X20703557Y-69973534D01*
X20787222Y-69817009D01*
X20816552Y-69781271D01*
X20899814Y-69679814D01*
X21001271Y-69596552D01*
X21037009Y-69567222D01*
X21193534Y-69483557D01*
X21363373Y-69432037D01*
X21429558Y-69425518D01*
X21495740Y-69419000D01*
X21584260Y-69419000D01*
X21650442Y-69425518D01*
X21650442Y-69425518D01*
G37*
G36*
X21650443Y-66885519D02*
G01*
X21716627Y-66892037D01*
X21886466Y-66943557D01*
X22042991Y-67027222D01*
X22078729Y-67056552D01*
X22180186Y-67139814D01*
X22263448Y-67241271D01*
X22292778Y-67277009D01*
X22376443Y-67433534D01*
X22427963Y-67603373D01*
X22445359Y-67780000D01*
X22427963Y-67956627D01*
X22376443Y-68126466D01*
X22292778Y-68282991D01*
X22263448Y-68318729D01*
X22180186Y-68420186D01*
X22078729Y-68503448D01*
X22042991Y-68532778D01*
X21886466Y-68616443D01*
X21716627Y-68667963D01*
X21650443Y-68674481D01*
X21584260Y-68681000D01*
X21495740Y-68681000D01*
X21429557Y-68674481D01*
X21363373Y-68667963D01*
X21193534Y-68616443D01*
X21037009Y-68532778D01*
X21001271Y-68503448D01*
X20899814Y-68420186D01*
X20816552Y-68318729D01*
X20787222Y-68282991D01*
X20703557Y-68126466D01*
X20652037Y-67956627D01*
X20634641Y-67780000D01*
X20652037Y-67603373D01*
X20703557Y-67433534D01*
X20787222Y-67277009D01*
X20816552Y-67241271D01*
X20899814Y-67139814D01*
X21001271Y-67056552D01*
X21037009Y-67027222D01*
X21193534Y-66943557D01*
X21363373Y-66892037D01*
X21429557Y-66885519D01*
X21495740Y-66879000D01*
X21584260Y-66879000D01*
X21650443Y-66885519D01*
X21650443Y-66885519D01*
G37*
G36*
X19110443Y-66885519D02*
G01*
X19176627Y-66892037D01*
X19346466Y-66943557D01*
X19502991Y-67027222D01*
X19538729Y-67056552D01*
X19640186Y-67139814D01*
X19723448Y-67241271D01*
X19752778Y-67277009D01*
X19836443Y-67433534D01*
X19887963Y-67603373D01*
X19905359Y-67780000D01*
X19887963Y-67956627D01*
X19836443Y-68126466D01*
X19752778Y-68282991D01*
X19723448Y-68318729D01*
X19640186Y-68420186D01*
X19538729Y-68503448D01*
X19502991Y-68532778D01*
X19346466Y-68616443D01*
X19176627Y-68667963D01*
X19110443Y-68674481D01*
X19044260Y-68681000D01*
X18955740Y-68681000D01*
X18889557Y-68674481D01*
X18823373Y-68667963D01*
X18653534Y-68616443D01*
X18497009Y-68532778D01*
X18461271Y-68503448D01*
X18359814Y-68420186D01*
X18276552Y-68318729D01*
X18247222Y-68282991D01*
X18163557Y-68126466D01*
X18112037Y-67956627D01*
X18094641Y-67780000D01*
X18112037Y-67603373D01*
X18163557Y-67433534D01*
X18247222Y-67277009D01*
X18276552Y-67241271D01*
X18359814Y-67139814D01*
X18461271Y-67056552D01*
X18497009Y-67027222D01*
X18653534Y-66943557D01*
X18823373Y-66892037D01*
X18889557Y-66885519D01*
X18955740Y-66879000D01*
X19044260Y-66879000D01*
X19110443Y-66885519D01*
X19110443Y-66885519D01*
G37*
G36*
X59750443Y-66885519D02*
G01*
X59816627Y-66892037D01*
X59986466Y-66943557D01*
X60142991Y-67027222D01*
X60178729Y-67056552D01*
X60280186Y-67139814D01*
X60363448Y-67241271D01*
X60392778Y-67277009D01*
X60476443Y-67433534D01*
X60527963Y-67603373D01*
X60545359Y-67780000D01*
X60527963Y-67956627D01*
X60476443Y-68126466D01*
X60392778Y-68282991D01*
X60363448Y-68318729D01*
X60280186Y-68420186D01*
X60178729Y-68503448D01*
X60142991Y-68532778D01*
X59986466Y-68616443D01*
X59816627Y-68667963D01*
X59750443Y-68674481D01*
X59684260Y-68681000D01*
X59595740Y-68681000D01*
X59529557Y-68674481D01*
X59463373Y-68667963D01*
X59293534Y-68616443D01*
X59137009Y-68532778D01*
X59101271Y-68503448D01*
X58999814Y-68420186D01*
X58916552Y-68318729D01*
X58887222Y-68282991D01*
X58803557Y-68126466D01*
X58752037Y-67956627D01*
X58734641Y-67780000D01*
X58752037Y-67603373D01*
X58803557Y-67433534D01*
X58887222Y-67277009D01*
X58916552Y-67241271D01*
X58999814Y-67139814D01*
X59101271Y-67056552D01*
X59137009Y-67027222D01*
X59293534Y-66943557D01*
X59463373Y-66892037D01*
X59529557Y-66885519D01*
X59595740Y-66879000D01*
X59684260Y-66879000D01*
X59750443Y-66885519D01*
X59750443Y-66885519D01*
G37*
G36*
X62290443Y-66885519D02*
G01*
X62356627Y-66892037D01*
X62526466Y-66943557D01*
X62682991Y-67027222D01*
X62718729Y-67056552D01*
X62820186Y-67139814D01*
X62903448Y-67241271D01*
X62932778Y-67277009D01*
X63016443Y-67433534D01*
X63067963Y-67603373D01*
X63085359Y-67780000D01*
X63067963Y-67956627D01*
X63016443Y-68126466D01*
X62932778Y-68282991D01*
X62903448Y-68318729D01*
X62820186Y-68420186D01*
X62718729Y-68503448D01*
X62682991Y-68532778D01*
X62526466Y-68616443D01*
X62356627Y-68667963D01*
X62290443Y-68674481D01*
X62224260Y-68681000D01*
X62135740Y-68681000D01*
X62069557Y-68674481D01*
X62003373Y-68667963D01*
X61833534Y-68616443D01*
X61677009Y-68532778D01*
X61641271Y-68503448D01*
X61539814Y-68420186D01*
X61456552Y-68318729D01*
X61427222Y-68282991D01*
X61343557Y-68126466D01*
X61292037Y-67956627D01*
X61274641Y-67780000D01*
X61292037Y-67603373D01*
X61343557Y-67433534D01*
X61427222Y-67277009D01*
X61456552Y-67241271D01*
X61539814Y-67139814D01*
X61641271Y-67056552D01*
X61677009Y-67027222D01*
X61833534Y-66943557D01*
X62003373Y-66892037D01*
X62069557Y-66885519D01*
X62135740Y-66879000D01*
X62224260Y-66879000D01*
X62290443Y-66885519D01*
X62290443Y-66885519D01*
G37*
G36*
X59750443Y-64345519D02*
G01*
X59816627Y-64352037D01*
X59986466Y-64403557D01*
X60142991Y-64487222D01*
X60178729Y-64516552D01*
X60280186Y-64599814D01*
X60363448Y-64701271D01*
X60392778Y-64737009D01*
X60476443Y-64893534D01*
X60527963Y-65063373D01*
X60545359Y-65240000D01*
X60527963Y-65416627D01*
X60476443Y-65586466D01*
X60392778Y-65742991D01*
X60363448Y-65778729D01*
X60280186Y-65880186D01*
X60178729Y-65963448D01*
X60142991Y-65992778D01*
X59986466Y-66076443D01*
X59816627Y-66127963D01*
X59750442Y-66134482D01*
X59684260Y-66141000D01*
X59595740Y-66141000D01*
X59529558Y-66134482D01*
X59463373Y-66127963D01*
X59293534Y-66076443D01*
X59137009Y-65992778D01*
X59101271Y-65963448D01*
X58999814Y-65880186D01*
X58916552Y-65778729D01*
X58887222Y-65742991D01*
X58803557Y-65586466D01*
X58752037Y-65416627D01*
X58734641Y-65240000D01*
X58752037Y-65063373D01*
X58803557Y-64893534D01*
X58887222Y-64737009D01*
X58916552Y-64701271D01*
X58999814Y-64599814D01*
X59101271Y-64516552D01*
X59137009Y-64487222D01*
X59293534Y-64403557D01*
X59463373Y-64352037D01*
X59529557Y-64345519D01*
X59595740Y-64339000D01*
X59684260Y-64339000D01*
X59750443Y-64345519D01*
X59750443Y-64345519D01*
G37*
G36*
X19110443Y-64345519D02*
G01*
X19176627Y-64352037D01*
X19346466Y-64403557D01*
X19502991Y-64487222D01*
X19538729Y-64516552D01*
X19640186Y-64599814D01*
X19723448Y-64701271D01*
X19752778Y-64737009D01*
X19836443Y-64893534D01*
X19887963Y-65063373D01*
X19905359Y-65240000D01*
X19887963Y-65416627D01*
X19836443Y-65586466D01*
X19752778Y-65742991D01*
X19723448Y-65778729D01*
X19640186Y-65880186D01*
X19538729Y-65963448D01*
X19502991Y-65992778D01*
X19346466Y-66076443D01*
X19176627Y-66127963D01*
X19110442Y-66134482D01*
X19044260Y-66141000D01*
X18955740Y-66141000D01*
X18889558Y-66134482D01*
X18823373Y-66127963D01*
X18653534Y-66076443D01*
X18497009Y-65992778D01*
X18461271Y-65963448D01*
X18359814Y-65880186D01*
X18276552Y-65778729D01*
X18247222Y-65742991D01*
X18163557Y-65586466D01*
X18112037Y-65416627D01*
X18094641Y-65240000D01*
X18112037Y-65063373D01*
X18163557Y-64893534D01*
X18247222Y-64737009D01*
X18276552Y-64701271D01*
X18359814Y-64599814D01*
X18461271Y-64516552D01*
X18497009Y-64487222D01*
X18653534Y-64403557D01*
X18823373Y-64352037D01*
X18889557Y-64345519D01*
X18955740Y-64339000D01*
X19044260Y-64339000D01*
X19110443Y-64345519D01*
X19110443Y-64345519D01*
G37*
G36*
X21650443Y-64345519D02*
G01*
X21716627Y-64352037D01*
X21886466Y-64403557D01*
X22042991Y-64487222D01*
X22078729Y-64516552D01*
X22180186Y-64599814D01*
X22263448Y-64701271D01*
X22292778Y-64737009D01*
X22376443Y-64893534D01*
X22427963Y-65063373D01*
X22445359Y-65240000D01*
X22427963Y-65416627D01*
X22376443Y-65586466D01*
X22292778Y-65742991D01*
X22263448Y-65778729D01*
X22180186Y-65880186D01*
X22078729Y-65963448D01*
X22042991Y-65992778D01*
X21886466Y-66076443D01*
X21716627Y-66127963D01*
X21650442Y-66134482D01*
X21584260Y-66141000D01*
X21495740Y-66141000D01*
X21429558Y-66134482D01*
X21363373Y-66127963D01*
X21193534Y-66076443D01*
X21037009Y-65992778D01*
X21001271Y-65963448D01*
X20899814Y-65880186D01*
X20816552Y-65778729D01*
X20787222Y-65742991D01*
X20703557Y-65586466D01*
X20652037Y-65416627D01*
X20634641Y-65240000D01*
X20652037Y-65063373D01*
X20703557Y-64893534D01*
X20787222Y-64737009D01*
X20816552Y-64701271D01*
X20899814Y-64599814D01*
X21001271Y-64516552D01*
X21037009Y-64487222D01*
X21193534Y-64403557D01*
X21363373Y-64352037D01*
X21429557Y-64345519D01*
X21495740Y-64339000D01*
X21584260Y-64339000D01*
X21650443Y-64345519D01*
X21650443Y-64345519D01*
G37*
G36*
X62290443Y-64345519D02*
G01*
X62356627Y-64352037D01*
X62526466Y-64403557D01*
X62682991Y-64487222D01*
X62718729Y-64516552D01*
X62820186Y-64599814D01*
X62903448Y-64701271D01*
X62932778Y-64737009D01*
X63016443Y-64893534D01*
X63067963Y-65063373D01*
X63085359Y-65240000D01*
X63067963Y-65416627D01*
X63016443Y-65586466D01*
X62932778Y-65742991D01*
X62903448Y-65778729D01*
X62820186Y-65880186D01*
X62718729Y-65963448D01*
X62682991Y-65992778D01*
X62526466Y-66076443D01*
X62356627Y-66127963D01*
X62290442Y-66134482D01*
X62224260Y-66141000D01*
X62135740Y-66141000D01*
X62069558Y-66134482D01*
X62003373Y-66127963D01*
X61833534Y-66076443D01*
X61677009Y-65992778D01*
X61641271Y-65963448D01*
X61539814Y-65880186D01*
X61456552Y-65778729D01*
X61427222Y-65742991D01*
X61343557Y-65586466D01*
X61292037Y-65416627D01*
X61274641Y-65240000D01*
X61292037Y-65063373D01*
X61343557Y-64893534D01*
X61427222Y-64737009D01*
X61456552Y-64701271D01*
X61539814Y-64599814D01*
X61641271Y-64516552D01*
X61677009Y-64487222D01*
X61833534Y-64403557D01*
X62003373Y-64352037D01*
X62069557Y-64345519D01*
X62135740Y-64339000D01*
X62224260Y-64339000D01*
X62290443Y-64345519D01*
X62290443Y-64345519D01*
G37*
G36*
X19110442Y-61805518D02*
G01*
X19176627Y-61812037D01*
X19346466Y-61863557D01*
X19502991Y-61947222D01*
X19538729Y-61976552D01*
X19640186Y-62059814D01*
X19723448Y-62161271D01*
X19752778Y-62197009D01*
X19836443Y-62353534D01*
X19887963Y-62523373D01*
X19905359Y-62700000D01*
X19887963Y-62876627D01*
X19836443Y-63046466D01*
X19752778Y-63202991D01*
X19723448Y-63238729D01*
X19640186Y-63340186D01*
X19538729Y-63423448D01*
X19502991Y-63452778D01*
X19346466Y-63536443D01*
X19176627Y-63587963D01*
X19110443Y-63594481D01*
X19044260Y-63601000D01*
X18955740Y-63601000D01*
X18889557Y-63594481D01*
X18823373Y-63587963D01*
X18653534Y-63536443D01*
X18497009Y-63452778D01*
X18461271Y-63423448D01*
X18359814Y-63340186D01*
X18276552Y-63238729D01*
X18247222Y-63202991D01*
X18163557Y-63046466D01*
X18112037Y-62876627D01*
X18094641Y-62700000D01*
X18112037Y-62523373D01*
X18163557Y-62353534D01*
X18247222Y-62197009D01*
X18276552Y-62161271D01*
X18359814Y-62059814D01*
X18461271Y-61976552D01*
X18497009Y-61947222D01*
X18653534Y-61863557D01*
X18823373Y-61812037D01*
X18889558Y-61805518D01*
X18955740Y-61799000D01*
X19044260Y-61799000D01*
X19110442Y-61805518D01*
X19110442Y-61805518D01*
G37*
G36*
X59750442Y-61805518D02*
G01*
X59816627Y-61812037D01*
X59986466Y-61863557D01*
X60142991Y-61947222D01*
X60178729Y-61976552D01*
X60280186Y-62059814D01*
X60363448Y-62161271D01*
X60392778Y-62197009D01*
X60476443Y-62353534D01*
X60527963Y-62523373D01*
X60545359Y-62700000D01*
X60527963Y-62876627D01*
X60476443Y-63046466D01*
X60392778Y-63202991D01*
X60363448Y-63238729D01*
X60280186Y-63340186D01*
X60178729Y-63423448D01*
X60142991Y-63452778D01*
X59986466Y-63536443D01*
X59816627Y-63587963D01*
X59750443Y-63594481D01*
X59684260Y-63601000D01*
X59595740Y-63601000D01*
X59529557Y-63594481D01*
X59463373Y-63587963D01*
X59293534Y-63536443D01*
X59137009Y-63452778D01*
X59101271Y-63423448D01*
X58999814Y-63340186D01*
X58916552Y-63238729D01*
X58887222Y-63202991D01*
X58803557Y-63046466D01*
X58752037Y-62876627D01*
X58734641Y-62700000D01*
X58752037Y-62523373D01*
X58803557Y-62353534D01*
X58887222Y-62197009D01*
X58916552Y-62161271D01*
X58999814Y-62059814D01*
X59101271Y-61976552D01*
X59137009Y-61947222D01*
X59293534Y-61863557D01*
X59463373Y-61812037D01*
X59529558Y-61805518D01*
X59595740Y-61799000D01*
X59684260Y-61799000D01*
X59750442Y-61805518D01*
X59750442Y-61805518D01*
G37*
G36*
X62290442Y-61805518D02*
G01*
X62356627Y-61812037D01*
X62526466Y-61863557D01*
X62682991Y-61947222D01*
X62718729Y-61976552D01*
X62820186Y-62059814D01*
X62903448Y-62161271D01*
X62932778Y-62197009D01*
X63016443Y-62353534D01*
X63067963Y-62523373D01*
X63085359Y-62700000D01*
X63067963Y-62876627D01*
X63016443Y-63046466D01*
X62932778Y-63202991D01*
X62903448Y-63238729D01*
X62820186Y-63340186D01*
X62718729Y-63423448D01*
X62682991Y-63452778D01*
X62526466Y-63536443D01*
X62356627Y-63587963D01*
X62290443Y-63594481D01*
X62224260Y-63601000D01*
X62135740Y-63601000D01*
X62069557Y-63594481D01*
X62003373Y-63587963D01*
X61833534Y-63536443D01*
X61677009Y-63452778D01*
X61641271Y-63423448D01*
X61539814Y-63340186D01*
X61456552Y-63238729D01*
X61427222Y-63202991D01*
X61343557Y-63046466D01*
X61292037Y-62876627D01*
X61274641Y-62700000D01*
X61292037Y-62523373D01*
X61343557Y-62353534D01*
X61427222Y-62197009D01*
X61456552Y-62161271D01*
X61539814Y-62059814D01*
X61641271Y-61976552D01*
X61677009Y-61947222D01*
X61833534Y-61863557D01*
X62003373Y-61812037D01*
X62069558Y-61805518D01*
X62135740Y-61799000D01*
X62224260Y-61799000D01*
X62290442Y-61805518D01*
X62290442Y-61805518D01*
G37*
G36*
X21650442Y-61805518D02*
G01*
X21716627Y-61812037D01*
X21886466Y-61863557D01*
X22042991Y-61947222D01*
X22078729Y-61976552D01*
X22180186Y-62059814D01*
X22263448Y-62161271D01*
X22292778Y-62197009D01*
X22376443Y-62353534D01*
X22427963Y-62523373D01*
X22445359Y-62700000D01*
X22427963Y-62876627D01*
X22376443Y-63046466D01*
X22292778Y-63202991D01*
X22263448Y-63238729D01*
X22180186Y-63340186D01*
X22078729Y-63423448D01*
X22042991Y-63452778D01*
X21886466Y-63536443D01*
X21716627Y-63587963D01*
X21650443Y-63594481D01*
X21584260Y-63601000D01*
X21495740Y-63601000D01*
X21429557Y-63594481D01*
X21363373Y-63587963D01*
X21193534Y-63536443D01*
X21037009Y-63452778D01*
X21001271Y-63423448D01*
X20899814Y-63340186D01*
X20816552Y-63238729D01*
X20787222Y-63202991D01*
X20703557Y-63046466D01*
X20652037Y-62876627D01*
X20634641Y-62700000D01*
X20652037Y-62523373D01*
X20703557Y-62353534D01*
X20787222Y-62197009D01*
X20816552Y-62161271D01*
X20899814Y-62059814D01*
X21001271Y-61976552D01*
X21037009Y-61947222D01*
X21193534Y-61863557D01*
X21363373Y-61812037D01*
X21429558Y-61805518D01*
X21495740Y-61799000D01*
X21584260Y-61799000D01*
X21650442Y-61805518D01*
X21650442Y-61805518D01*
G37*
G36*
X21650442Y-59265518D02*
G01*
X21716627Y-59272037D01*
X21886466Y-59323557D01*
X22042991Y-59407222D01*
X22078729Y-59436552D01*
X22180186Y-59519814D01*
X22263448Y-59621271D01*
X22292778Y-59657009D01*
X22376443Y-59813534D01*
X22427963Y-59983373D01*
X22445359Y-60160000D01*
X22427963Y-60336627D01*
X22376443Y-60506466D01*
X22292778Y-60662991D01*
X22263448Y-60698729D01*
X22180186Y-60800186D01*
X22078729Y-60883448D01*
X22042991Y-60912778D01*
X21886466Y-60996443D01*
X21716627Y-61047963D01*
X21650443Y-61054481D01*
X21584260Y-61061000D01*
X21495740Y-61061000D01*
X21429557Y-61054481D01*
X21363373Y-61047963D01*
X21193534Y-60996443D01*
X21037009Y-60912778D01*
X21001271Y-60883448D01*
X20899814Y-60800186D01*
X20816552Y-60698729D01*
X20787222Y-60662991D01*
X20703557Y-60506466D01*
X20652037Y-60336627D01*
X20634641Y-60160000D01*
X20652037Y-59983373D01*
X20703557Y-59813534D01*
X20787222Y-59657009D01*
X20816552Y-59621271D01*
X20899814Y-59519814D01*
X21001271Y-59436552D01*
X21037009Y-59407222D01*
X21193534Y-59323557D01*
X21363373Y-59272037D01*
X21429558Y-59265518D01*
X21495740Y-59259000D01*
X21584260Y-59259000D01*
X21650442Y-59265518D01*
X21650442Y-59265518D01*
G37*
G36*
X19110442Y-59265518D02*
G01*
X19176627Y-59272037D01*
X19346466Y-59323557D01*
X19502991Y-59407222D01*
X19538729Y-59436552D01*
X19640186Y-59519814D01*
X19723448Y-59621271D01*
X19752778Y-59657009D01*
X19836443Y-59813534D01*
X19887963Y-59983373D01*
X19905359Y-60160000D01*
X19887963Y-60336627D01*
X19836443Y-60506466D01*
X19752778Y-60662991D01*
X19723448Y-60698729D01*
X19640186Y-60800186D01*
X19538729Y-60883448D01*
X19502991Y-60912778D01*
X19346466Y-60996443D01*
X19176627Y-61047963D01*
X19110443Y-61054481D01*
X19044260Y-61061000D01*
X18955740Y-61061000D01*
X18889557Y-61054481D01*
X18823373Y-61047963D01*
X18653534Y-60996443D01*
X18497009Y-60912778D01*
X18461271Y-60883448D01*
X18359814Y-60800186D01*
X18276552Y-60698729D01*
X18247222Y-60662991D01*
X18163557Y-60506466D01*
X18112037Y-60336627D01*
X18094641Y-60160000D01*
X18112037Y-59983373D01*
X18163557Y-59813534D01*
X18247222Y-59657009D01*
X18276552Y-59621271D01*
X18359814Y-59519814D01*
X18461271Y-59436552D01*
X18497009Y-59407222D01*
X18653534Y-59323557D01*
X18823373Y-59272037D01*
X18889558Y-59265518D01*
X18955740Y-59259000D01*
X19044260Y-59259000D01*
X19110442Y-59265518D01*
X19110442Y-59265518D01*
G37*
G36*
X59750442Y-59265518D02*
G01*
X59816627Y-59272037D01*
X59986466Y-59323557D01*
X60142991Y-59407222D01*
X60178729Y-59436552D01*
X60280186Y-59519814D01*
X60363448Y-59621271D01*
X60392778Y-59657009D01*
X60476443Y-59813534D01*
X60527963Y-59983373D01*
X60545359Y-60160000D01*
X60527963Y-60336627D01*
X60476443Y-60506466D01*
X60392778Y-60662991D01*
X60363448Y-60698729D01*
X60280186Y-60800186D01*
X60178729Y-60883448D01*
X60142991Y-60912778D01*
X59986466Y-60996443D01*
X59816627Y-61047963D01*
X59750443Y-61054481D01*
X59684260Y-61061000D01*
X59595740Y-61061000D01*
X59529557Y-61054481D01*
X59463373Y-61047963D01*
X59293534Y-60996443D01*
X59137009Y-60912778D01*
X59101271Y-60883448D01*
X58999814Y-60800186D01*
X58916552Y-60698729D01*
X58887222Y-60662991D01*
X58803557Y-60506466D01*
X58752037Y-60336627D01*
X58734641Y-60160000D01*
X58752037Y-59983373D01*
X58803557Y-59813534D01*
X58887222Y-59657009D01*
X58916552Y-59621271D01*
X58999814Y-59519814D01*
X59101271Y-59436552D01*
X59137009Y-59407222D01*
X59293534Y-59323557D01*
X59463373Y-59272037D01*
X59529558Y-59265518D01*
X59595740Y-59259000D01*
X59684260Y-59259000D01*
X59750442Y-59265518D01*
X59750442Y-59265518D01*
G37*
G36*
X62290442Y-59265518D02*
G01*
X62356627Y-59272037D01*
X62526466Y-59323557D01*
X62682991Y-59407222D01*
X62718729Y-59436552D01*
X62820186Y-59519814D01*
X62903448Y-59621271D01*
X62932778Y-59657009D01*
X63016443Y-59813534D01*
X63067963Y-59983373D01*
X63085359Y-60160000D01*
X63067963Y-60336627D01*
X63016443Y-60506466D01*
X62932778Y-60662991D01*
X62903448Y-60698729D01*
X62820186Y-60800186D01*
X62718729Y-60883448D01*
X62682991Y-60912778D01*
X62526466Y-60996443D01*
X62356627Y-61047963D01*
X62290443Y-61054481D01*
X62224260Y-61061000D01*
X62135740Y-61061000D01*
X62069557Y-61054481D01*
X62003373Y-61047963D01*
X61833534Y-60996443D01*
X61677009Y-60912778D01*
X61641271Y-60883448D01*
X61539814Y-60800186D01*
X61456552Y-60698729D01*
X61427222Y-60662991D01*
X61343557Y-60506466D01*
X61292037Y-60336627D01*
X61274641Y-60160000D01*
X61292037Y-59983373D01*
X61343557Y-59813534D01*
X61427222Y-59657009D01*
X61456552Y-59621271D01*
X61539814Y-59519814D01*
X61641271Y-59436552D01*
X61677009Y-59407222D01*
X61833534Y-59323557D01*
X62003373Y-59272037D01*
X62069558Y-59265518D01*
X62135740Y-59259000D01*
X62224260Y-59259000D01*
X62290442Y-59265518D01*
X62290442Y-59265518D01*
G37*
G36*
X19110443Y-56725519D02*
G01*
X19176627Y-56732037D01*
X19346466Y-56783557D01*
X19502991Y-56867222D01*
X19538729Y-56896552D01*
X19640186Y-56979814D01*
X19723448Y-57081271D01*
X19752778Y-57117009D01*
X19836443Y-57273534D01*
X19887963Y-57443373D01*
X19905359Y-57620000D01*
X19887963Y-57796627D01*
X19836443Y-57966466D01*
X19752778Y-58122991D01*
X19723448Y-58158729D01*
X19640186Y-58260186D01*
X19538729Y-58343448D01*
X19502991Y-58372778D01*
X19346466Y-58456443D01*
X19176627Y-58507963D01*
X19110443Y-58514481D01*
X19044260Y-58521000D01*
X18955740Y-58521000D01*
X18889557Y-58514481D01*
X18823373Y-58507963D01*
X18653534Y-58456443D01*
X18497009Y-58372778D01*
X18461271Y-58343448D01*
X18359814Y-58260186D01*
X18276552Y-58158729D01*
X18247222Y-58122991D01*
X18163557Y-57966466D01*
X18112037Y-57796627D01*
X18094641Y-57620000D01*
X18112037Y-57443373D01*
X18163557Y-57273534D01*
X18247222Y-57117009D01*
X18276552Y-57081271D01*
X18359814Y-56979814D01*
X18461271Y-56896552D01*
X18497009Y-56867222D01*
X18653534Y-56783557D01*
X18823373Y-56732037D01*
X18889557Y-56725519D01*
X18955740Y-56719000D01*
X19044260Y-56719000D01*
X19110443Y-56725519D01*
X19110443Y-56725519D01*
G37*
G36*
X62290443Y-56725519D02*
G01*
X62356627Y-56732037D01*
X62526466Y-56783557D01*
X62682991Y-56867222D01*
X62718729Y-56896552D01*
X62820186Y-56979814D01*
X62903448Y-57081271D01*
X62932778Y-57117009D01*
X63016443Y-57273534D01*
X63067963Y-57443373D01*
X63085359Y-57620000D01*
X63067963Y-57796627D01*
X63016443Y-57966466D01*
X62932778Y-58122991D01*
X62903448Y-58158729D01*
X62820186Y-58260186D01*
X62718729Y-58343448D01*
X62682991Y-58372778D01*
X62526466Y-58456443D01*
X62356627Y-58507963D01*
X62290443Y-58514481D01*
X62224260Y-58521000D01*
X62135740Y-58521000D01*
X62069557Y-58514481D01*
X62003373Y-58507963D01*
X61833534Y-58456443D01*
X61677009Y-58372778D01*
X61641271Y-58343448D01*
X61539814Y-58260186D01*
X61456552Y-58158729D01*
X61427222Y-58122991D01*
X61343557Y-57966466D01*
X61292037Y-57796627D01*
X61274641Y-57620000D01*
X61292037Y-57443373D01*
X61343557Y-57273534D01*
X61427222Y-57117009D01*
X61456552Y-57081271D01*
X61539814Y-56979814D01*
X61641271Y-56896552D01*
X61677009Y-56867222D01*
X61833534Y-56783557D01*
X62003373Y-56732037D01*
X62069557Y-56725519D01*
X62135740Y-56719000D01*
X62224260Y-56719000D01*
X62290443Y-56725519D01*
X62290443Y-56725519D01*
G37*
G36*
X21650443Y-56725519D02*
G01*
X21716627Y-56732037D01*
X21886466Y-56783557D01*
X22042991Y-56867222D01*
X22078729Y-56896552D01*
X22180186Y-56979814D01*
X22263448Y-57081271D01*
X22292778Y-57117009D01*
X22376443Y-57273534D01*
X22427963Y-57443373D01*
X22445359Y-57620000D01*
X22427963Y-57796627D01*
X22376443Y-57966466D01*
X22292778Y-58122991D01*
X22263448Y-58158729D01*
X22180186Y-58260186D01*
X22078729Y-58343448D01*
X22042991Y-58372778D01*
X21886466Y-58456443D01*
X21716627Y-58507963D01*
X21650443Y-58514481D01*
X21584260Y-58521000D01*
X21495740Y-58521000D01*
X21429557Y-58514481D01*
X21363373Y-58507963D01*
X21193534Y-58456443D01*
X21037009Y-58372778D01*
X21001271Y-58343448D01*
X20899814Y-58260186D01*
X20816552Y-58158729D01*
X20787222Y-58122991D01*
X20703557Y-57966466D01*
X20652037Y-57796627D01*
X20634641Y-57620000D01*
X20652037Y-57443373D01*
X20703557Y-57273534D01*
X20787222Y-57117009D01*
X20816552Y-57081271D01*
X20899814Y-56979814D01*
X21001271Y-56896552D01*
X21037009Y-56867222D01*
X21193534Y-56783557D01*
X21363373Y-56732037D01*
X21429557Y-56725519D01*
X21495740Y-56719000D01*
X21584260Y-56719000D01*
X21650443Y-56725519D01*
X21650443Y-56725519D01*
G37*
G36*
X59750443Y-56725519D02*
G01*
X59816627Y-56732037D01*
X59986466Y-56783557D01*
X60142991Y-56867222D01*
X60178729Y-56896552D01*
X60280186Y-56979814D01*
X60363448Y-57081271D01*
X60392778Y-57117009D01*
X60476443Y-57273534D01*
X60527963Y-57443373D01*
X60545359Y-57620000D01*
X60527963Y-57796627D01*
X60476443Y-57966466D01*
X60392778Y-58122991D01*
X60363448Y-58158729D01*
X60280186Y-58260186D01*
X60178729Y-58343448D01*
X60142991Y-58372778D01*
X59986466Y-58456443D01*
X59816627Y-58507963D01*
X59750443Y-58514481D01*
X59684260Y-58521000D01*
X59595740Y-58521000D01*
X59529557Y-58514481D01*
X59463373Y-58507963D01*
X59293534Y-58456443D01*
X59137009Y-58372778D01*
X59101271Y-58343448D01*
X58999814Y-58260186D01*
X58916552Y-58158729D01*
X58887222Y-58122991D01*
X58803557Y-57966466D01*
X58752037Y-57796627D01*
X58734641Y-57620000D01*
X58752037Y-57443373D01*
X58803557Y-57273534D01*
X58887222Y-57117009D01*
X58916552Y-57081271D01*
X58999814Y-56979814D01*
X59101271Y-56896552D01*
X59137009Y-56867222D01*
X59293534Y-56783557D01*
X59463373Y-56732037D01*
X59529557Y-56725519D01*
X59595740Y-56719000D01*
X59684260Y-56719000D01*
X59750443Y-56725519D01*
X59750443Y-56725519D01*
G37*
G36*
X21650443Y-54185519D02*
G01*
X21716627Y-54192037D01*
X21886466Y-54243557D01*
X22042991Y-54327222D01*
X22078729Y-54356552D01*
X22180186Y-54439814D01*
X22263448Y-54541271D01*
X22292778Y-54577009D01*
X22376443Y-54733534D01*
X22427963Y-54903373D01*
X22445359Y-55080000D01*
X22427963Y-55256627D01*
X22376443Y-55426466D01*
X22292778Y-55582991D01*
X22263448Y-55618729D01*
X22180186Y-55720186D01*
X22078729Y-55803448D01*
X22042991Y-55832778D01*
X21886466Y-55916443D01*
X21716627Y-55967963D01*
X21650442Y-55974482D01*
X21584260Y-55981000D01*
X21495740Y-55981000D01*
X21429558Y-55974482D01*
X21363373Y-55967963D01*
X21193534Y-55916443D01*
X21037009Y-55832778D01*
X21001271Y-55803448D01*
X20899814Y-55720186D01*
X20816552Y-55618729D01*
X20787222Y-55582991D01*
X20703557Y-55426466D01*
X20652037Y-55256627D01*
X20634641Y-55080000D01*
X20652037Y-54903373D01*
X20703557Y-54733534D01*
X20787222Y-54577009D01*
X20816552Y-54541271D01*
X20899814Y-54439814D01*
X21001271Y-54356552D01*
X21037009Y-54327222D01*
X21193534Y-54243557D01*
X21363373Y-54192037D01*
X21429557Y-54185519D01*
X21495740Y-54179000D01*
X21584260Y-54179000D01*
X21650443Y-54185519D01*
X21650443Y-54185519D01*
G37*
G36*
X19110443Y-54185519D02*
G01*
X19176627Y-54192037D01*
X19346466Y-54243557D01*
X19502991Y-54327222D01*
X19538729Y-54356552D01*
X19640186Y-54439814D01*
X19723448Y-54541271D01*
X19752778Y-54577009D01*
X19836443Y-54733534D01*
X19887963Y-54903373D01*
X19905359Y-55080000D01*
X19887963Y-55256627D01*
X19836443Y-55426466D01*
X19752778Y-55582991D01*
X19723448Y-55618729D01*
X19640186Y-55720186D01*
X19538729Y-55803448D01*
X19502991Y-55832778D01*
X19346466Y-55916443D01*
X19176627Y-55967963D01*
X19110442Y-55974482D01*
X19044260Y-55981000D01*
X18955740Y-55981000D01*
X18889558Y-55974482D01*
X18823373Y-55967963D01*
X18653534Y-55916443D01*
X18497009Y-55832778D01*
X18461271Y-55803448D01*
X18359814Y-55720186D01*
X18276552Y-55618729D01*
X18247222Y-55582991D01*
X18163557Y-55426466D01*
X18112037Y-55256627D01*
X18094641Y-55080000D01*
X18112037Y-54903373D01*
X18163557Y-54733534D01*
X18247222Y-54577009D01*
X18276552Y-54541271D01*
X18359814Y-54439814D01*
X18461271Y-54356552D01*
X18497009Y-54327222D01*
X18653534Y-54243557D01*
X18823373Y-54192037D01*
X18889557Y-54185519D01*
X18955740Y-54179000D01*
X19044260Y-54179000D01*
X19110443Y-54185519D01*
X19110443Y-54185519D01*
G37*
G36*
X62290443Y-54185519D02*
G01*
X62356627Y-54192037D01*
X62526466Y-54243557D01*
X62682991Y-54327222D01*
X62718729Y-54356552D01*
X62820186Y-54439814D01*
X62903448Y-54541271D01*
X62932778Y-54577009D01*
X63016443Y-54733534D01*
X63067963Y-54903373D01*
X63085359Y-55080000D01*
X63067963Y-55256627D01*
X63016443Y-55426466D01*
X62932778Y-55582991D01*
X62903448Y-55618729D01*
X62820186Y-55720186D01*
X62718729Y-55803448D01*
X62682991Y-55832778D01*
X62526466Y-55916443D01*
X62356627Y-55967963D01*
X62290442Y-55974482D01*
X62224260Y-55981000D01*
X62135740Y-55981000D01*
X62069558Y-55974482D01*
X62003373Y-55967963D01*
X61833534Y-55916443D01*
X61677009Y-55832778D01*
X61641271Y-55803448D01*
X61539814Y-55720186D01*
X61456552Y-55618729D01*
X61427222Y-55582991D01*
X61343557Y-55426466D01*
X61292037Y-55256627D01*
X61274641Y-55080000D01*
X61292037Y-54903373D01*
X61343557Y-54733534D01*
X61427222Y-54577009D01*
X61456552Y-54541271D01*
X61539814Y-54439814D01*
X61641271Y-54356552D01*
X61677009Y-54327222D01*
X61833534Y-54243557D01*
X62003373Y-54192037D01*
X62069557Y-54185519D01*
X62135740Y-54179000D01*
X62224260Y-54179000D01*
X62290443Y-54185519D01*
X62290443Y-54185519D01*
G37*
G36*
X59750443Y-54185519D02*
G01*
X59816627Y-54192037D01*
X59986466Y-54243557D01*
X60142991Y-54327222D01*
X60178729Y-54356552D01*
X60280186Y-54439814D01*
X60363448Y-54541271D01*
X60392778Y-54577009D01*
X60476443Y-54733534D01*
X60527963Y-54903373D01*
X60545359Y-55080000D01*
X60527963Y-55256627D01*
X60476443Y-55426466D01*
X60392778Y-55582991D01*
X60363448Y-55618729D01*
X60280186Y-55720186D01*
X60178729Y-55803448D01*
X60142991Y-55832778D01*
X59986466Y-55916443D01*
X59816627Y-55967963D01*
X59750442Y-55974482D01*
X59684260Y-55981000D01*
X59595740Y-55981000D01*
X59529558Y-55974482D01*
X59463373Y-55967963D01*
X59293534Y-55916443D01*
X59137009Y-55832778D01*
X59101271Y-55803448D01*
X58999814Y-55720186D01*
X58916552Y-55618729D01*
X58887222Y-55582991D01*
X58803557Y-55426466D01*
X58752037Y-55256627D01*
X58734641Y-55080000D01*
X58752037Y-54903373D01*
X58803557Y-54733534D01*
X58887222Y-54577009D01*
X58916552Y-54541271D01*
X58999814Y-54439814D01*
X59101271Y-54356552D01*
X59137009Y-54327222D01*
X59293534Y-54243557D01*
X59463373Y-54192037D01*
X59529557Y-54185519D01*
X59595740Y-54179000D01*
X59684260Y-54179000D01*
X59750443Y-54185519D01*
X59750443Y-54185519D01*
G37*
G36*
X59750443Y-51645519D02*
G01*
X59816627Y-51652037D01*
X59986466Y-51703557D01*
X60142991Y-51787222D01*
X60178729Y-51816552D01*
X60280186Y-51899814D01*
X60363448Y-52001271D01*
X60392778Y-52037009D01*
X60476443Y-52193534D01*
X60527963Y-52363373D01*
X60545359Y-52540000D01*
X60527963Y-52716627D01*
X60476443Y-52886466D01*
X60392778Y-53042991D01*
X60363448Y-53078729D01*
X60280186Y-53180186D01*
X60178729Y-53263448D01*
X60142991Y-53292778D01*
X59986466Y-53376443D01*
X59816627Y-53427963D01*
X59750443Y-53434481D01*
X59684260Y-53441000D01*
X59595740Y-53441000D01*
X59529557Y-53434481D01*
X59463373Y-53427963D01*
X59293534Y-53376443D01*
X59137009Y-53292778D01*
X59101271Y-53263448D01*
X58999814Y-53180186D01*
X58916552Y-53078729D01*
X58887222Y-53042991D01*
X58803557Y-52886466D01*
X58752037Y-52716627D01*
X58734641Y-52540000D01*
X58752037Y-52363373D01*
X58803557Y-52193534D01*
X58887222Y-52037009D01*
X58916552Y-52001271D01*
X58999814Y-51899814D01*
X59101271Y-51816552D01*
X59137009Y-51787222D01*
X59293534Y-51703557D01*
X59463373Y-51652037D01*
X59529557Y-51645519D01*
X59595740Y-51639000D01*
X59684260Y-51639000D01*
X59750443Y-51645519D01*
X59750443Y-51645519D01*
G37*
G36*
X62290443Y-51645519D02*
G01*
X62356627Y-51652037D01*
X62526466Y-51703557D01*
X62682991Y-51787222D01*
X62718729Y-51816552D01*
X62820186Y-51899814D01*
X62903448Y-52001271D01*
X62932778Y-52037009D01*
X63016443Y-52193534D01*
X63067963Y-52363373D01*
X63085359Y-52540000D01*
X63067963Y-52716627D01*
X63016443Y-52886466D01*
X62932778Y-53042991D01*
X62903448Y-53078729D01*
X62820186Y-53180186D01*
X62718729Y-53263448D01*
X62682991Y-53292778D01*
X62526466Y-53376443D01*
X62356627Y-53427963D01*
X62290443Y-53434481D01*
X62224260Y-53441000D01*
X62135740Y-53441000D01*
X62069557Y-53434481D01*
X62003373Y-53427963D01*
X61833534Y-53376443D01*
X61677009Y-53292778D01*
X61641271Y-53263448D01*
X61539814Y-53180186D01*
X61456552Y-53078729D01*
X61427222Y-53042991D01*
X61343557Y-52886466D01*
X61292037Y-52716627D01*
X61274641Y-52540000D01*
X61292037Y-52363373D01*
X61343557Y-52193534D01*
X61427222Y-52037009D01*
X61456552Y-52001271D01*
X61539814Y-51899814D01*
X61641271Y-51816552D01*
X61677009Y-51787222D01*
X61833534Y-51703557D01*
X62003373Y-51652037D01*
X62069557Y-51645519D01*
X62135740Y-51639000D01*
X62224260Y-51639000D01*
X62290443Y-51645519D01*
X62290443Y-51645519D01*
G37*
G36*
X19110443Y-51645519D02*
G01*
X19176627Y-51652037D01*
X19346466Y-51703557D01*
X19502991Y-51787222D01*
X19538729Y-51816552D01*
X19640186Y-51899814D01*
X19723448Y-52001271D01*
X19752778Y-52037009D01*
X19836443Y-52193534D01*
X19887963Y-52363373D01*
X19905359Y-52540000D01*
X19887963Y-52716627D01*
X19836443Y-52886466D01*
X19752778Y-53042991D01*
X19723448Y-53078729D01*
X19640186Y-53180186D01*
X19538729Y-53263448D01*
X19502991Y-53292778D01*
X19346466Y-53376443D01*
X19176627Y-53427963D01*
X19110443Y-53434481D01*
X19044260Y-53441000D01*
X18955740Y-53441000D01*
X18889557Y-53434481D01*
X18823373Y-53427963D01*
X18653534Y-53376443D01*
X18497009Y-53292778D01*
X18461271Y-53263448D01*
X18359814Y-53180186D01*
X18276552Y-53078729D01*
X18247222Y-53042991D01*
X18163557Y-52886466D01*
X18112037Y-52716627D01*
X18094641Y-52540000D01*
X18112037Y-52363373D01*
X18163557Y-52193534D01*
X18247222Y-52037009D01*
X18276552Y-52001271D01*
X18359814Y-51899814D01*
X18461271Y-51816552D01*
X18497009Y-51787222D01*
X18653534Y-51703557D01*
X18823373Y-51652037D01*
X18889557Y-51645519D01*
X18955740Y-51639000D01*
X19044260Y-51639000D01*
X19110443Y-51645519D01*
X19110443Y-51645519D01*
G37*
G36*
X21650443Y-51645519D02*
G01*
X21716627Y-51652037D01*
X21886466Y-51703557D01*
X22042991Y-51787222D01*
X22078729Y-51816552D01*
X22180186Y-51899814D01*
X22263448Y-52001271D01*
X22292778Y-52037009D01*
X22376443Y-52193534D01*
X22427963Y-52363373D01*
X22445359Y-52540000D01*
X22427963Y-52716627D01*
X22376443Y-52886466D01*
X22292778Y-53042991D01*
X22263448Y-53078729D01*
X22180186Y-53180186D01*
X22078729Y-53263448D01*
X22042991Y-53292778D01*
X21886466Y-53376443D01*
X21716627Y-53427963D01*
X21650443Y-53434481D01*
X21584260Y-53441000D01*
X21495740Y-53441000D01*
X21429557Y-53434481D01*
X21363373Y-53427963D01*
X21193534Y-53376443D01*
X21037009Y-53292778D01*
X21001271Y-53263448D01*
X20899814Y-53180186D01*
X20816552Y-53078729D01*
X20787222Y-53042991D01*
X20703557Y-52886466D01*
X20652037Y-52716627D01*
X20634641Y-52540000D01*
X20652037Y-52363373D01*
X20703557Y-52193534D01*
X20787222Y-52037009D01*
X20816552Y-52001271D01*
X20899814Y-51899814D01*
X21001271Y-51816552D01*
X21037009Y-51787222D01*
X21193534Y-51703557D01*
X21363373Y-51652037D01*
X21429557Y-51645519D01*
X21495740Y-51639000D01*
X21584260Y-51639000D01*
X21650443Y-51645519D01*
X21650443Y-51645519D01*
G37*
G36*
X21650443Y-49105519D02*
G01*
X21716627Y-49112037D01*
X21886466Y-49163557D01*
X22042991Y-49247222D01*
X22078729Y-49276552D01*
X22180186Y-49359814D01*
X22263448Y-49461271D01*
X22292778Y-49497009D01*
X22376443Y-49653534D01*
X22427963Y-49823373D01*
X22445359Y-50000000D01*
X22427963Y-50176627D01*
X22376443Y-50346466D01*
X22292778Y-50502991D01*
X22263448Y-50538729D01*
X22180186Y-50640186D01*
X22078729Y-50723448D01*
X22042991Y-50752778D01*
X21886466Y-50836443D01*
X21716627Y-50887963D01*
X21650443Y-50894481D01*
X21584260Y-50901000D01*
X21495740Y-50901000D01*
X21429557Y-50894481D01*
X21363373Y-50887963D01*
X21193534Y-50836443D01*
X21037009Y-50752778D01*
X21001271Y-50723448D01*
X20899814Y-50640186D01*
X20816552Y-50538729D01*
X20787222Y-50502991D01*
X20703557Y-50346466D01*
X20652037Y-50176627D01*
X20634641Y-50000000D01*
X20652037Y-49823373D01*
X20703557Y-49653534D01*
X20787222Y-49497009D01*
X20816552Y-49461271D01*
X20899814Y-49359814D01*
X21001271Y-49276552D01*
X21037009Y-49247222D01*
X21193534Y-49163557D01*
X21363373Y-49112037D01*
X21429557Y-49105519D01*
X21495740Y-49099000D01*
X21584260Y-49099000D01*
X21650443Y-49105519D01*
X21650443Y-49105519D01*
G37*
G36*
X19901000Y-50901000D02*
G01*
X18099000Y-50901000D01*
X18099000Y-49099000D01*
X19901000Y-49099000D01*
X19901000Y-50901000D01*
X19901000Y-50901000D01*
G37*
G36*
X60541000Y-50901000D02*
G01*
X58739000Y-50901000D01*
X58739000Y-49099000D01*
X60541000Y-49099000D01*
X60541000Y-50901000D01*
X60541000Y-50901000D01*
G37*
G36*
X62290443Y-49105519D02*
G01*
X62356627Y-49112037D01*
X62526466Y-49163557D01*
X62682991Y-49247222D01*
X62718729Y-49276552D01*
X62820186Y-49359814D01*
X62903448Y-49461271D01*
X62932778Y-49497009D01*
X63016443Y-49653534D01*
X63067963Y-49823373D01*
X63085359Y-50000000D01*
X63067963Y-50176627D01*
X63016443Y-50346466D01*
X62932778Y-50502991D01*
X62903448Y-50538729D01*
X62820186Y-50640186D01*
X62718729Y-50723448D01*
X62682991Y-50752778D01*
X62526466Y-50836443D01*
X62356627Y-50887963D01*
X62290443Y-50894481D01*
X62224260Y-50901000D01*
X62135740Y-50901000D01*
X62069557Y-50894481D01*
X62003373Y-50887963D01*
X61833534Y-50836443D01*
X61677009Y-50752778D01*
X61641271Y-50723448D01*
X61539814Y-50640186D01*
X61456552Y-50538729D01*
X61427222Y-50502991D01*
X61343557Y-50346466D01*
X61292037Y-50176627D01*
X61274641Y-50000000D01*
X61292037Y-49823373D01*
X61343557Y-49653534D01*
X61427222Y-49497009D01*
X61456552Y-49461271D01*
X61539814Y-49359814D01*
X61641271Y-49276552D01*
X61677009Y-49247222D01*
X61833534Y-49163557D01*
X62003373Y-49112037D01*
X62069557Y-49105519D01*
X62135740Y-49099000D01*
X62224260Y-49099000D01*
X62290443Y-49105519D01*
X62290443Y-49105519D01*
G37*
M02*
