G04 #@! TF.GenerationSoftware,KiCad,Pcbnew,(5.1.0)-1*
G04 #@! TF.CreationDate,2020-09-16T11:17:04+02:00*
G04 #@! TF.ProjectId,Nand Lite,4e616e64-204c-4697-9465-2e6b69636164,rev?*
G04 #@! TF.SameCoordinates,Original*
G04 #@! TF.FileFunction,Legend,Bot*
G04 #@! TF.FilePolarity,Positive*
%FSLAX46Y46*%
G04 Gerber Fmt 4.6, Leading zero omitted, Abs format (unit mm)*
G04 Created by KiCad (PCBNEW (5.1.0)-1) date 2020-09-16 11:17:04*
%MOMM*%
%LPD*%
G04 APERTURE LIST*
%ADD10C,0.150000*%
G04 APERTURE END LIST*
D10*
X31738626Y-81900020D02*
X31738626Y-80900020D01*
X31167198Y-81900020D01*
X31167198Y-80900020D01*
X30262436Y-81900020D02*
X30262436Y-81376211D01*
X30310055Y-81280973D01*
X30405293Y-81233354D01*
X30595769Y-81233354D01*
X30691007Y-81280973D01*
X30262436Y-81852401D02*
X30357674Y-81900020D01*
X30595769Y-81900020D01*
X30691007Y-81852401D01*
X30738626Y-81757163D01*
X30738626Y-81661925D01*
X30691007Y-81566687D01*
X30595769Y-81519068D01*
X30357674Y-81519068D01*
X30262436Y-81471449D01*
X29786245Y-81233354D02*
X29786245Y-81900020D01*
X29786245Y-81328592D02*
X29738626Y-81280973D01*
X29643388Y-81233354D01*
X29500531Y-81233354D01*
X29405293Y-81280973D01*
X29357674Y-81376211D01*
X29357674Y-81900020D01*
X28452912Y-81900020D02*
X28452912Y-80900020D01*
X28452912Y-81852401D02*
X28548150Y-81900020D01*
X28738626Y-81900020D01*
X28833864Y-81852401D01*
X28881483Y-81804782D01*
X28929102Y-81709544D01*
X28929102Y-81423830D01*
X28881483Y-81328592D01*
X28833864Y-81280973D01*
X28738626Y-81233354D01*
X28548150Y-81233354D01*
X28452912Y-81280973D01*
X26738626Y-81900020D02*
X27214817Y-81900020D01*
X27214817Y-80900020D01*
X26405293Y-81900020D02*
X26405293Y-81233354D01*
X26405293Y-80900020D02*
X26452912Y-80947640D01*
X26405293Y-80995259D01*
X26357674Y-80947640D01*
X26405293Y-80900020D01*
X26405293Y-80995259D01*
X26071960Y-81233354D02*
X25691007Y-81233354D01*
X25929102Y-80900020D02*
X25929102Y-81757163D01*
X25881483Y-81852401D01*
X25786245Y-81900020D01*
X25691007Y-81900020D01*
X24976721Y-81852401D02*
X25071960Y-81900020D01*
X25262436Y-81900020D01*
X25357674Y-81852401D01*
X25405293Y-81757163D01*
X25405293Y-81376211D01*
X25357674Y-81280973D01*
X25262436Y-81233354D01*
X25071960Y-81233354D01*
X24976721Y-81280973D01*
X24929102Y-81376211D01*
X24929102Y-81471449D01*
X25405293Y-81566687D01*
X23738626Y-81900020D02*
X23738626Y-80900020D01*
X23738626Y-81280973D02*
X23643388Y-81233354D01*
X23452912Y-81233354D01*
X23357674Y-81280973D01*
X23310055Y-81328592D01*
X23262436Y-81423830D01*
X23262436Y-81709544D01*
X23310055Y-81804782D01*
X23357674Y-81852401D01*
X23452912Y-81900020D01*
X23643388Y-81900020D01*
X23738626Y-81852401D01*
X22929102Y-81233354D02*
X22691007Y-81900020D01*
X22452912Y-81233354D02*
X22691007Y-81900020D01*
X22786245Y-82138116D01*
X22833864Y-82185735D01*
X22929102Y-82233354D01*
X20976721Y-81376211D02*
X21310055Y-81376211D01*
X21310055Y-81900020D02*
X21310055Y-80900020D01*
X20833864Y-80900020D01*
X20024340Y-81233354D02*
X20024340Y-81900020D01*
X20452912Y-81233354D02*
X20452912Y-81757163D01*
X20405293Y-81852401D01*
X20310055Y-81900020D01*
X20167198Y-81900020D01*
X20071960Y-81852401D01*
X20024340Y-81804782D01*
X19548150Y-81233354D02*
X19548150Y-81900020D01*
X19548150Y-81328592D02*
X19500531Y-81280973D01*
X19405293Y-81233354D01*
X19262436Y-81233354D01*
X19167198Y-81280973D01*
X19119579Y-81376211D01*
X19119579Y-81900020D01*
X18214817Y-81900020D02*
X18214817Y-81376211D01*
X18262436Y-81280973D01*
X18357674Y-81233354D01*
X18548150Y-81233354D01*
X18643388Y-81280973D01*
X18214817Y-81852401D02*
X18310055Y-81900020D01*
X18548150Y-81900020D01*
X18643388Y-81852401D01*
X18691007Y-81757163D01*
X18691007Y-81661925D01*
X18643388Y-81566687D01*
X18548150Y-81519068D01*
X18310055Y-81519068D01*
X18214817Y-81471449D01*
X17738626Y-81900020D02*
X17738626Y-80900020D01*
X17643388Y-81519068D02*
X17357674Y-81900020D01*
X17357674Y-81233354D02*
X17738626Y-81614306D01*
X46984824Y-81133060D02*
X47080062Y-81085440D01*
X47222920Y-81085440D01*
X47365777Y-81133060D01*
X47461015Y-81228298D01*
X47508634Y-81323536D01*
X47556253Y-81514012D01*
X47556253Y-81656869D01*
X47508634Y-81847345D01*
X47461015Y-81942583D01*
X47365777Y-82037821D01*
X47222920Y-82085440D01*
X47127681Y-82085440D01*
X46984824Y-82037821D01*
X46937205Y-81990202D01*
X46937205Y-81656869D01*
X47127681Y-81656869D01*
X46508634Y-82085440D02*
X46508634Y-81085440D01*
X45937205Y-82085440D01*
X45937205Y-81085440D01*
X45461015Y-82085440D02*
X45461015Y-81085440D01*
X45222920Y-81085440D01*
X45080062Y-81133060D01*
X44984824Y-81228298D01*
X44937205Y-81323536D01*
X44889586Y-81514012D01*
X44889586Y-81656869D01*
X44937205Y-81847345D01*
X44984824Y-81942583D01*
X45080062Y-82037821D01*
X45222920Y-82085440D01*
X45461015Y-82085440D01*
X46824472Y-79570840D02*
X46824472Y-78570840D01*
X46586377Y-78570840D01*
X46443520Y-78618460D01*
X46348281Y-78713698D01*
X46300662Y-78808936D01*
X46253043Y-78999412D01*
X46253043Y-79142269D01*
X46300662Y-79332745D01*
X46348281Y-79427983D01*
X46443520Y-79523221D01*
X46586377Y-79570840D01*
X46824472Y-79570840D01*
X45824472Y-79189888D02*
X45062567Y-79189888D01*
X45443520Y-79570840D02*
X45443520Y-78808936D01*
X46791452Y-76967340D02*
X46791452Y-75967340D01*
X46553357Y-75967340D01*
X46410500Y-76014960D01*
X46315261Y-76110198D01*
X46267642Y-76205436D01*
X46220023Y-76395912D01*
X46220023Y-76538769D01*
X46267642Y-76729245D01*
X46315261Y-76824483D01*
X46410500Y-76919721D01*
X46553357Y-76967340D01*
X46791452Y-76967340D01*
X45791452Y-76586388D02*
X45029547Y-76586388D01*
X47252735Y-73465440D02*
X46633687Y-73465440D01*
X46967020Y-73846393D01*
X46824163Y-73846393D01*
X46728925Y-73894012D01*
X46681306Y-73941631D01*
X46633687Y-74036869D01*
X46633687Y-74274964D01*
X46681306Y-74370202D01*
X46728925Y-74417821D01*
X46824163Y-74465440D01*
X47109878Y-74465440D01*
X47205116Y-74417821D01*
X47252735Y-74370202D01*
X46347973Y-73465440D02*
X46014640Y-74465440D01*
X45681306Y-73465440D01*
X45443211Y-73465440D02*
X44824163Y-73465440D01*
X45157497Y-73846393D01*
X45014640Y-73846393D01*
X44919401Y-73894012D01*
X44871782Y-73941631D01*
X44824163Y-74036869D01*
X44824163Y-74274964D01*
X44871782Y-74370202D01*
X44919401Y-74417821D01*
X45014640Y-74465440D01*
X45300354Y-74465440D01*
X45395592Y-74417821D01*
X45443211Y-74370202D01*
X37118135Y-70966080D02*
X36499087Y-70966080D01*
X36832420Y-71347033D01*
X36689563Y-71347033D01*
X36594325Y-71394652D01*
X36546706Y-71442271D01*
X36499087Y-71537509D01*
X36499087Y-71775604D01*
X36546706Y-71870842D01*
X36594325Y-71918461D01*
X36689563Y-71966080D01*
X36975278Y-71966080D01*
X37070516Y-71918461D01*
X37118135Y-71870842D01*
X36213373Y-70966080D02*
X35880040Y-71966080D01*
X35546706Y-70966080D01*
X35308611Y-70966080D02*
X34689563Y-70966080D01*
X35022897Y-71347033D01*
X34880040Y-71347033D01*
X34784801Y-71394652D01*
X34737182Y-71442271D01*
X34689563Y-71537509D01*
X34689563Y-71775604D01*
X34737182Y-71870842D01*
X34784801Y-71918461D01*
X34880040Y-71966080D01*
X35165754Y-71966080D01*
X35260992Y-71918461D01*
X35308611Y-71870842D01*
X36946388Y-74377822D02*
X36994007Y-74425441D01*
X37136864Y-74473060D01*
X37232102Y-74473060D01*
X37374960Y-74425441D01*
X37470198Y-74330203D01*
X37517817Y-74234965D01*
X37565436Y-74044489D01*
X37565436Y-73901632D01*
X37517817Y-73711156D01*
X37470198Y-73615918D01*
X37374960Y-73520680D01*
X37232102Y-73473060D01*
X37136864Y-73473060D01*
X36994007Y-73520680D01*
X36946388Y-73568299D01*
X36041626Y-74473060D02*
X36517817Y-74473060D01*
X36517817Y-73473060D01*
X35708293Y-74473060D02*
X35708293Y-73473060D01*
X35136864Y-74473060D02*
X35565436Y-73901632D01*
X35136864Y-73473060D02*
X35708293Y-74044489D01*
X34184483Y-74473060D02*
X34755912Y-74473060D01*
X34470198Y-74473060D02*
X34470198Y-73473060D01*
X34565436Y-73615918D01*
X34660674Y-73711156D01*
X34755912Y-73758775D01*
X37422579Y-77023220D02*
X37422579Y-76023220D01*
X37184483Y-76023220D01*
X37041626Y-76070840D01*
X36946388Y-76166078D01*
X36898769Y-76261316D01*
X36851150Y-76451792D01*
X36851150Y-76594649D01*
X36898769Y-76785125D01*
X36946388Y-76880363D01*
X37041626Y-76975601D01*
X37184483Y-77023220D01*
X37422579Y-77023220D01*
X36470198Y-76737506D02*
X35994007Y-76737506D01*
X36565436Y-77023220D02*
X36232102Y-76023220D01*
X35898769Y-77023220D01*
X35708293Y-76023220D02*
X35136864Y-76023220D01*
X35422579Y-77023220D02*
X35422579Y-76023220D01*
X34279721Y-77023220D02*
X34851150Y-77023220D01*
X34565436Y-77023220D02*
X34565436Y-76023220D01*
X34660674Y-76166078D01*
X34755912Y-76261316D01*
X34851150Y-76308935D01*
X36493414Y-78591160D02*
X35921985Y-78591160D01*
X36207700Y-79591160D02*
X36207700Y-78591160D01*
X36898484Y-81138140D02*
X36993722Y-81090520D01*
X37136580Y-81090520D01*
X37279437Y-81138140D01*
X37374675Y-81233378D01*
X37422294Y-81328616D01*
X37469913Y-81519092D01*
X37469913Y-81661949D01*
X37422294Y-81852425D01*
X37374675Y-81947663D01*
X37279437Y-82042901D01*
X37136580Y-82090520D01*
X37041341Y-82090520D01*
X36898484Y-82042901D01*
X36850865Y-81995282D01*
X36850865Y-81661949D01*
X37041341Y-81661949D01*
X36422294Y-82090520D02*
X36422294Y-81090520D01*
X35850865Y-82090520D01*
X35850865Y-81090520D01*
X35374675Y-82090520D02*
X35374675Y-81090520D01*
X35136580Y-81090520D01*
X34993722Y-81138140D01*
X34898484Y-81233378D01*
X34850865Y-81328616D01*
X34803246Y-81519092D01*
X34803246Y-81661949D01*
X34850865Y-81852425D01*
X34898484Y-81947663D01*
X34993722Y-82042901D01*
X35136580Y-82090520D01*
X35374675Y-82090520D01*
M02*
